<svg xmlns="http://www.w3.org/2000/svg" xmlns:xlink="http://www.w3.org/1999/xlink" viewBox="0 0 101.39 138"><defs><style>.cls-1{fill:none;}.cls-2{fill:#085241;}.cls-3{fill:#722529;}.cls-4{fill:#edeae0;}</style><symbol id="Болванка-новая" data-name="Болванка-новая" viewBox="0 0 101.39 138"><rect class="cls-1" width="101.39" height="138" rx="6.76"/></symbol></defs><g id="Слой_2" data-name="Слой 2"><g id="Слой_1-2" data-name="Слой 1"><use width="101.39" height="138" xlink:href="#Болванка-новая"/><path class="cls-2" d="M57.32,101.39a2.32,2.32,0,0,0,1.1-1.94c3.71-4.71,17.31-11.39,23.29-11.27a2.32,2.32,0,0,0,2.19.37c1.6-.76,1.52-4.3-.17-7.9s-4.38-5.91-6-5.15a2.3,2.3,0,0,0-1.1,1.93c-3.71,4.71-17.31,11.4-23.29,11.28a2.33,2.33,0,0,0-2.19-.38,2.27,2.27,0,0,0-1.08,1.77c-3.71,4.78-24.39,14.68-30.31,14.65a2.38,2.38,0,0,0-2.29-.44c-1.61.76-1.53,4.3.17,7.9s4.38,5.91,6,5.15a2.36,2.36,0,0,0,1.11-2.06c3.74-4.61,24.49-14.35,30.53-14.2a2.2,2.2,0,0,0,2,.29M77.71,84.5,57.55,94.56a9.84,9.84,0,0,0-.46-1.2,8.1,8.1,0,0,0-.63-.94L76.89,82.27Zm-53.6,23.59,26.06-13a11.18,11.18,0,0,0,.52,1.13,8.5,8.5,0,0,0,.51,1l-26.06,13A6.31,6.31,0,0,0,24.11,108.09Z"/><rect class="cls-3" x="64.93" y="72.71" width="2.96" height="10.18" transform="translate(-35.84 75.02) rotate(-47.96)"/><rect class="cls-3" x="53.03" y="79.72" width="2.96" height="9.61" transform="translate(-35.25 39.16) rotate(-30.37)"/><path class="cls-3" d="M77.82,84.2a7.37,7.37,0,0,0-1-3,8,8,0,0,0-5.18-3.51,8.82,8.82,0,0,0-1.31-.1,7.84,7.84,0,0,0-1.08.11l-.6.16.21,1.25-1.74,1.2s-.19.19-.19.82c0,1.4,2.61,3.58,3.26,5a12.71,12.71,0,0,1,1.18,4.1,7,7,0,0,1,0,.8,4.08,4.08,0,0,1-.1.61l-.17.53.32-.47a5.44,5.44,0,0,0,.29-.59,8.39,8.39,0,0,0,.25-.83,30.74,30.74,0,0,0-.12-7.44A3.54,3.54,0,0,1,74,84.21a7.82,7.82,0,0,1,.64,2.48A10,10,0,0,1,74.52,89a8.57,8.57,0,0,1-.45,1.64,6.15,6.15,0,0,1-.25.61s.15-.18.39-.53a8.07,8.07,0,0,0,.86-1.56,9.79,9.79,0,0,0,.68-5.53,8.1,8.1,0,0,0-.4-1.33,6,6,0,0,1,1.32,2.1,5.84,5.84,0,0,1,.15.6,2.45,2.45,0,0,1,.11.59,7.23,7.23,0,0,1,0,1.13c0,.36-.07.69-.1,1s-.14.53-.19.74c-.11.41-.17.65-.17.65l.32-.59c.1-.2.24-.43.37-.7s.22-.62.34-1a7.91,7.91,0,0,0,.26-1.22,3.22,3.22,0,0,0,0-.7,6.12,6.12,0,0,0,0-.74"/><path class="cls-3" d="M65.11,92.86c0-.32-.08-.64-.12-1a9.41,9.41,0,0,0-.3-1.12,7.79,7.79,0,0,0-1.28-2.26A7.56,7.56,0,0,0,59,85.82a7.19,7.19,0,0,0-1.09-.11l-.91.08c-.53.12-.83.22-.83.22l0,.11-.22,0c-.46,0-.73,0-.73,0l-.1,2.63s-.23.32,0,1.07,2.32,2,2.8,3.2a13.67,13.67,0,0,1,.9,3.59A9.55,9.55,0,0,1,59,97.79v.48l.16-.46c.09-.29.22-.72.33-1.25a15.06,15.06,0,0,0,.34-4l-.06-.64a14.08,14.08,0,0,1,1.48,2.65,10.93,10.93,0,0,1,.46,1.23,3,3,0,0,1,.11.49,4.53,4.53,0,0,0,0-.51,11.3,11.3,0,0,0,0-1.35,14.49,14.49,0,0,0-.94-4.09A9,9,0,0,0,60.19,89a5.17,5.17,0,0,1,2,.81,6.3,6.3,0,0,1,1.51,1.45,8.55,8.55,0,0,1,.52.86c.13.29.29.57.38.84l.24.77c.06.23.09.44.13.61.06.34.1.54.1.54s0-.2.06-.55c0-.17,0-.39,0-.64s0-.53,0-.84"/><path class="cls-2" d="M55.29,77.74a4.18,4.18,0,1,1-5.47-2.06,4.13,4.13,0,0,1,5.47,2.06"/><path class="cls-2" d="M64.06,69.58a4.18,4.18,0,1,1-6,.09,4.26,4.26,0,0,1,6-.09"/><path class="cls-4" d="M71.91,26.67C66.53,13.91,58,14.58,55.62,14.58c-3.93,0-7.4,3.51-10.67,4s-4.82,1-6.64,2.7L46.57,24c6.34,4.05,4.24,9.58,4.24,9.58-18.54,4.79-15.05,45.37-15.28,46.7,0,2.67,7.11,2.3,7.11,2.3a2.94,2.94,0,0,0,.48-.1l1.2-.29a47.23,47.23,0,0,0,11-4.87,9.92,9.92,0,0,0,1-.62c5.3-3.31,11.3-11.11,14.24-16.52,4.79-8.85,5.16-24.31,1.29-33.5"/><path class="cls-3" d="M71.13,32.78a32.51,32.51,0,0,0,2.54-3.39l-2-1.25c-2.6,4.13-5.4,6.53-8.65,7.24a9.83,9.83,0,0,1-2,.23c-2.9,0-6.15-1.11-9.91-3.43l-1.24,2a26.12,26.12,0,0,0,7.77,3.43,17.74,17.74,0,0,1,.56,2.21,51.71,51.71,0,0,1,.85,8.07,40.05,40.05,0,0,1-.48,8.23,12.13,12.13,0,0,1-.76,2.61,4.88,4.88,0,0,1-.36.68l-.14.24.19-.2a5,5,0,0,0,.53-.59,12.5,12.5,0,0,0,1.41-2.46A41.06,41.06,0,0,0,62,48.16a60.09,60.09,0,0,0,1-6.32,27.28,27.28,0,0,1,.58,3.47,28.09,28.09,0,0,1,0,6.51,11.51,11.51,0,0,1-.2,1.22,9.11,9.11,0,0,1-.2.93c-.14.52-.23.81-.23.81l.46-.71c.16-.22.3-.52.49-.85s.37-.71.57-1.14a30.7,30.7,0,0,0,2.09-6.61,26,26,0,0,0,.57-6.94c.54,1.94,1.07,11.76-3,22.1A39,39,0,0,0,70.79,46.3a39.12,39.12,0,0,0,.34-13.52"/><path class="cls-3" d="M36.9,85.61c-4.16-1-4-4.4-4-4.4S19,100.1,26,130.28c.84-3.24,1.34-20,4.16-26-1.47,9.16,3.61,26.41,3.61,26.41s-.11-23.16,4.05-28.78A40.09,40.09,0,0,0,42.78,124S37.9,101.32,47.9,84.7a15.93,15.93,0,0,1-11,.91"/><path class="cls-2" d="M73,26.21c-3.58-8.5-9.83-13-16.55-12.81a19.8,19.8,0,0,0-7.68,2.35,14.08,14.08,0,0,1-4,1.71c-3.31.52-5.14,1.07-7.25,3L36,21.82l10,3.24c4,2.6,4.07,5.76,3.84,7.25a5.19,5.19,0,0,0-.79,0c-5.24.31-9.3,4-12.09,11h0l-.09.26c-.28.71-.55,1.44-.8,2.22l0,.14h0C32.54,57,32.58,71.82,32.59,76.7c0,.71,0,1.38,0,1.5v.15a1.28,1.28,0,0,0,.26.8,1.1,1.1,0,0,0,.88.4h0a1.49,1.49,0,0,0,.64-.18c0,.36,0,.66,0,.73v.17c.1,1.18,1.86,3.92,7.45,3.5,3.86-.3,10.46-3.24,14.13-5.42.35-.19.71-.42,1.08-.66,5.35-3.35,11.54-11.23,14.64-17C76.49,51.8,77.11,36,73,26.21ZM42,51.05c-.59,2.2-1.9,6.62-3.48,11.2A90.83,90.83,0,0,1,41.1,50.62l.13.06.6.27Zm3.41,1,.54.07c.33,0,.65.09,1,.12l.14,0a92.15,92.15,0,0,1-4.78,9.93C43.74,58,44.88,54.18,45.45,52.06Zm5.42.13c.39,0,.78-.1,1.17-.17l.18,0c-.31.91-.66,1.82-1,2.72A64.66,64.66,0,0,1,43.9,66.66C47.27,60.8,50.13,54.75,50.87,52.19Zm-13.53-4.3a13.41,13.41,0,0,0,1.11,1c-1.37,3.7-2.72,10.48-3.78,16.34A85.87,85.87,0,0,1,37.34,47.89ZM69.58,59.61c-3,5.46-8.82,13-13.85,16.1-.34.23-.64.41-1,.59A46,46,0,0,1,44,81a17.72,17.72,0,0,1-2.22.37c-3.49,0-5-.71-5.09-1.11s0-.67,0-1.79c0-.29,0-.54,0-.8,4.73-4.22,12.88-14.85,16.14-22.29a35.32,35.32,0,0,0,1.39-3.75h0l.19-.64.06-.23.37-1.28h0c1.51-6.22,1.06-12-1.22-15.06a5.85,5.85,0,0,0-1.44-1.38c.37-1.92.57-6.58-4.93-10.09l-6.32-2.08a14.2,14.2,0,0,1,4.26-1.14,15.73,15.73,0,0,0,4.7-2.08,19.89,19.89,0,0,1,6.61-2.21c2.37-.15,9.58.26,14.37,11.64C74.7,36.34,74.13,51.22,69.58,59.61Z"/><path class="cls-2" d="M58,18a3.3,3.3,0,1,0,3.3,3.3A3.3,3.3,0,0,0,58,18Zm0,4.24a.94.94,0,1,1,.93-.94A.93.93,0,0,1,58,22.25Z"/><path class="cls-3" d="M36,21.82c2-2,3.74-3.81,9-4.41a21.13,21.13,0,0,0,3.47-1.51l-1.2,3.69c1.65,1.21,5.53,3.21,5.36,3.29-1.2.53-6.59,2.18-6.59,2.18Z"/></g></g></svg>
