<svg xmlns="http://www.w3.org/2000/svg" xmlns:xlink="http://www.w3.org/1999/xlink" viewBox="0 0 101.39 138"><defs><style>.cls-1{fill:none;}.cls-2{fill:#085241;}</style><symbol id="Болванка-новая" data-name="Болванка-новая" viewBox="0 0 101.39 138"><rect class="cls-1" width="101.39" height="138" rx="6.76"/></symbol></defs><g id="Слой_2" data-name="Слой 2"><g id="Слой_1-2" data-name="Слой 1"><use width="101.39" height="138" xlink:href="#Болванка-новая"/><path class="cls-2" d="M57.82,38.25A3,3,0,0,0,56.21,36c-3.36-6.76-3.36-12.45,0-19.21a2.88,2.88,0,0,0,1.6-2.29c0-2.23-4.07-4-9.09-4s-9.09,1.81-9.09,4a2.88,2.88,0,0,0,1.6,2.29c3.36,6.76,3.37,12.45,0,19.21a2.93,2.93,0,0,0-1.61,2.3,2.77,2.77,0,0,0,1.42,2.17c3.44,6.81,3.55,12.51.32,19.25a3,3,0,0,0-1.74,2.38c0,2.23,4.07,4,9.09,4s9.09-1.82,9.09-4a3,3,0,0,0-1.74-2.38c-3.23-6.74-3.13-12.44.32-19.25a2.77,2.77,0,0,0,1.42-2.17M48.25,18.49h1c.35,0,.69,0,1-.09V34.3a11.3,11.3,0,0,0-3,0V18.4c.33.05.67.07,1,.09M49.19,58h-.92c-.36,0-.7.05-1,.09V42.2a25,25,0,0,0,3,0V58.1c-.34,0-.69-.07-1-.09"/><path class="cls-2" d="M57.82,99.75a2.92,2.92,0,0,0-1.61-2.3c-3.36-6.76-3.36-12.45,0-19.21A2.91,2.91,0,0,0,57.82,76c0-2.24-4.07-4-9.09-4s-9.09,1.81-9.09,4a2.91,2.91,0,0,0,1.6,2.29c3.36,6.76,3.37,12.45,0,19.21a2.91,2.91,0,0,0-1.61,2.3,2.78,2.78,0,0,0,1.42,2.17c3.44,6.81,3.55,12.51.32,19.25a3,3,0,0,0-1.74,2.38c0,2.23,4.07,4,9.09,4s9.09-1.81,9.09-4a3,3,0,0,0-1.74-2.38c-3.23-6.74-3.13-12.44.32-19.25a2.78,2.78,0,0,0,1.42-2.17M48.25,80h1q.52,0,1-.09V95.8a11.3,11.3,0,0,0-3,0V79.9q.5.06,1,.09m.94,39.52h-.92c-.36,0-.7,0-1,.09V103.7a12.54,12.54,0,0,0,3,0v15.9c-.34,0-.69-.07-1-.09"/></g></g></svg>
