<svg xmlns="http://www.w3.org/2000/svg" xmlns:xlink="http://www.w3.org/1999/xlink" viewBox="0 0 101.39 138"><defs><style>.cls-1{fill:none;}.cls-2{fill:#085241;}</style><symbol id="Болванка-новая" data-name="Болванка-новая" viewBox="0 0 101.39 138"><rect class="cls-1" width="101.39" height="138" rx="6.76"/></symbol></defs><g id="Слой_2" data-name="Слой 2"><g id="Слой_1-2" data-name="Слой 1"><use width="101.39" height="138" xlink:href="#Болванка-новая"/><path class="cls-2" d="M57.83,38.25a2.94,2.94,0,0,0-1.62-2.31c-3.36-6.76-3.35-12.45,0-19.21a2.92,2.92,0,0,0,1.61-2.29c0-2.24-4.08-4-9.1-4s-9.1,1.81-9.1,4a2.92,2.92,0,0,0,1.61,2.29c3.36,6.76,3.37,12.45,0,19.21a3,3,0,0,0-1.61,2.31,2.8,2.8,0,0,0,1.43,2.17c3.44,6.81,3.55,12.51.31,19.25a3,3,0,0,0-1.74,2.38c0,2.23,4.08,4,9.1,4s9.1-1.82,9.1-4a3,3,0,0,0-1.75-2.38c-3.23-6.74-3.13-12.44.32-19.25a2.8,2.8,0,0,0,1.43-2.17M48.25,18.47h1a8.41,8.41,0,0,0,1-.09V34.29a12.09,12.09,0,0,0-1.5-.09,10.4,10.4,0,0,0-1.5.1V18.38a8.41,8.41,0,0,0,1,.09M49.19,58h-.92c-.36,0-.7.05-1,.09V42.19a11.3,11.3,0,0,0,3,0V58.1c-.34,0-.69-.08-1-.09"/><path class="cls-2" d="M33.51,99.75a2.92,2.92,0,0,0-1.61-2.29c-3.36-6.76-3.36-12.45,0-19.21A3,3,0,0,0,33.51,76c0-2.23-4.08-4-9.1-4s-9.09,1.82-9.09,4a2.94,2.94,0,0,0,1.6,2.3c3.37,6.76,3.37,12.45,0,19.21a2.9,2.9,0,0,0-1.61,2.29,2.78,2.78,0,0,0,1.42,2.18c3.45,6.81,3.55,12.51.32,19.25a3,3,0,0,0-1.74,2.38c0,2.23,4.07,4,9.09,4s9.1-1.82,9.1-4a3,3,0,0,0-1.74-2.38c-3.23-6.74-3.13-12.44.31-19.25a2.8,2.8,0,0,0,1.43-2.18M23.93,80h1q.52,0,1-.09V95.81a10.4,10.4,0,0,0-1.5-.1,10.6,10.6,0,0,0-1.5.1V79.9q.49.06,1,.09m.94,39.53H24c-.35,0-.7,0-1,.09V103.7a10.6,10.6,0,0,0,1.5.1,10.4,10.4,0,0,0,1.5-.1v15.91c-.33,0-.68-.07-1-.09"/><path class="cls-2" d="M82.14,99.75a2.92,2.92,0,0,0-1.61-2.29c-3.36-6.76-3.36-12.45,0-19.21A2.93,2.93,0,0,0,82.14,76c0-2.23-4.07-4-9.1-4S64,73.72,64,76a2.94,2.94,0,0,0,1.6,2.3c3.37,6.76,3.37,12.45,0,19.21A2.92,2.92,0,0,0,64,99.75a2.77,2.77,0,0,0,1.43,2.18c3.44,6.81,3.54,12.51.31,19.25A3,3,0,0,0,64,123.56c0,2.23,4.07,4,9.09,4s9.1-1.82,9.1-4a3,3,0,0,0-1.74-2.38c-3.23-6.74-3.13-12.44.31-19.25a2.77,2.77,0,0,0,1.43-2.18M72.56,80h1q.53,0,1-.09V95.81a10.4,10.4,0,0,0-1.5-.1,10.6,10.6,0,0,0-1.5.1V79.9q.51.06,1,.09m1,39.53h-.93c-.35,0-.7,0-1,.09V103.7a10.6,10.6,0,0,0,1.5.1,10.4,10.4,0,0,0,1.5-.1v15.91c-.33,0-.68-.07-1-.09"/></g></g></svg>
