<svg xmlns="http://www.w3.org/2000/svg" xmlns:xlink="http://www.w3.org/1999/xlink" viewBox="0 0 101.39 138"><defs><style>.cls-1{fill:none;}.cls-2{fill:#085241;}.cls-3{fill:#722529;}</style><symbol id="Болванка-новая" data-name="Болванка-новая" viewBox="0 0 101.39 138"><rect class="cls-1" width="101.39" height="138" rx="6.76"/></symbol></defs><g id="Слой_2" data-name="Слой 2"><g id="Слой_1-2" data-name="Слой 1"><use width="101.39" height="138" xlink:href="#Болванка-новая"/><path class="cls-2" d="M34,38.25a2.93,2.93,0,0,0-1.61-2.31C29,29.19,29,23.49,32.35,16.73A2.91,2.91,0,0,0,34,14.44c0-2.24-4.07-4-9.09-4s-9.1,1.81-9.1,4a2.92,2.92,0,0,0,1.61,2.29c3.36,6.76,3.36,12.46,0,19.21a3,3,0,0,0-1.61,2.31,2.8,2.8,0,0,0,1.43,2.17c3.44,6.81,3.54,12.51.31,19.25a3,3,0,0,0-1.74,2.38c0,2.23,4.07,4,9.1,4s9.09-1.82,9.09-4a3,3,0,0,0-1.74-2.38c-3.23-6.74-3.13-12.44.32-19.25A2.78,2.78,0,0,0,34,38.25M24.38,18.47h1a8.59,8.59,0,0,0,1-.09V34.3a10.6,10.6,0,0,0-1.5-.1,10.4,10.4,0,0,0-1.5.1V18.38a8.41,8.41,0,0,0,1,.09M25.32,58h-.93c-.35,0-.7.05-1,.09V42.19a12.06,12.06,0,0,0,1.5.1,12.32,12.32,0,0,0,1.5-.1V58.1c-.34,0-.68-.08-1-.09"/><path class="cls-3" d="M57.8,69a2.92,2.92,0,0,0-1.61-2.3c-3.36-6.76-3.36-12.45,0-19.21a2.91,2.91,0,0,0,1.6-2.29c0-2.24-4.07-4.05-9.09-4.05s-9.1,1.81-9.1,4.05a2.9,2.9,0,0,0,1.61,2.29c3.36,6.76,3.36,12.45,0,19.21A2.92,2.92,0,0,0,39.61,69,2.76,2.76,0,0,0,41,71.17c3.44,6.81,3.54,12.52.31,19.25a3,3,0,0,0-1.74,2.38c0,2.24,4.07,4,9.1,4s9.09-1.81,9.09-4a3,3,0,0,0-1.74-2.38c-3.23-6.73-3.13-12.44.32-19.25A2.77,2.77,0,0,0,57.8,69M48.23,49.23h1c.34,0,.69,0,1-.09V65.05a12.32,12.32,0,0,0-1.5-.1,12.06,12.06,0,0,0-1.5.1V49.14c.33,0,.67.07,1,.09m.94,39.53h-.93c-.35,0-.7,0-1,.1V73a12.09,12.09,0,0,0,1.5.09,12.33,12.33,0,0,0,1.5-.09V88.86c-.34,0-.69-.08-1-.1"/><path class="cls-2" d="M81.65,38.25A3,3,0,0,0,80,35.94c-3.36-6.75-3.36-12.45,0-19.21a2.92,2.92,0,0,0,1.61-2.29c0-2.24-4.07-4-9.09-4s-9.1,1.81-9.1,4a2.91,2.91,0,0,0,1.6,2.29c3.37,6.76,3.37,12.46,0,19.21a2.93,2.93,0,0,0-1.61,2.31,2.78,2.78,0,0,0,1.42,2.17c3.45,6.81,3.55,12.51.32,19.25a3,3,0,0,0-1.74,2.38c0,2.23,4.07,4,9.1,4s9.09-1.82,9.09-4a3,3,0,0,0-1.74-2.38c-3.23-6.74-3.13-12.44.31-19.25a2.77,2.77,0,0,0,1.43-2.17M72.07,18.47h1a8.42,8.42,0,0,0,1-.09V34.3a10.4,10.4,0,0,0-1.5-.1,10.6,10.6,0,0,0-1.5.1V18.38a8.59,8.59,0,0,0,1,.09M73,58h-.93c-.35,0-.7.05-1,.09V42.19a12.32,12.32,0,0,0,1.5.1,12.06,12.06,0,0,0,1.5-.1V58.1c-.33,0-.68-.08-1-.09"/><path class="cls-2" d="M34,99.76a2.9,2.9,0,0,0-1.61-2.3C29,90.7,29,85,32.35,78.24A2.91,2.91,0,0,0,34,76c0-2.24-4.07-4-9.09-4s-9.1,1.81-9.1,4a2.92,2.92,0,0,0,1.61,2.29c3.36,6.76,3.36,12.46,0,19.22a2.92,2.92,0,0,0-1.61,2.3,2.8,2.8,0,0,0,1.43,2.17c3.44,6.81,3.54,12.51.31,19.25a3,3,0,0,0-1.74,2.38c0,2.23,4.07,4,9.1,4s9.09-1.82,9.09-4a3,3,0,0,0-1.74-2.38c-3.23-6.74-3.13-12.44.32-19.25A2.78,2.78,0,0,0,34,99.76M24.38,80h1c.34,0,.69,0,1-.08V95.81a10.6,10.6,0,0,0-1.5-.1,10.4,10.4,0,0,0-1.5.1V79.9c.33,0,.67.07,1,.08m.94,39.54h-.93c-.35,0-.7,0-1,.09V103.7a10.4,10.4,0,0,0,1.5.1,10.6,10.6,0,0,0,1.5-.1v15.91c-.34,0-.68-.08-1-.09"/><path class="cls-2" d="M81.65,99.76A2.92,2.92,0,0,0,80,97.46C76.68,90.7,76.68,85,80,78.24A2.92,2.92,0,0,0,81.65,76c0-2.24-4.07-4-9.09-4s-9.1,1.81-9.1,4a2.91,2.91,0,0,0,1.6,2.29c3.37,6.76,3.37,12.46,0,19.22a2.9,2.9,0,0,0-1.61,2.3,2.78,2.78,0,0,0,1.42,2.17c3.45,6.81,3.55,12.51.32,19.25a3,3,0,0,0-1.74,2.38c0,2.23,4.07,4,9.1,4s9.09-1.82,9.09-4a3,3,0,0,0-1.74-2.38c-3.23-6.74-3.13-12.44.31-19.25a2.77,2.77,0,0,0,1.43-2.17M72.07,80h1c.34,0,.68,0,1-.08V95.81a10.4,10.4,0,0,0-1.5-.1,10.6,10.6,0,0,0-1.5.1V79.9c.33,0,.68.07,1,.08m1,39.54h-.93c-.35,0-.7,0-1,.09V103.7a10.6,10.6,0,0,0,1.5.1,10.4,10.4,0,0,0,1.5-.1v15.91c-.33,0-.68-.08-1-.09"/></g></g></svg>
