<svg xmlns="http://www.w3.org/2000/svg" xmlns:xlink="http://www.w3.org/1999/xlink" viewBox="0 0 101.39 138"><defs><style>.cls-1{fill:none;}.cls-2{fill:#722529;}.cls-3{fill:#085241;}</style><symbol id="Болванка-новая" data-name="Болванка-новая" viewBox="0 0 101.39 138"><rect class="cls-1" width="101.39" height="138" rx="6.76"/></symbol></defs><g id="Слой_2" data-name="Слой 2"><g id="Слой_1-2" data-name="Слой 1"><use width="101.39" height="138" xlink:href="#Болванка-новая"/><path class="cls-2" d="M57.83,28.07c0-.57-.6-1.11-1.62-1.54-3.36-4.56-3.36-8.39,0-12.94,1-.43,1.61-1,1.61-1.54,0-1.5-4.08-2.72-9.1-2.72s-9.1,1.22-9.1,2.72c0,.57.6,1.11,1.61,1.54,3.36,4.55,3.37,8.38,0,12.94-1,.43-1.62,1-1.62,1.54s.53,1,1.43,1.47c3.44,4.58,3.55,8.42.31,13-1.09.45-1.74,1-1.74,1.61,0,1.5,4.08,2.72,9.1,2.72s9.1-1.22,9.1-2.72c0-.6-.65-1.16-1.75-1.61-3.23-4.53-3.13-8.37.32-13,.9-.43,1.43-.93,1.43-1.47m-9.58-13.3h1q.52,0,1-.06v10.7q-.72-.06-1.5-.06a14.51,14.51,0,0,0-1.5.07V14.71q.5,0,1,.06m.94,26.61h-.92c-.36,0-.7,0-1,.06V30.73q.72.06,1.5.06t1.5-.06V41.44c-.34,0-.68,0-1-.06"/><path class="cls-3" d="M31.51,69c0-.58-.6-1.11-1.61-1.55-3.37-4.55-3.36-8.38,0-12.93,1-.44,1.61-1,1.61-1.54,0-1.51-4.07-2.73-9.1-2.73S13.32,51.47,13.32,53c0,.57.59,1.1,1.6,1.54,3.37,4.55,3.37,8.38,0,12.93-1,.44-1.61,1-1.61,1.55s.52,1,1.43,1.46c3.44,4.58,3.54,8.43.31,13-1.1.45-1.74,1-1.74,1.6,0,1.51,4.07,2.73,9.09,2.73s9.1-1.22,9.1-2.73c0-.6-.65-1.15-1.74-1.6-3.24-4.54-3.13-8.38.31-13,.9-.42,1.43-.92,1.43-1.46M21.93,55.69h1q.52,0,1-.06V66.34c-.48,0-1-.07-1.5-.07s-1,0-1.5.07V55.63c.33,0,.68,0,1,.06m.95,26.61H22c-.35,0-.7,0-1,.06V71.66q.73.06,1.5.06t1.5-.06v10.7c-.33,0-.68,0-1-.06"/><path class="cls-3" d="M57.8,69c0-.58-.6-1.11-1.61-1.55-3.36-4.55-3.36-8.38,0-12.93,1-.44,1.6-1,1.6-1.54,0-1.51-4.07-2.73-9.09-2.73s-9.1,1.22-9.1,2.73c0,.57.59,1.1,1.61,1.54,3.36,4.55,3.36,8.38,0,12.93-1,.44-1.61,1-1.61,1.55s.53,1,1.43,1.46c3.44,4.58,3.54,8.43.31,13-1.09.45-1.74,1-1.74,1.6,0,1.51,4.07,2.73,9.1,2.73S57.8,86.53,57.8,85c0-.6-.64-1.15-1.74-1.6-3.23-4.54-3.13-8.38.32-13,.9-.42,1.42-.92,1.42-1.46M48.23,55.69h1l1-.06V66.34c-.49,0-1-.07-1.5-.07s-1,0-1.5.07V55.63q.49,0,1,.06m.94,26.61h-.92c-.36,0-.71,0-1,.06V71.66q.72.06,1.5.06t1.5-.06v10.7c-.34,0-.69,0-1-.06"/><path class="cls-3" d="M84.1,69c0-.58-.6-1.11-1.62-1.55-3.36-4.55-3.35-8.38,0-12.93,1-.44,1.61-1,1.61-1.54,0-1.51-4.08-2.73-9.1-2.73S65.9,51.47,65.9,53c0,.57.6,1.1,1.61,1.54,3.36,4.55,3.37,8.38,0,12.93-1,.44-1.62,1-1.62,1.55s.53,1,1.43,1.46c3.44,4.58,3.55,8.43.32,13-1.1.45-1.75,1-1.75,1.6,0,1.51,4.08,2.73,9.1,2.73s9.1-1.22,9.1-2.73c0-.6-.65-1.15-1.75-1.6-3.23-4.54-3.12-8.38.32-13,.9-.42,1.43-.92,1.43-1.46M74.52,55.69h1q.52,0,1-.06V66.34c-.48,0-1-.07-1.5-.07s-1,0-1.5.07V55.63q.5,0,1,.06m.94,26.61h-.92c-.36,0-.7,0-1,.06V71.66q.72.06,1.5.06t1.5-.06v10.7c-.34,0-.68,0-1-.06"/><path class="cls-3" d="M31.51,109.93c0-.58-.6-1.11-1.61-1.55-3.37-4.55-3.36-8.38,0-12.93,1-.44,1.61-1,1.61-1.55,0-1.5-4.07-2.72-9.1-2.72s-9.09,1.22-9.09,2.72c0,.58.59,1.11,1.6,1.55,3.37,4.55,3.37,8.38,0,12.93-1,.44-1.61,1-1.61,1.55s.52,1,1.43,1.46c3.44,4.58,3.54,8.42.31,13-1.1.46-1.74,1-1.74,1.61,0,1.5,4.07,2.72,9.09,2.72s9.1-1.22,9.1-2.72c0-.6-.65-1.15-1.74-1.61-3.24-4.53-3.13-8.37.31-13,.9-.42,1.43-.92,1.43-1.46M21.93,96.62h1q.52,0,1-.06v10.71a14.51,14.51,0,0,0-1.5-.07,14.78,14.78,0,0,0-1.5.07V96.56c.33,0,.68,0,1,.06m.95,26.61H22c-.35,0-.7,0-1,.06V112.58a14.78,14.78,0,0,0,1.5.07,14.51,14.51,0,0,0,1.5-.07v10.71c-.33,0-.68-.05-1-.06"/><path class="cls-3" d="M57.8,109.93c0-.58-.6-1.11-1.61-1.55-3.36-4.55-3.36-8.38,0-12.93,1-.44,1.6-1,1.6-1.55,0-1.5-4.07-2.72-9.09-2.72s-9.1,1.22-9.1,2.72c0,.58.59,1.11,1.61,1.55,3.36,4.55,3.36,8.38,0,12.93-1,.44-1.61,1-1.61,1.55s.53,1,1.43,1.46c3.44,4.58,3.54,8.42.31,13-1.09.46-1.74,1-1.74,1.61,0,1.5,4.07,2.72,9.1,2.72s9.09-1.22,9.09-2.72c0-.6-.64-1.15-1.74-1.61-3.23-4.53-3.13-8.37.32-13,.9-.42,1.42-.92,1.42-1.46M48.23,96.62h1q.51,0,1-.06v10.71a14.78,14.78,0,0,0-1.5-.07,14.51,14.51,0,0,0-1.5.07V96.56q.49,0,1,.06m.94,26.61h-.92c-.36,0-.71,0-1,.06V112.58a14.51,14.51,0,0,0,1.5.07,14.78,14.78,0,0,0,1.5-.07v10.71c-.34,0-.69-.05-1-.06"/><path class="cls-3" d="M84.1,109.93c0-.58-.6-1.11-1.62-1.55-3.36-4.55-3.35-8.38,0-12.93,1-.44,1.61-1,1.61-1.55,0-1.5-4.08-2.72-9.1-2.72s-9.1,1.22-9.1,2.72c0,.58.6,1.11,1.61,1.55,3.36,4.55,3.37,8.38,0,12.93-1,.44-1.62,1-1.62,1.55s.53,1,1.43,1.46c3.44,4.58,3.55,8.42.32,13-1.1.46-1.75,1-1.75,1.61,0,1.5,4.08,2.72,9.1,2.72s9.1-1.22,9.1-2.72c0-.6-.65-1.15-1.75-1.61-3.23-4.53-3.12-8.37.32-13,.9-.42,1.43-.92,1.43-1.46M74.52,96.62h1q.52,0,1-.06v10.71a16.11,16.11,0,0,0-3,0V96.56q.5,0,1,.06m.94,26.61h-.92c-.36,0-.7,0-1,.06V112.58a16.11,16.11,0,0,0,3,0v10.71c-.34,0-.68-.05-1-.06"/></g></g></svg>
