<svg xmlns="http://www.w3.org/2000/svg" xmlns:xlink="http://www.w3.org/1999/xlink" viewBox="0 0 101.39 138"><defs><style>.cls-1{fill:none;}.cls-2{fill:#085241;}.cls-3{fill:#722529;}</style><symbol id="Болванка-новая" data-name="Болванка-новая" viewBox="0 0 101.39 138"><rect class="cls-1" width="101.39" height="138" rx="6.76"/></symbol></defs><g id="Слой_2" data-name="Слой 2"><g id="Слой_1-2" data-name="Слой 1"><use width="101.39" height="138" xlink:href="#Болванка-новая"/><path class="cls-2" d="M81.39,28.07c0-.57-.6-1.1-1.61-1.54-3.35-4.56-3.35-8.39,0-12.94,1-.43,1.61-1,1.61-1.54,0-1.5-4.06-2.72-9.07-2.72s-9.06,1.22-9.06,2.72c0,.57.59,1.11,1.6,1.54,3.35,4.55,3.35,8.38,0,12.94-1,.44-1.6,1-1.6,1.54s.52,1,1.42,1.47c3.43,4.58,3.53,8.42.31,13-1.09.45-1.73,1-1.73,1.61,0,1.5,4.05,2.72,9.06,2.72s9.07-1.22,9.07-2.72c0-.6-.65-1.16-1.74-1.61-3.22-4.53-3.12-8.37.31-13,.9-.43,1.43-.93,1.43-1.47m-9.55-13.3h1q.53,0,1-.06V25.42a16.11,16.11,0,0,0-3,0V14.71q.5,0,1,.06m.94,26.61h-.92c-.36,0-.7,0-1,.06V30.73c.48,0,1,.07,1.5.07s1,0,1.5-.07V41.44c-.34,0-.68,0-1-.06"/><path class="cls-2" d="M34.16,28.07c0-.57-.6-1.1-1.61-1.54-3.35-4.56-3.35-8.39,0-12.94,1-.43,1.6-1,1.6-1.54,0-1.5-4.06-2.72-9.07-2.72S16,10.55,16,12.05c0,.57.59,1.11,1.6,1.54C21,18.14,21,22,17.63,26.53c-1,.44-1.6,1-1.6,1.54s.52,1,1.42,1.47c3.43,4.58,3.53,8.42.31,13-1.09.45-1.73,1-1.73,1.61,0,1.5,4,2.72,9.06,2.72s9.07-1.22,9.07-2.72c0-.6-.65-1.16-1.74-1.61-3.22-4.53-3.12-8.37.31-13,.9-.43,1.43-.93,1.43-1.47m-9.55-13.3h1q.53,0,1-.06V25.42a16.11,16.11,0,0,0-3,0V14.71q.5,0,1,.06m.94,26.61h-.92c-.36,0-.7,0-1,.06V30.73c.48,0,1,.07,1.5.07s1,0,1.5-.07V41.44c-.34,0-.68,0-1-.06"/><path class="cls-2" d="M81.39,69c0-.58-.6-1.11-1.61-1.55-3.35-4.55-3.35-8.38,0-12.93,1-.44,1.61-1,1.61-1.54,0-1.51-4.06-2.73-9.07-2.73S63.26,51.47,63.26,53c0,.57.59,1.1,1.6,1.54,3.35,4.55,3.35,8.38,0,12.93-1,.44-1.6,1-1.6,1.55s.52,1,1.42,1.46c3.43,4.58,3.53,8.43.31,13-1.09.45-1.73,1-1.73,1.6,0,1.51,4.05,2.73,9.06,2.73s9.07-1.22,9.07-2.73c0-.6-.65-1.15-1.74-1.6-3.22-4.54-3.12-8.38.31-13,.9-.42,1.43-.92,1.43-1.46M71.84,55.69h1q.53,0,1-.06V66.34c-.48,0-1-.07-1.5-.07s-1,0-1.5.07V55.63q.5,0,1,.06m.94,26.61h-.92c-.36,0-.7,0-1,.06V71.66q.72.06,1.5.06t1.5-.06v10.7c-.34,0-.68,0-1-.06"/><path class="cls-2" d="M34.16,69c0-.58-.6-1.11-1.61-1.55-3.35-4.55-3.35-8.38,0-12.93,1-.44,1.6-1,1.6-1.54,0-1.51-4.06-2.73-9.07-2.73S16,51.47,16,53c0,.57.59,1.1,1.6,1.54,3.35,4.55,3.35,8.38,0,12.93-1,.44-1.6,1-1.6,1.55s.52,1,1.42,1.46c3.43,4.58,3.53,8.43.31,13-1.09.45-1.73,1-1.73,1.6,0,1.51,4,2.73,9.06,2.73s9.07-1.22,9.07-2.73c0-.6-.65-1.15-1.74-1.6-3.22-4.54-3.12-8.38.31-13,.9-.42,1.43-.92,1.43-1.46M24.61,55.69h1q.53,0,1-.06V66.34c-.48,0-1-.07-1.5-.07s-1,0-1.5.07V55.63q.5,0,1,.06m.94,26.61h-.92c-.36,0-.7,0-1,.06V71.66q.72.06,1.5.06t1.5-.06v10.7c-.34,0-.68,0-1-.06"/><path class="cls-2" d="M34.16,109.92c0-.57-.6-1.1-1.61-1.54-3.35-4.55-3.35-8.38,0-12.93,1-.44,1.6-1,1.6-1.55,0-1.5-4.06-2.72-9.07-2.72S16,92.4,16,93.9c0,.57.59,1.11,1.6,1.55,3.35,4.55,3.36,8.38,0,12.93-1,.44-1.6,1-1.6,1.54s.52,1,1.42,1.47c3.43,4.58,3.54,8.42.31,13-1.09.45-1.73,1-1.73,1.6,0,1.5,4,2.72,9.06,2.72s9.07-1.22,9.07-2.72c0-.6-.65-1.15-1.74-1.6-3.22-4.54-3.12-8.38.32-13,.89-.42,1.42-.93,1.42-1.47m-9.55-13.3h1q.53,0,1-.06v10.71c-.48,0-1-.07-1.5-.07s-1,0-1.5.07V96.56c.33,0,.68,0,1,.06m.94,26.61h-.92c-.36,0-.7,0-1,.06V112.58a16.11,16.11,0,0,0,3,0v10.71c-.34,0-.68-.05-1-.06"/><path class="cls-2" d="M81.39,109.92c0-.57-.6-1.1-1.61-1.54-3.35-4.55-3.35-8.38,0-12.93,1-.44,1.61-1,1.61-1.55,0-1.5-4.06-2.72-9.07-2.72s-9.06,1.22-9.06,2.72c0,.57.59,1.11,1.59,1.55,3.36,4.55,3.36,8.38,0,12.93-1,.44-1.6,1-1.6,1.54s.52,1,1.42,1.47c3.43,4.58,3.53,8.42.31,13-1.09.45-1.73,1-1.73,1.6,0,1.5,4.05,2.72,9.06,2.72s9.07-1.22,9.07-2.72c0-.6-.65-1.15-1.74-1.6-3.22-4.54-3.12-8.38.31-13,.9-.42,1.43-.93,1.43-1.47m-9.55-13.3h1q.53,0,1-.06v10.71c-.48,0-1-.07-1.5-.07s-1,0-1.5.07V96.56q.5,0,1,.06m.94,26.61h-.92c-.36,0-.7,0-1,.06V112.58a16.11,16.11,0,0,0,3,0v10.71c-.34,0-.68-.05-1-.06"/><path class="cls-3" d="M57.77,28.07c0-.57-.6-1.1-1.61-1.54-3.35-4.56-3.34-8.39,0-12.94,1-.43,1.6-1,1.6-1.54,0-1.5-4.06-2.72-9.07-2.72s-9.06,1.22-9.06,2.72c0,.57.59,1.11,1.6,1.54,3.35,4.55,3.36,8.38,0,12.94-1,.44-1.61,1-1.61,1.54s.52,1,1.42,1.47c3.43,4.58,3.54,8.42.31,13-1.09.45-1.73,1-1.73,1.61,0,1.5,4.06,2.72,9.06,2.72s9.07-1.22,9.07-2.72c0-.6-.64-1.16-1.74-1.61-3.22-4.53-3.11-8.37.32-13,.9-.43,1.42-.93,1.42-1.47m-9.55-13.3h1c.34,0,.68,0,1-.06V25.42a14.51,14.51,0,0,0-1.5-.07,14.78,14.78,0,0,0-1.5.07V14.71l1,.06m1,26.61h-.93c-.35,0-.7,0-1,.06V30.73c.49,0,1,.07,1.5.07s1,0,1.5-.07V41.44c-.33,0-.68,0-1-.06"/><path class="cls-3" d="M57.77,69c0-.58-.6-1.11-1.61-1.55-3.35-4.55-3.34-8.38,0-12.93,1-.44,1.6-1,1.6-1.54,0-1.51-4.06-2.73-9.07-2.73S39.64,51.47,39.64,53c0,.57.59,1.1,1.6,1.54,3.35,4.55,3.36,8.38,0,12.93-1,.44-1.61,1-1.61,1.55s.52,1,1.42,1.46c3.43,4.58,3.54,8.43.31,13-1.09.45-1.73,1-1.73,1.6,0,1.51,4.06,2.73,9.06,2.73s9.07-1.22,9.07-2.73c0-.6-.64-1.15-1.74-1.6-3.22-4.54-3.11-8.38.32-13,.9-.42,1.42-.92,1.42-1.46M48.22,55.69h1c.34,0,.68,0,1-.06V66.34c-.48,0-1-.07-1.5-.07s-1,0-1.5.07V55.63l1,.06m1,26.61h-.93c-.35,0-.7,0-1,.06V71.66q.73.06,1.5.06t1.5-.06v10.7c-.33,0-.68,0-1-.06"/><path class="cls-3" d="M57.77,109.92c0-.57-.6-1.1-1.61-1.54-3.35-4.55-3.34-8.38,0-12.93,1-.44,1.6-1,1.6-1.55,0-1.5-4.06-2.72-9.07-2.72s-9.06,1.22-9.06,2.72c0,.57.59,1.11,1.6,1.55,3.35,4.55,3.36,8.38,0,12.93-1,.44-1.61,1-1.61,1.54s.52,1,1.42,1.47c3.43,4.58,3.54,8.42.31,13-1.08.45-1.73,1-1.73,1.6,0,1.5,4.06,2.72,9.06,2.72s9.07-1.22,9.07-2.72c0-.6-.64-1.15-1.74-1.6-3.22-4.54-3.11-8.38.32-13,.9-.42,1.42-.93,1.42-1.47m-9.55-13.3h1c.34,0,.68,0,1-.06v10.71c-.48,0-1-.07-1.5-.07s-1,0-1.5.07V96.56q.51,0,1,.06m1,26.61h-.93c-.35,0-.7,0-1,.06V112.58a14.78,14.78,0,0,0,1.5.07,14.51,14.51,0,0,0,1.5-.07v10.71c-.33,0-.68-.05-1-.06"/></g></g></svg>
