<svg xmlns="http://www.w3.org/2000/svg" xmlns:xlink="http://www.w3.org/1999/xlink" viewBox="0 0 101.39 138"><defs><style>.cls-1{fill:#26346c;}.cls-2{fill:#eae8dc;}.cls-3{fill:#085241;}.cls-4{fill:none;}</style><symbol id="Болванка-новая" data-name="Болванка-новая" viewBox="0 0 101.39 138"><rect class="cls-4" width="101.39" height="138" rx="6.76"/></symbol><symbol id="dot-blue-3" data-name="dot-blue-3" viewBox="0 0 43.54 43.54"><path class="cls-1" d="M21.77,0A21.77,21.77,0,1,0,43.54,21.77,21.77,21.77,0,0,0,21.77,0Z"/><path class="cls-2" d="M21.77,19A2.77,2.77,0,1,1,19,21.77,2.77,2.77,0,0,1,21.77,19m0-19A21.77,21.77,0,1,0,43.54,21.77,21.77,21.77,0,0,0,21.77,0Z"/><path class="cls-1" d="M21.77,15A6.77,6.77,0,1,1,15,21.77,6.78,6.78,0,0,1,21.77,15m0-15A21.77,21.77,0,1,0,43.54,21.77,21.77,21.77,0,0,0,21.77,0Z"/><path class="cls-2" d="M21.77,11A10.77,10.77,0,1,1,11,21.77,10.78,10.78,0,0,1,21.77,11m0-11A21.77,21.77,0,1,0,43.54,21.77,21.77,21.77,0,0,0,21.77,0Z"/><path class="cls-1" d="M21.77,7A14.77,14.77,0,1,1,7,21.77,14.79,14.79,0,0,1,21.77,7m0-7A21.77,21.77,0,1,0,43.54,21.77,21.77,21.77,0,0,0,21.77,0Z"/></symbol><symbol id="dot-green-3" data-name="dot-green-3" viewBox="0 0 44.99 44.99"><path class="cls-3" d="M22.49,0A22.5,22.5,0,1,0,45,22.49,22.49,22.49,0,0,0,22.49,0Z"/><path class="cls-2" d="M22.49,19A3.5,3.5,0,1,1,19,22.49,3.5,3.5,0,0,1,22.49,19m0-19A22.5,22.5,0,1,0,45,22.49,22.49,22.49,0,0,0,22.49,0Z"/><path class="cls-3" d="M22.49,15A7.5,7.5,0,1,1,15,22.49,7.5,7.5,0,0,1,22.49,15m0-15A22.5,22.5,0,1,0,45,22.49,22.49,22.49,0,0,0,22.49,0Z"/><path class="cls-2" d="M22.49,11A11.5,11.5,0,1,1,11,22.49,11.51,11.51,0,0,1,22.49,11m0-11A22.5,22.5,0,1,0,45,22.49,22.49,22.49,0,0,0,22.49,0Z"/><path class="cls-3" d="M22.49,7A15.5,15.5,0,1,1,7,22.49,15.51,15.51,0,0,1,22.49,7m0-7A22.5,22.5,0,1,0,45,22.49,22.49,22.49,0,0,0,22.49,0Z"/></symbol></defs><g id="Слой_2" data-name="Слой 2"><g id="Слой_1-2" data-name="Слой 1"><use width="101.39" height="138" xlink:href="#Болванка-новая"/><use width="43.54" height="43.54" transform="translate(28.2 18.91) scale(1.03)" xlink:href="#dot-blue-3"/><use width="44.99" height="44.99" transform="translate(28.2 74.1)" xlink:href="#dot-green-3"/></g></g></svg>
