<svg xmlns="http://www.w3.org/2000/svg" xmlns:xlink="http://www.w3.org/1999/xlink" viewBox="0 0 101.39 138"><defs><style>.cls-1{fill:#22201f;}.cls-2{fill:#eae8dc;}.cls-3{fill:none;}</style><symbol id="Болванка-новая" data-name="Болванка-новая" viewBox="0 0 101.39 138"><rect class="cls-3" width="101.39" height="138" rx="6.76"/></symbol><symbol id="dot-black-4" data-name="dot-black-4" viewBox="0 0 31.51 31.51"><path class="cls-1" d="M15.76,0A15.76,15.76,0,1,0,31.51,15.76,15.75,15.75,0,0,0,15.76,0Z"/><path class="cls-2" d="M15.76,13.5a2.26,2.26,0,1,1-2.26,2.26,2.26,2.26,0,0,1,2.26-2.26m0-13.5A15.76,15.76,0,1,0,31.51,15.76,15.75,15.75,0,0,0,15.76,0Z"/><path class="cls-1" d="M15.76,10.8a5,5,0,1,1-5,5,5,5,0,0,1,5-5m0-10.8A15.76,15.76,0,1,0,31.51,15.76,15.75,15.75,0,0,0,15.76,0Z"/><path class="cls-2" d="M15.76,8.1A7.66,7.66,0,1,1,8.1,15.76,7.66,7.66,0,0,1,15.76,8.1m0-8.1A15.76,15.76,0,1,0,31.51,15.76,15.75,15.75,0,0,0,15.76,0Z"/><path class="cls-1" d="M15.76,5.4A10.36,10.36,0,1,1,5.4,15.76,10.37,10.37,0,0,1,15.76,5.4m0-5.4A15.76,15.76,0,1,0,31.51,15.76,15.75,15.75,0,0,0,15.76,0Z"/></symbol></defs><g id="Слой_2" data-name="Слой 2"><g id="Слой_1-2" data-name="Слой 1"><use width="101.39" height="138" xlink:href="#Болванка-новая"/><use width="31.51" height="31.51" transform="translate(16.99 12.31)" xlink:href="#dot-black-4"/><use width="31.51" height="31.51" transform="translate(16.99 40.91)" xlink:href="#dot-black-4"/><use width="31.51" height="31.51" transform="translate(16.99 69.51)" xlink:href="#dot-black-4"/><use width="31.51" height="31.51" transform="translate(16.99 98.17)" xlink:href="#dot-black-4"/><use width="31.51" height="31.51" transform="translate(52.88 12.31)" xlink:href="#dot-black-4"/><use width="31.51" height="31.51" transform="translate(52.88 40.91)" xlink:href="#dot-black-4"/><use width="31.51" height="31.51" transform="translate(52.88 69.51)" xlink:href="#dot-black-4"/><use width="31.51" height="31.51" transform="translate(52.88 98.17)" xlink:href="#dot-black-4"/></g></g></svg>
