<svg xmlns="http://www.w3.org/2000/svg" xmlns:xlink="http://www.w3.org/1999/xlink" viewBox="0 0 101.39 138"><defs><style>.cls-1{fill:#26346c;}.cls-2{fill:#eae8dc;}.cls-3{fill:#0b5847;}.cls-4{fill:#722529;}.cls-5{fill:none;}</style><symbol id="Болванка-новая" data-name="Болванка-новая" viewBox="0 0 101.39 138"><rect class="cls-5" width="101.39" height="138" rx="6.76"/></symbol><symbol id="dot-blue-4" data-name="dot-blue-4" viewBox="0 0 35.02 35.02"><path class="cls-1" d="M17.51,0A17.51,17.51,0,1,0,35,17.51,17.51,17.51,0,0,0,17.51,0Z"/><path class="cls-2" d="M17.51,15A2.51,2.51,0,1,1,15,17.51,2.51,2.51,0,0,1,17.51,15m0-15A17.51,17.51,0,1,0,35,17.51,17.51,17.51,0,0,0,17.51,0Z"/><path class="cls-1" d="M17.51,12A5.51,5.51,0,1,1,12,17.51,5.52,5.52,0,0,1,17.51,12m0-12A17.51,17.51,0,1,0,35,17.51,17.51,17.51,0,0,0,17.51,0Z"/><path class="cls-2" d="M17.51,9A8.51,8.51,0,1,1,9,17.51,8.52,8.52,0,0,1,17.51,9m0-9A17.51,17.51,0,1,0,35,17.51,17.51,17.51,0,0,0,17.51,0Z"/><path class="cls-1" d="M17.51,6A11.51,11.51,0,1,1,6,17.51,11.53,11.53,0,0,1,17.51,6m0-6A17.51,17.51,0,1,0,35,17.51,17.51,17.51,0,0,0,17.51,0Z"/></symbol><symbol id="dot-red-4" data-name="dot-red-4" viewBox="0 0 35.02 35.02"><path class="cls-4" d="M17.51,0A17.51,17.51,0,1,0,35,17.51,17.51,17.51,0,0,0,17.51,0Z"/><path class="cls-2" d="M17.51,15A2.51,2.51,0,1,1,15,17.51,2.51,2.51,0,0,1,17.51,15m0-15A17.51,17.51,0,1,0,35,17.51,17.51,17.51,0,0,0,17.51,0Z"/><path class="cls-4" d="M17.51,12A5.51,5.51,0,1,1,12,17.51,5.52,5.52,0,0,1,17.51,12m0-12A17.51,17.51,0,1,0,35,17.51,17.51,17.51,0,0,0,17.51,0Z"/><path class="cls-2" d="M17.51,9A8.51,8.51,0,1,1,9,17.51,8.52,8.52,0,0,1,17.51,9m0-9A17.51,17.51,0,1,0,35,17.51,17.51,17.51,0,0,0,17.51,0Z"/><path class="cls-4" d="M17.51,6A11.51,11.51,0,1,1,6,17.51,11.53,11.53,0,0,1,17.51,6m0-6A17.51,17.51,0,1,0,35,17.51,17.51,17.51,0,0,0,17.51,0Z"/></symbol><symbol id="dot-green-4" data-name="dot-green-4" viewBox="0 0 35.02 35.02"><path class="cls-3" d="M17.51,0A17.51,17.51,0,1,0,35,17.51,17.51,17.51,0,0,0,17.51,0Z"/><path class="cls-2" d="M17.51,15A2.51,2.51,0,1,1,15,17.51,2.51,2.51,0,0,1,17.51,15m0-15A17.51,17.51,0,1,0,35,17.51,17.51,17.51,0,0,0,17.51,0Z"/><path class="cls-3" d="M17.51,12A5.51,5.51,0,1,1,12,17.51,5.52,5.52,0,0,1,17.51,12m0-12A17.51,17.51,0,1,0,35,17.51,17.51,17.51,0,0,0,17.51,0Z"/><path class="cls-2" d="M17.51,9A8.51,8.51,0,1,1,9,17.51,8.52,8.52,0,0,1,17.51,9m0-9A17.51,17.51,0,1,0,35,17.51,17.51,17.51,0,0,0,17.51,0Z"/><path class="cls-3" d="M17.51,6A11.51,11.51,0,1,1,6,17.51,11.53,11.53,0,0,1,17.51,6m0-6A17.51,17.51,0,1,0,35,17.51,17.51,17.51,0,0,0,17.51,0Z"/></symbol></defs><g id="Слой_2" data-name="Слой 2"><g id="Слой_1-2" data-name="Слой 1"><use width="101.39" height="138" xlink:href="#Болванка-новая"/><use width="35.02" height="35.02" transform="translate(5.96 14.31) scale(0.9)" xlink:href="#dot-blue-4"/><use width="35.02" height="35.02" transform="translate(34.94 14.31) scale(0.9)" xlink:href="#dot-blue-4"/><use width="35.02" height="35.02" transform="translate(63.91 14.31) scale(0.9)" xlink:href="#dot-blue-4"/><use width="35.02" height="35.02" transform="translate(5.96 54.69) scale(0.9)" xlink:href="#dot-red-4"/><use width="35.02" height="35.02" transform="translate(34.94 54.69) scale(0.9)" xlink:href="#dot-red-4"/><use width="35.02" height="35.02" transform="translate(63.91 54.69) scale(0.9)" xlink:href="#dot-red-4"/><use width="35.02" height="35.02" transform="translate(5.96 95.07) scale(0.9)" xlink:href="#dot-green-4"/><use width="35.02" height="35.02" transform="translate(34.94 95.07) scale(0.9)" xlink:href="#dot-green-4"/><use width="35.02" height="35.02" transform="translate(63.91 95.07) scale(0.9)" xlink:href="#dot-green-4"/></g></g></svg>
