<svg xmlns="http://www.w3.org/2000/svg" xmlns:xlink="http://www.w3.org/1999/xlink" viewBox="0 0 101.39 138"><defs><style>.cls-1{fill:none;}.cls-2{fill:#722529;}</style><symbol id="Болванка-новая" data-name="Болванка-новая" viewBox="0 0 101.39 138"><rect class="cls-1" width="101.39" height="138" rx="6.76"/></symbol></defs><g id="Слой_2" data-name="Слой 2"><g id="Слой_1-2" data-name="Слой 1"><use width="101.39" height="138" xlink:href="#Болванка-новая"/><path class="cls-2" d="M77.78,45.33l0,0c-2.88-1.5-4.74-2.23-5.69-2.23a16.2,16.2,0,0,0-2.64.36,36.76,36.76,0,0,1-6.2,1.2l-13.78,1.5v-5c0-5.67.35-9.59,1-11.7a13.3,13.3,0,0,0,.4-2.28c0-1.16-1.11-2.09-3.4-2.86h0a20.56,20.56,0,0,0-6.3-.94c-.67,0-1.8.27-1.8,2.08,0,.12,0,.32.81,2.1A35.8,35.8,0,0,1,42,39.85V47q-6.36.74-11,1.31c-2.72.38-5.43.64-8.06.78-.44-.2-.94-.4-1.48-.59a12.75,12.75,0,0,0-4.5-.74c-.71,0-1.89.28-1.89,2.16,0,.32.28.63.95,1.09a9,9,0,0,1,2.68,4.62,48.45,48.45,0,0,1,1.58,8.71l1.27,8a8.39,8.39,0,0,0,1.62,4.47c.71,1.15,1.44,1.72,2.21,1.72S26.68,78,27.14,77a5,5,0,0,0,.44-1.29h.57c2,0,4.84-.18,8.55-.56L42,74.74v27a52.31,52.31,0,0,0,.68,10.15c.93,2.53,1.3,2.74,1.65,2.74.7,0,1.37-.8,2.16-2.58S48,107.33,48.4,103a108.38,108.38,0,0,0,.92-15.56l0-13.26L57,73.5a129.13,129.13,0,0,1,14.38-.74c1.91,0,2.31-.8,2.31-1.46s-.59-1.55-1.81-2.5a10,10,0,0,0,.93-1.73l2.58-5.59a27.78,27.78,0,0,1,5.66-9A3.44,3.44,0,0,0,82.39,50C82.39,48.84,80.93,47.35,77.78,45.33ZM66.29,49.14c1.95,0,2.95.43,2.95,1.3A40.61,40.61,0,0,1,68,56.92c-1.19,4.42-2.11,7.68-2.7,9.66-1.91.06-5.24.4-9.94,1-2,.31-4,.59-6,.85l0-18.09,1.78-.16C58,49.48,63.1,49.14,66.29,49.14Zm-40.42,4.7a15.59,15.59,0,0,0,2.7-.57c4.36-.83,8.86-1.53,13.46-2.12V69.27q-7,.72-14.38,1.14c-.23-3.38-.75-8.13-1.56-14.2C26,55.41,25.91,54.62,25.87,53.84Z"/></g></g></svg>
