<svg xmlns="http://www.w3.org/2000/svg" xmlns:xlink="http://www.w3.org/1999/xlink" viewBox="0 0 101.39 138"><defs><style>.cls-1{fill:none;}.cls-2{fill:#232120;}</style><symbol id="Болванка-новая" data-name="Болванка-новая" viewBox="0 0 101.39 138"><rect class="cls-1" width="101.39" height="138" rx="6.76"/></symbol></defs><g id="Слой_2" data-name="Слой 2"><g id="Слой_1-2" data-name="Слой 1"><use width="101.39" height="138" xlink:href="#Болванка-новая"/><path class="cls-2" d="M76.17,19.44H21.29A6.59,6.59,0,0,0,14.71,26V112a6.59,6.59,0,0,0,6.58,6.59H76.17A6.59,6.59,0,0,0,82.75,112V26A6.59,6.59,0,0,0,76.17,19.44ZM78.36,112a2.19,2.19,0,0,1-2.19,2.2H21.29A2.19,2.19,0,0,1,19.1,112V26a2.19,2.19,0,0,1,2.19-2.2H76.17A2.19,2.19,0,0,1,78.36,26Z"/><path class="cls-2" d="M56.41,27.84h-34v82.31H75.07V27.84H56.41Zm8.06,2.75a9.75,9.75,0,0,0,.8,2.63,9.57,9.57,0,0,0-.76,2.47,6.61,6.61,0,0,1-5.21-5.1ZM33,30.59h5.17c0,.18-.09.36-.14.54l-.05.14c0,.14-.09.28-.15.41s0,.11-.07.17-.13.27-.2.41a1.17,1.17,0,0,0,0,.11c-.1.17-.19.33-.3.49l-.08.12-.26.34-.12.14-.28.32-.11.11c-.13.13-.27.25-.41.37l-.11.09-.35.26-.15.11-.36.22-.14.08a4,4,0,0,1-.51.24l-.11.05-.43.16-.18.05a3.25,3.25,0,0,1-.42.11l-.16,0H33a9.26,9.26,0,0,0-.77-2.46A9.43,9.43,0,0,0,33,30.59Zm-7.86,0h5.06a6.76,6.76,0,0,1-.74,1.93l-.4.69.4.69a7,7,0,0,1,.68,1.7,6.46,6.46,0,0,1-1.7-.69l-.69-.4-.69.4a6.4,6.4,0,0,1-1.92.73Zm0,7.85a9.26,9.26,0,0,0,2.61-.79,9.33,9.33,0,0,0,2.47.77s0,0,0,.07l0,.15-.12.43a1.09,1.09,0,0,1-.05.17c-.05.15-.11.3-.17.45l0,.1c-.08.17-.16.34-.26.51l-.07.13-.23.37-.09.14-.27.37-.08.09a5.14,5.14,0,0,1-.38.42l-.1.1-.32.29-.15.12-.34.25-.12.09-.48.29-.12.06a3.62,3.62,0,0,1-.4.19l-.18.08-.4.15-.15.05a4.56,4.56,0,0,1-.53.13Zm0,69v-5a6.4,6.4,0,0,1,1.92.73l.69.4.69-.4a6.46,6.46,0,0,1,1.7-.69,7,7,0,0,1-.68,1.7l-.4.69.4.69a6.76,6.76,0,0,1,.74,1.93Zm2.61-7.06a9.26,9.26,0,0,0-2.61-.79V94.37a6.62,6.62,0,0,1,5.08,5.21A9.44,9.44,0,0,0,27.74,100.35ZM33,107.41a9.43,9.43,0,0,0-.81-2.63,9.21,9.21,0,0,0,.77-2.47,6.61,6.61,0,0,1,5.21,5.1Zm31.48,0H59.3a6.61,6.61,0,0,1,5.21-5.1,9.57,9.57,0,0,0,.76,2.47A9.75,9.75,0,0,0,64.47,107.41Zm7.85,0h-5a6.76,6.76,0,0,1,.74-1.93l.4-.69-.4-.69a6.57,6.57,0,0,1-.68-1.7,6.6,6.6,0,0,1,1.7.69l.69.4.69-.4a6.24,6.24,0,0,1,1.91-.73Zm0-7.85a9.1,9.1,0,0,0-2.6.79,9.39,9.39,0,0,0-2.48-.77,6.63,6.63,0,0,1,5.08-5.21Zm0-8a9.32,9.32,0,0,0-7.84,8,9.34,9.34,0,0,0-8,7.86H40.93a9.32,9.32,0,0,0-8-7.86,9.33,9.33,0,0,0-7.85-8V46.41a3,3,0,0,0,.32-.06l.29-.05.63-.16a1.17,1.17,0,0,1,.2-.06c.27-.09.53-.18.79-.29l.16-.08a6.45,6.45,0,0,0,.59-.29,2,2,0,0,0,.25-.14c.16-.09.32-.18.48-.29l.24-.16c.16-.11.3-.22.45-.34l.22-.17c.17-.15.34-.3.5-.46l.11-.1c.19-.2.38-.4.55-.61l.14-.18c.13-.16.25-.32.37-.49l.16-.24.28-.47L32,41.5c.09-.16.17-.34.25-.51s.07-.16.11-.25c.1-.25.2-.51.28-.77v0c.08-.27.15-.54.21-.82,0-.09,0-.17.05-.26s0-.27.07-.41l.41-.07.26,0c.28-.06.56-.13.82-.21l0,0c.26-.08.51-.17.76-.27l.24-.12a4.9,4.9,0,0,0,.52-.24l.26-.15.47-.28.25-.17a4.29,4.29,0,0,0,.48-.36c.06-.05.13-.09.18-.14a8.09,8.09,0,0,0,.61-.56l.11-.11a5.35,5.35,0,0,0,.45-.5L39,35l.33-.44.17-.25c.1-.16.2-.32.29-.48l.14-.25c.1-.19.19-.38.28-.58a1.42,1.42,0,0,0,.08-.18,6.58,6.58,0,0,0,.29-.78l.06-.22c.06-.2.11-.4.16-.61l.06-.3.06-.31H56.52a9.34,9.34,0,0,0,8,7.86,9.32,9.32,0,0,0,7.84,7.95Zm0-61v5.05a6.24,6.24,0,0,1-1.91-.73l-.69-.4-.69.4a6.6,6.6,0,0,1-1.7.69A6.57,6.57,0,0,1,68,33.9l.4-.69-.4-.69a6.76,6.76,0,0,1-.74-1.93Zm-2.6,7.06a9.1,9.1,0,0,0,2.6.79v5.18a6.61,6.61,0,0,1-5.08-5.2A9.39,9.39,0,0,0,69.72,37.65Z"/></g></g></svg>
