<svg xmlns="http://www.w3.org/2000/svg" xmlns:xlink="http://www.w3.org/1999/xlink" viewBox="0 0 101.39 138"><defs><style>.cls-1{fill:none;}.cls-2{fill:#723032;}.cls-3{fill:#0d5948;}</style><symbol id="Болванка-новая" data-name="Болванка-новая" viewBox="0 0 101.39 138"><rect class="cls-1" width="101.39" height="138" rx="6.76"/></symbol></defs><g id="Слой_2" data-name="Слой 2"><g id="Слой_1-2" data-name="Слой 1"><use width="101.39" height="138" xlink:href="#Болванка-новая"/><path class="cls-2" d="M21.85,15.69A4.1,4.1,0,0,1,27,12.38c6.31,1.63.38,11.21.38,11.21-4.47-2.43-5.84-5.33-5.53-7.9"/><path class="cls-2" d="M29.62,24.22A13.08,13.08,0,0,1,32.5,19.5c1.68-1.65,5-1.83,6.06.56.77,1.71-.32,7.73-8.94,4.16"/><path class="cls-2" d="M35.85,34.91c-1.82,1.63-5,.37-5.89-1.83-1-2.62-.48-6.57-.48-6.57,7.49.81,9,6.05,6.37,8.4"/><path class="cls-2" d="M28,34.48c-1.6,3.32-5.09,4.1-7.07,2.22-2.23-2.12-1.66-8.37,5.61-9.64,0,0,2.83,4.56,1.46,7.42"/><path class="cls-2" d="M25.64,25.18s-3.89,2.95-8.15,2.58a3.87,3.87,0,0,1-3.43-4.48c.42-3.37,6-5.37,11.58,1.9"/><path class="cls-2" d="M73.65,105.26a14.23,14.23,0,0,1,3.51-3c2.24-1.21,5.78-.12,5.76,3.2,0,2.58-5,6.46-9.27-.24"/><path class="cls-2" d="M72.18,95.24c2.58-.73,4.54,1,4.25,4.1-.32,3.3-4.22,5.18-4.22,5.18-5.22-5.41-1.86-8.77,0-9.28"/><path class="cls-2" d="M61.64,104.63c-.72-1.12-1-4.44,2-5,1.93-.33,4.32.3,6.84,5.25-2.18.69-6.67,3.1-8.87-.29"/><path class="cls-2" d="M70.75,106.67s-.48,3.67-1.55,5c-1.42,1.75-4.6,2-5.29-.25-1-3.18,2.73-5.3,6.84-4.74"/><path class="cls-2" d="M72.94,107.12s3,1.54,3.79,4.12c.6,2-.29,5.56-3.71,4.9-3.6-.68-3.09-6.88-.08-9"/><path class="cls-2" d="M52.79,76c2.9.9,2.54,4.78.2,6.55a32.43,32.43,0,0,1-3,2.06A16.08,16.08,0,0,1,49,80.65c-.27-2.6,1-5.56,3.76-4.7"/><path class="cls-2" d="M42.33,78.5c1.36-2.19,4.44-.7,5.19,1.23a11.2,11.2,0,0,1,.82,4.81c-4.48,0-7.9-3-6-6"/><path class="cls-2" d="M47,90.21a3.59,3.59,0,0,1-6.85-1.3c.08-4.29,6.11-4.19,8.29-2.71a24.59,24.59,0,0,1-1.44,4"/><path class="cls-2" d="M53.42,90.42c.81,1.93-.18,4.09-2.07,4.09-4.19,0-3.54-5.41-1.45-7.76,0,0,2.75,1.85,3.52,3.67"/><path class="cls-2" d="M59.61,85.28c0,3.19-5.71,3.87-8.82.64a16.09,16.09,0,0,1,3.67-2.87c1.09-.6,5.14-1.21,5.15,2.23"/><path class="cls-3" d="M24.29,77.81c-1.7-6.37-4.85-19.33-4.25-22.05.38-1.74,6.2-9.89,12-19.17a3.62,3.62,0,0,0,3.11.12c-.69,1.23-1.37,2.44-2,3.6,4.22,1.17,10.81,2.57,13.41,3.41.6.19.66,1.12-.54,1-2.83-.35-8.39-1.1-12.82-1.82-1-.15-1.35.85-4.24,4.72-2,3.48-3.47,5.94-3.8,6.67-1.09,2.4,2.22,11.47,4.09,17.1C35.08,63.86,40.43,57.71,42,56.91c4.4-2.22,31.91-17.89,38.83-22,.89-.54.84,3.54,0,4.15C75.55,42.87,69.33,46.17,59,52.51c1.5,2.9,3.5,6.85,3.61,6.93.65.42,8.9.05,11.41,0a.94.94,0,0,1,.09,1.86c-2.76.3-10.69.68-12.37.57-1-.06-4-4.31-6.1-7.29l-11.23,6.9C40.26,64,31.05,81,24.5,93.94c7,1.54,24.31,4.52,26.16,3.56C54.28,95.62,74,79.09,77.72,76.29c.63-.48,1.35.49,1,1C76.44,80,57.87,96.13,51.83,100.15c1.38,4.67,4.94,13.24,5.74,15.58.33,1,9.31,6.52,12.49,8.76.72.51.36,1.19-.35.8-2.36-1.28-13.36-7.62-13.76-8-1.3-1.29-7.37-12.67-9.54-16.35-3.29-.21-8.17-.61-13-1.08,2.1,3.21,6,8.27,7.83,11.92.62,1.22-2.48,8.78-3.14,10-.26.48-1,.42-.78-.61.49-2.43,1.55-7.83,1.15-8.64-.8-1.61-8.29-10.16-10.56-13.28-2.13-.24-4.08-.49-5.71-.73-2.42,4.89-12.72,19.16-12.72,19.16-.72-5.68-.73-16.55,0-19.79,0,0,7.16-10,14.81-20.09"/><path class="cls-3" d="M38.24,30.71a4.57,4.57,0,0,0-1.2-2.8c4-6.38,7.13-11.09,7.88-12.33.48-.78,1.92-.48,1.28.68-2.21,4-4.38,8.21-8,14.45"/></g></g></svg>
