<svg xmlns="http://www.w3.org/2000/svg" xmlns:xlink="http://www.w3.org/1999/xlink" viewBox="0 0 101.39 138"><defs><style>.cls-1{fill:none;}.cls-2{fill:#0d5948;}.cls-3{fill:#723032;}</style><symbol id="Болванка-новая" data-name="Болванка-новая" viewBox="0 0 101.39 138"><rect class="cls-1" width="101.39" height="138" rx="6.76"/></symbol></defs><g id="Слой_2" data-name="Слой 2"><g id="Слой_1-2" data-name="Слой 1"><use width="101.39" height="138" xlink:href="#Болванка-новая"/><path class="cls-2" d="M72.28,77.71c-4.37-.66-12.32.93-15.9,10.34s-1.06,19.34-1.06,19.34a18.79,18.79,0,0,1,9.15-6.49C68.15,99.75,79.39,95.34,80,88.84c.54-6-3.31-10.46-7.68-11.13M69.9,95.07c-5.25,2.23-11.13,5.43-11.13,5.43-.4-3.31,0-8.61,1.86-11.53s6.22-7.28,10.72-4.23,2.92,8.47-1.45,10.33"/><path class="cls-2" d="M24.59,100.9c5.7,5,16.29,2,19.74,3.84,0-4.64-1.06-17.09-12.59-18.41s-12.85,9.53-7.15,14.57m9.54-10.07c6.42,1.16,8.08,11,8.08,11-3.31-1.81-9.39-2.21-11.48-2.12-5,.21-5.34-10.47,3.4-8.88"/><path class="cls-2" d="M28.75,106.53c-8.35.93-11.73,7.35-11.26,11.26s3.38,10.93,12.92,6.22,9.4-6.79,18.54-7.85c-3.71-5.26-11.84-10.56-20.2-9.63m9,9.34c-2.31.79-3.89,2.5-5.85,3.89s-4.24,2.22-6.28.62c-2.62-2.06-1.12-6.31,3.4-8,7.49-2.72,15,2,15,2-.62-.39-4.83.92-6.25,1.41"/><path class="cls-2" d="M45.57,80.54a52.17,52.17,0,0,1-2.81-6c-2-5.47-1.79-9.28-.44-14.73a10.29,10.29,0,0,1-2.32.44c-1.28,5.65-1.3,9.45.77,15a57.63,57.63,0,0,0,2.92,6.25A36.48,36.48,0,0,1,47.27,90c1.28,5.34.78,10.89-.1,16.17A20.12,20.12,0,0,1,49,108.37c1.09-6,1.89-12.5.38-18.82a38.93,38.93,0,0,0-3.76-9"/><path class="cls-2" d="M53,111.81a12,12,0,0,1,5.9,6.8c2.87,7.59,14.7,6,14.7-2.15,0-10.66-15.89-7.09-20.6-4.65m13.91,6.51c-2.31,2.25-5,.83-6.88-2.11a27.23,27.23,0,0,0-3.38-3.79c3.05-.66,8.56-1.45,10.86,2a2.93,2.93,0,0,1-.6,3.91"/><path class="cls-3" d="M56.12,34.93c-7.31,1.56.53,12.18.53,12.18,4.5-3.84,4.25-12.9-.53-12.18"/><path class="cls-3" d="M76.12,53.74c-.13-4-7-5.57-12.05.92,0,0,11.4,6.47,12.05-.92"/><path class="cls-2" d="M47.74,44.4a37.19,37.19,0,0,0,3.57-8.23c.84-3.31,1.44-6.78.3-9.88a3.77,3.77,0,0,1-1.85.64l-.17,0c1,2.58.43,5.7-.33,8.7a35.76,35.76,0,0,1-3.39,7.75l0,.07a46.42,46.42,0,0,0-3.37,7.24,19.54,19.54,0,0,1,2,.82,43.9,43.9,0,0,1,3.26-7.07Z"/><path class="cls-3" d="M49.76,24.1c7-.8-.8-12.19-2.52-11.66-1.29.4-4.5,12.45,2.52,11.66"/><path class="cls-3" d="M43,35.85c2-9,.15-14.43-3.85-13.08C31.57,25.36,43,35.85,43,35.85"/><path class="cls-3" d="M41.68,40.09s-12.6,6.34-7,10.18c1.65,1.13,6.72,2.54,7-10.18"/><path class="cls-3" d="M38.9,36.52c0-5.33-10.2-6.21-9.67.44.66,8.32,9.67,3.13,9.67-.44"/><path class="cls-3" d="M52.84,57.41c-1.2-2.32-.18-5.91,2.59-5.88,2,0,3.6,3.4,1.88,5.38-2.49,2.88.76,8.11,4.11,2.65,3.64-5.93-2.78-10.6-7.68-9.08-6.39,2-7.43,13.65-1.1,12.66,1.82-.28,2-2.36.2-5.73"/><path class="cls-3" d="M47.24,55.41s-11.12-7.35-11.52,0c-.27,4.89,8,3.84,11.52,0"/></g></g></svg>
