<svg xmlns="http://www.w3.org/2000/svg" xmlns:xlink="http://www.w3.org/1999/xlink" viewBox="0 0 101.39 138"><defs><style>.cls-1{fill:none;}.cls-2{fill:#085241;}</style><symbol id="Болванка-новая" data-name="Болванка-новая" viewBox="0 0 101.39 138"><rect class="cls-1" width="101.39" height="138" rx="6.76"/></symbol></defs><g id="Слой_2" data-name="Слой 2"><g id="Слой_1-2" data-name="Слой 1"><use width="101.39" height="138" xlink:href="#Болванка-новая"/><path class="cls-2" d="M39.42,38.25A2.94,2.94,0,0,0,37.81,36c-3.36-6.76-3.36-12.45,0-19.21a2.89,2.89,0,0,0,1.6-2.29c0-2.23-4.07-4-9.1-4s-9.09,1.81-9.09,4a2.88,2.88,0,0,0,1.61,2.29c3.36,6.76,3.36,12.45,0,19.21a2.94,2.94,0,0,0-1.61,2.3,2.76,2.76,0,0,0,1.43,2.17c3.44,6.81,3.54,12.51.31,19.25a3,3,0,0,0-1.74,2.38c0,2.23,4.07,4,9.09,4s9.1-1.82,9.1-4a3,3,0,0,0-1.74-2.38c-3.23-6.74-3.13-12.44.31-19.25a2.78,2.78,0,0,0,1.43-2.17M29.85,18.49h.95q.52,0,1-.09V34.3a12.06,12.06,0,0,0-1.5-.1,12.32,12.32,0,0,0-1.5.1V18.4c.34,0,.68.07,1,.09M30.79,58h-.93c-.35,0-.7.05-1,.09V42.2a12.33,12.33,0,0,0,1.5.09,12.09,12.09,0,0,0,1.5-.09V58.1c-.33,0-.68-.07-1-.09"/><path class="cls-2" d="M76.19,38.25A2.93,2.93,0,0,0,74.57,36c-3.36-6.76-3.36-12.45,0-19.21a2.91,2.91,0,0,0,1.61-2.29c0-2.23-4.08-4-9.1-4s-9.1,1.81-9.1,4a2.91,2.91,0,0,0,1.61,2.29C63,23.5,63,29.19,59.61,36A2.93,2.93,0,0,0,58,38.25a2.78,2.78,0,0,0,1.43,2.17c3.44,6.81,3.55,12.51.31,19.25A3,3,0,0,0,58,62.05c0,2.23,4.08,4,9.1,4s9.1-1.82,9.1-4a3,3,0,0,0-1.75-2.38c-3.23-6.74-3.13-12.44.32-19.25a2.78,2.78,0,0,0,1.43-2.17M66.61,18.49h1q.53,0,1-.09V34.3a11.3,11.3,0,0,0-3,0V18.4q.5.06,1,.09M67.55,58h-.92c-.36,0-.71.05-1,.09V42.2a12.55,12.55,0,0,0,3,0V58.1c-.34,0-.68-.07-1-.09"/><path class="cls-2" d="M39.42,99.75a2.92,2.92,0,0,0-1.61-2.3c-3.36-6.76-3.36-12.45,0-19.21A2.91,2.91,0,0,0,39.42,76c0-2.24-4.07-4-9.1-4s-9.09,1.81-9.09,4a2.9,2.9,0,0,0,1.61,2.29c3.36,6.76,3.36,12.45,0,19.21a2.92,2.92,0,0,0-1.61,2.3,2.77,2.77,0,0,0,1.43,2.17c3.44,6.81,3.54,12.51.31,19.24a3,3,0,0,0-1.74,2.39c0,2.23,4.07,4,9.09,4s9.1-1.81,9.1-4a3,3,0,0,0-1.74-2.39c-3.23-6.73-3.13-12.43.31-19.24a2.8,2.8,0,0,0,1.43-2.17M29.85,80h.95a8.41,8.41,0,0,0,1-.09V95.8a10.4,10.4,0,0,0-1.5-.1,10.6,10.6,0,0,0-1.5.1V79.89a8.76,8.76,0,0,0,1,.09m.94,39.53h-.93c-.35,0-.7,0-1,.09V103.7a12.33,12.33,0,0,0,1.5.09,12.09,12.09,0,0,0,1.5-.09v15.9c-.33,0-.68-.08-1-.09"/><path class="cls-2" d="M76.19,99.75a2.91,2.91,0,0,0-1.62-2.3c-3.36-6.76-3.36-12.45,0-19.21A2.92,2.92,0,0,0,76.19,76c0-2.24-4.08-4-9.1-4S58,73.71,58,76a2.92,2.92,0,0,0,1.61,2.29C63,85,63,90.69,59.61,97.45A2.91,2.91,0,0,0,58,99.75a2.8,2.8,0,0,0,1.43,2.17c3.44,6.81,3.55,12.51.31,19.24A3,3,0,0,0,58,123.55c0,2.23,4.08,4,9.1,4s9.1-1.81,9.1-4a3,3,0,0,0-1.75-2.39c-3.23-6.73-3.13-12.43.32-19.24a2.8,2.8,0,0,0,1.43-2.17M66.61,80h1a8.41,8.41,0,0,0,1-.09V95.8a11.3,11.3,0,0,0-3,0V79.89a8.41,8.41,0,0,0,1,.09m.94,39.53h-.92c-.36,0-.71,0-1,.09V103.7a12.54,12.54,0,0,0,3,0v15.9c-.34,0-.68-.08-1-.09"/></g></g></svg>
