<svg xmlns="http://www.w3.org/2000/svg" xmlns:xlink="http://www.w3.org/1999/xlink" viewBox="0 0 101.39 138"><defs><style>.cls-1{fill:none;}.cls-2{fill:#085241;}</style><symbol id="Болванка-новая" data-name="Болванка-новая" viewBox="0 0 101.39 138"><rect class="cls-1" width="101.39" height="138" rx="6.76"/></symbol></defs><g id="Слой_2" data-name="Слой 2"><g id="Слой_1-2" data-name="Слой 1"><use width="101.39" height="138" xlink:href="#Болванка-новая"/><path class="cls-2" d="M33.72,38.25a3,3,0,0,0-1.61-2.31c-3.36-6.76-3.36-12.45,0-19.21a2.9,2.9,0,0,0,1.61-2.29c0-2.24-4.07-4-9.1-4s-9.09,1.81-9.09,4a2.91,2.91,0,0,0,1.6,2.29c3.37,6.76,3.37,12.45,0,19.21a3,3,0,0,0-1.61,2.31A2.78,2.78,0,0,0,17,40.42c3.45,6.81,3.55,12.51.32,19.25a3,3,0,0,0-1.74,2.38c0,2.23,4.07,4,9.09,4s9.1-1.82,9.1-4A3,3,0,0,0,32,59.67c-3.24-6.74-3.13-12.44.31-19.25a2.8,2.8,0,0,0,1.43-2.17M24.14,18.47h1a8.41,8.41,0,0,0,1-.09V34.29a12.09,12.09,0,0,0-1.5-.09,10.6,10.6,0,0,0-1.5.1V18.38a8.59,8.59,0,0,0,1,.09M25.09,58h-.93c-.35,0-.7.05-1,.09V42.19a12.32,12.32,0,0,0,1.5.1,12.06,12.06,0,0,0,1.5-.1V58.1c-.33,0-.68-.08-1-.09"/><path class="cls-2" d="M57.8,38.25a3,3,0,0,0-1.61-2.31c-3.36-6.76-3.36-12.45,0-19.21a2.91,2.91,0,0,0,1.6-2.29c0-2.24-4.07-4-9.09-4s-9.1,1.81-9.1,4a2.9,2.9,0,0,0,1.61,2.29c3.36,6.76,3.37,12.45,0,19.21a2.94,2.94,0,0,0-1.62,2.31A2.8,2.8,0,0,0,41,40.42c3.44,6.81,3.55,12.51.31,19.25a3,3,0,0,0-1.74,2.38c0,2.23,4.08,4,9.1,4s9.09-1.82,9.09-4a3,3,0,0,0-1.74-2.38c-3.23-6.74-3.13-12.44.32-19.25a2.78,2.78,0,0,0,1.42-2.17M48.23,18.47h1a8.41,8.41,0,0,0,1-.09V34.29a12.33,12.33,0,0,0-1.5-.09,10.4,10.4,0,0,0-1.5.1V18.38a8.41,8.41,0,0,0,1,.09M49.17,58h-.92c-.36,0-.7.05-1,.09V42.19a12.06,12.06,0,0,0,1.5.1,12.32,12.32,0,0,0,1.5-.1V58.1c-.34,0-.69-.08-1-.09"/><path class="cls-2" d="M81.89,38.25a2.94,2.94,0,0,0-1.62-2.31c-3.36-6.76-3.35-12.45,0-19.21a2.92,2.92,0,0,0,1.61-2.29c0-2.24-4.08-4-9.1-4s-9.1,1.81-9.1,4a2.92,2.92,0,0,0,1.61,2.29c3.37,6.76,3.37,12.45,0,19.21a2.94,2.94,0,0,0-1.62,2.31,2.8,2.8,0,0,0,1.43,2.17c3.44,6.81,3.55,12.51.32,19.25a3,3,0,0,0-1.75,2.38c0,2.23,4.08,4,9.1,4s9.1-1.82,9.1-4a3,3,0,0,0-1.74-2.38c-3.24-6.74-3.13-12.44.31-19.25a2.8,2.8,0,0,0,1.43-2.17M72.31,18.47h1a8.41,8.41,0,0,0,1-.09V34.29a12.09,12.09,0,0,0-1.5-.09,10.6,10.6,0,0,0-1.5.1V18.38a8.41,8.41,0,0,0,1,.09M73.25,58h-.92c-.36,0-.7.05-1,.09V42.19a12.32,12.32,0,0,0,1.5.1,12.06,12.06,0,0,0,1.5-.1V58.1c-.34,0-.68-.08-1-.09"/><path class="cls-2" d="M33.72,99.76a2.92,2.92,0,0,0-1.61-2.3c-3.36-6.77-3.36-12.46,0-19.22A2.9,2.9,0,0,0,33.72,76c0-2.24-4.07-4-9.1-4s-9.09,1.81-9.09,4a2.91,2.91,0,0,0,1.6,2.29c3.37,6.76,3.37,12.45,0,19.22a2.92,2.92,0,0,0-1.61,2.3A2.78,2.78,0,0,0,17,101.93c3.45,6.81,3.55,12.51.32,19.25a3,3,0,0,0-1.74,2.38c0,2.23,4.07,4,9.09,4s9.1-1.82,9.1-4A3,3,0,0,0,32,121.18c-3.24-6.74-3.13-12.44.31-19.25a2.8,2.8,0,0,0,1.43-2.17M24.14,80h1c.35,0,.69,0,1-.08V95.81a10.4,10.4,0,0,0-1.5-.1,10.6,10.6,0,0,0-1.5.1V79.9c.33,0,.68.07,1,.08m.95,39.54h-.93c-.35,0-.7,0-1,.09V103.7a10.6,10.6,0,0,0,1.5.1,10.4,10.4,0,0,0,1.5-.1v15.91c-.33,0-.68-.08-1-.09"/><path class="cls-2" d="M57.8,99.76a2.92,2.92,0,0,0-1.61-2.3c-3.36-6.77-3.36-12.46,0-19.22A2.91,2.91,0,0,0,57.8,76c0-2.24-4.07-4-9.09-4s-9.1,1.81-9.1,4a2.9,2.9,0,0,0,1.61,2.29c3.36,6.76,3.37,12.45,0,19.22a2.91,2.91,0,0,0-1.62,2.3A2.8,2.8,0,0,0,41,101.93c3.44,6.81,3.55,12.51.31,19.25a3,3,0,0,0-1.74,2.38c0,2.23,4.08,4,9.1,4s9.09-1.82,9.09-4a3,3,0,0,0-1.74-2.38c-3.23-6.74-3.13-12.44.32-19.25a2.78,2.78,0,0,0,1.42-2.17M48.23,80h1c.35,0,.69,0,1-.08V95.81a10.6,10.6,0,0,0-1.5-.1,10.4,10.4,0,0,0-1.5.1V79.9c.33,0,.67.07,1,.08m.94,39.54h-.92c-.36,0-.7,0-1,.09V103.7a10.4,10.4,0,0,0,1.5.1,10.6,10.6,0,0,0,1.5-.1v15.91c-.34,0-.69-.08-1-.09"/><path class="cls-2" d="M81.89,99.76a2.91,2.91,0,0,0-1.62-2.3c-3.36-6.77-3.35-12.46,0-19.22A2.92,2.92,0,0,0,81.89,76c0-2.24-4.08-4-9.1-4s-9.1,1.81-9.1,4a2.92,2.92,0,0,0,1.61,2.29c3.37,6.76,3.37,12.45,0,19.22a2.91,2.91,0,0,0-1.62,2.3,2.8,2.8,0,0,0,1.43,2.17c3.44,6.81,3.55,12.51.32,19.25a3,3,0,0,0-1.75,2.38c0,2.23,4.08,4,9.1,4s9.1-1.82,9.1-4a3,3,0,0,0-1.74-2.38c-3.24-6.74-3.13-12.44.31-19.25a2.8,2.8,0,0,0,1.43-2.17M72.31,80h1c.35,0,.69,0,1-.08V95.81a10.4,10.4,0,0,0-1.5-.1,10.6,10.6,0,0,0-1.5.1V79.9c.33,0,.67.07,1,.08m.94,39.54h-.92c-.36,0-.7,0-1,.09V103.7a10.6,10.6,0,0,0,1.5.1,10.4,10.4,0,0,0,1.5-.1v15.91c-.34,0-.68-.08-1-.09"/></g></g></svg>
