<svg xmlns="http://www.w3.org/2000/svg" xmlns:xlink="http://www.w3.org/1999/xlink" viewBox="0 0 101.39 138"><defs><style>.cls-1{fill:none;}.cls-2{fill:#085241;}</style><symbol id="Болванка-новая" data-name="Болванка-новая" viewBox="0 0 101.39 138"><rect class="cls-1" width="101.39" height="138" rx="6.76"/></symbol></defs><g id="Слой_2" data-name="Слой 2"><g id="Слой_1-2" data-name="Слой 1"><use width="101.39" height="138" xlink:href="#Болванка-новая"/><path class="cls-2" d="M82.54,41A2.78,2.78,0,0,0,84,38.83a3,3,0,0,0-1.61-2.3C79,29.77,79,24.08,82.36,17.32A2.93,2.93,0,0,0,84,15c0-2.24-4.06-4-9.07-4s-9.06,1.81-9.06,4a2.91,2.91,0,0,0,1.6,2.29c3.1,6.25,3.33,11.58.71,17.69a3.8,3.8,0,0,0-1.91-.62c-5.1-3.46-8.12-7.36-9.66-12.64a2.94,2.94,0,0,0,1.07-2.12c0-1.45-1.37-2.73-3.49-3.56l0,0-.56-.2-.6-.18h0a15.84,15.84,0,0,0-4.17-.54h-.12c-5,0-9,2-9,4.51a3.07,3.07,0,0,0,1.26,2.28c-1.55,5.2-4.55,9.06-9.6,12.48a3.8,3.8,0,0,0-1.91.62C26.7,28.9,26.93,23.57,30,17.32A2.91,2.91,0,0,0,31.63,15c0-2.24-4.06-4-9.06-4s-9.07,1.81-9.07,4a2.93,2.93,0,0,0,1.6,2.29c3.35,6.76,3.36,12.45,0,19.21a3,3,0,0,0-1.61,2.3A2.75,2.75,0,0,0,14.92,41,25.27,25.27,0,0,1,17,46.63a17.91,17.91,0,0,1,0,8.67,25.77,25.77,0,0,1-1.8,5,3,3,0,0,0-1.74,2.38c0,2.23,4.06,4,9.07,4s9.06-1.82,9.06-4a2.61,2.61,0,0,0-1.15-2c1.37-6.47,4.57-11,10.5-15a3,3,0,0,0,2.32-1.23,3,3,0,0,0,0-2.82A22.45,22.45,0,0,1,48.73,29a22.45,22.45,0,0,1,5.46,12.65,3,3,0,0,0,0,2.82,3,3,0,0,0,2.32,1.23c5.93,4,9.13,8.48,10.5,15a2.61,2.61,0,0,0-1.15,2c0,2.23,4.06,4,9.06,4s9.07-1.82,9.07-4a3,3,0,0,0-1.74-2.38,25.77,25.77,0,0,1-1.8-5,18,18,0,0,1,0-8.67A25.46,25.46,0,0,1,82.54,41ZM24.07,43.69v15c-.34,0-.69-.08-1-.09H22.1c-.35,0-.7,0-1,.09V42.78a12.06,12.06,0,0,0,1.5.1,12.32,12.32,0,0,0,1.5-.1Zm0-9.45v.64a12.32,12.32,0,0,0-1.5-.1,12.06,12.06,0,0,0-1.5.1V19a8.41,8.41,0,0,0,1,.09H23a8.76,8.76,0,0,0,1-.09Zm4,20.93a14.45,14.45,0,0,1-.48-4.81l4.2-6.85a7.11,7.11,0,0,0,2.53,1.77ZM37,35.09s7.23-11.6,7.3-11.57a8.68,8.68,0,0,0,3.13.57L39.8,36.77A5.06,5.06,0,0,0,37,35.09ZM63.11,45.28a7.11,7.11,0,0,0,2.53-1.77l4.2,6.85a14.22,14.22,0,0,1-.49,4.81Zm-5.45-8.51L50,24.09a8.68,8.68,0,0,0,3.13-.57c.07,0,7.3,11.57,7.3,11.57A5.06,5.06,0,0,0,57.66,36.77Zm18.73,6.92v15c-.33,0-.68-.08-1-.09h-.93c-.35,0-.7,0-1,.09V42.78a12.32,12.32,0,0,0,1.5.1,12.06,12.06,0,0,0,1.5-.1Zm0-9.45v.64a12.06,12.06,0,0,0-1.5-.1,12.32,12.32,0,0,0-1.5.1V19a8.78,8.78,0,0,0,1,.09h1a8.42,8.42,0,0,0,1-.09Z"/><path class="cls-2" d="M14.92,97a2.78,2.78,0,0,0-1.42,2.17,3,3,0,0,0,1.61,2.3c3.35,6.76,3.34,12.45,0,19.21A2.91,2.91,0,0,0,13.5,123c0,2.24,4.06,4,9.06,4s9.07-1.81,9.07-4a2.93,2.93,0,0,0-1.6-2.29c-3.1-6.25-3.33-11.58-.71-17.69a3.8,3.8,0,0,0,1.91.62c5.1,3.46,8.12,7.36,9.66,12.64a2.94,2.94,0,0,0-1.07,2.12c0,1.45,1.37,2.73,3.49,3.56l0,0,.55.2.61.18h0a15.84,15.84,0,0,0,4.17.54h.12c5,0,9-2,9-4.51a3.07,3.07,0,0,0-1.26-2.28c1.55-5.2,4.55-9.06,9.6-12.48a3.8,3.8,0,0,0,1.91-.62c2.62,6.11,2.39,11.44-.71,17.69a2.91,2.91,0,0,0-1.6,2.29c0,2.24,4.06,4,9.06,4S84,125.21,84,123a2.93,2.93,0,0,0-1.6-2.29c-3.35-6.76-3.36-12.45,0-19.21A3,3,0,0,0,84,99.17,2.77,2.77,0,0,0,82.53,97a25.72,25.72,0,0,1-2.11-5.63,17.91,17.91,0,0,1,0-8.67,25.77,25.77,0,0,1,1.8-5A3,3,0,0,0,84,75.36c0-2.23-4.06-4-9.07-4s-9.06,1.82-9.06,4a2.62,2.62,0,0,0,1.14,2c-1.36,6.47-4.56,11-10.49,15a3,3,0,0,0-2.32,1.23,3,3,0,0,0,0,2.82A22.45,22.45,0,0,1,48.73,109a22.45,22.45,0,0,1-5.46-12.65,3,3,0,0,0,0-2.82A3,3,0,0,0,41,92.28c-5.93-4-9.13-8.48-10.5-15a2.61,2.61,0,0,0,1.15-2c0-2.23-4.06-4-9.07-4s-9.06,1.82-9.06,4a3,3,0,0,0,1.74,2.38,25.77,25.77,0,0,1,1.8,5,18,18,0,0,1,0,8.67A25.46,25.46,0,0,1,14.92,97Zm58.47-2.69v-15c.34,0,.69.08,1,.09h.93c.35,0,.7-.05,1-.09V95.22a12.06,12.06,0,0,0-1.5-.1,12.32,12.32,0,0,0-1.5.1Zm0,9.45v-.64a12.32,12.32,0,0,0,1.5.1,12.06,12.06,0,0,0,1.5-.1V119a8.41,8.41,0,0,0-1-.09h-1a8.41,8.41,0,0,0-1,.09Zm-4-20.93a14.22,14.22,0,0,1,.49,4.81l-4.2,6.85a7.11,7.11,0,0,0-2.53-1.77Zm-8.91,20.08s-7.23,11.6-7.3,11.57a8.68,8.68,0,0,0-3.13-.57l7.65-12.68A5.06,5.06,0,0,0,60.44,102.91ZM34.35,92.72a7.11,7.11,0,0,0-2.53,1.77l-4.2-6.85a14.45,14.45,0,0,1,.48-4.81Zm5.45,8.51,7.65,12.68a8.68,8.68,0,0,0-3.13.57c-.07,0-7.3-11.57-7.3-11.57A5.06,5.06,0,0,0,39.8,101.23ZM21.07,94.31v-15c.33,0,.68.08,1,.09H23c.35,0,.7-.05,1-.09V95.22a12.35,12.35,0,0,0-1.51-.1,12,12,0,0,0-1.49.1Zm0,9.45v-.64a12,12,0,0,0,1.49.1,12.35,12.35,0,0,0,1.51-.1V119a8.76,8.76,0,0,0-1-.09h-1a8.42,8.42,0,0,0-1,.09Z"/></g></g></svg>
