<svg xmlns="http://www.w3.org/2000/svg" xmlns:xlink="http://www.w3.org/1999/xlink" viewBox="0 0 101.39 138"><defs><style>.cls-1,.cls-4{fill:none;}.cls-2,.cls-3{fill:#722529;}.cls-3,.cls-4{stroke:#722529;}.cls-3{stroke-width:0.5px;}.cls-4{stroke-width:0.75px;}.cls-5{fill:#232120;stroke:#232120;stroke-width:1.5px;}</style><symbol id="Болванка-новая" data-name="Болванка-новая" viewBox="0 0 101.39 138"><rect class="cls-1" width="101.39" height="138" rx="6.76"/></symbol></defs><g id="Слой_2" data-name="Слой 2"><g id="Слой_1-2" data-name="Слой 1"><use width="101.39" height="138" xlink:href="#Болванка-новая"/><path class="cls-2" d="M72.16,105.31c-3.09-2.31-3.83-2.63-4.18-2.63a7,7,0,0,0-1.87.5,38.71,38.71,0,0,1-4.32,1.06L49.07,106l.11-4.41L52,101.3c1.25-.15,2.61-.25,4-.29.46,1.14,1,1.7,1.68,1.7,1.43,0,2.42-.84,2.94-2.5l3-9.32a7.77,7.77,0,0,1,1.59-3.28,2.06,2.06,0,0,0,.54-1.19c0-.75-.86-1.57-2.69-2.58l0,0c-3.14-1.38-3.9-1.54-4.2-1.54a17.54,17.54,0,0,0-3.46.61l.06-.07a29.26,29.26,0,0,0,3.59-6.14l1.6-.28a44.5,44.5,0,0,1,6.52-.52,10.66,10.66,0,0,0,3.12-.29c1.27-.23,1.54-.88,1.54-1.37s-.26-.86-2.14-1.75h0a8,8,0,0,0-2.8-.89,3.73,3.73,0,0,0-1,.24c-.87.21-2.64.62-5.27,1.21q.52-1.35,1.08-2.64c.76-1.14.86-1.56.86-1.79,0-.8-.71-1.64-2.16-2.59h0a6.3,6.3,0,0,0-3.09-1.15c-.59,0-1.34.27-1.54,1.58v.06l0,.07a9.41,9.41,0,0,1,.33,1.92,29.74,29.74,0,0,1-.6,5.06c0,.18-.09.36-.13.55-1.57.28-3,.53-4.31.74-.38,0-1.4.15-1.4.85,0,.43.45.83,1.49,1.33a6.2,6.2,0,0,0,2.35.84,2.49,2.49,0,0,0,.82-.21l.17,0c-.49,1.81-1.08,3.81-1.75,6A90.87,90.87,0,0,1,35.31,86l-.71-.28a7.59,7.59,0,0,0-2.67-.44c-.78,0-1.23.51-1.23,1.39,0,.25.2.46.72.76a5.15,5.15,0,0,1,1.84,2.72,25.69,25.69,0,0,1,1.11,5.2l.89,4.77a5,5,0,0,0,1,2.67c.44.71.9,1.06,1.4,1.06s.85-.32,1.14-.93a3.78,3.78,0,0,0,.26-.74,7,7,0,0,0,1.19.09c.82,0,2-.08,3.5-.23l.87-.08.08,4.59q-8,1.06-12.73,1.66l0-.8c-.09-.75-.77-1.38-2.08-1.91h0a11.89,11.89,0,0,0-2.69-.63c-.44,0-1.16.19-1.16,1.44a2,2,0,0,0,.36,1.1,13.75,13.75,0,0,1,.67,1.4c-.86.1-1.39.15-1.58.15a7.72,7.72,0,0,1-1.44-.23h0a9.87,9.87,0,0,0-1.49-.17,1,1,0,0,0-1.05,1.06c0,.56.51,1.16,1.65,1.9a7.83,7.83,0,0,0,3.47.92,6.4,6.4,0,0,0,1.31-.17,53,53,0,0,1,.53,7.35c0,1,0,2-.08,3.12a11.08,11.08,0,0,0-.18,1.42,4.67,4.67,0,0,0,.75,2.15c.61,1.28,1.16,1.88,1.72,1.88s1.12-.46,1.43-1.32a6.28,6.28,0,0,0,.75-2.65l-.65-12.9c3.71-.71,7.94-1.37,12.63-2l.08,5.35-3,.52c-1.42.15-2.41.23-2.94.23-.21,0-.75-.06-1.59-.16a9.74,9.74,0,0,0-1.43-.16c-1.17,0-1.29.72-1.29,1s.24,1,2.13,2.78a5.4,5.4,0,0,0,3.08,1.62,4,4,0,0,0,1.82-.68c1.23-.53,2.64-1,4.19-1.53l.23-.07h0c.58-.2,2.75-.87,9.85-3l.26.49a13.88,13.88,0,0,0,2.32,3.59c.45.48.77.69,1.06.69a2,2,0,0,0,1.78-1.11,6.48,6.48,0,0,0,.51-2.34,5.93,5.93,0,0,0-.57-2.6,9.6,9.6,0,0,0-3-2.9,27.83,27.83,0,0,0-3.48-1.78l0,0a5.31,5.31,0,0,0-1.32-.26c-.34,0-.7.21-.7.82a2.56,2.56,0,0,0,.79,1.46,14.76,14.76,0,0,1,1,1.5q-2.1.48-5.54,1.12l.13-5.13h.14c7.58-.71,12.82-1.06,15.59-1.06a3.42,3.42,0,0,1,2.1.42,14.13,14.13,0,0,1,.51,4.55,26.67,26.67,0,0,1-1.07,8.75c-.25.51-.64,1.12-1.12,1.12a23.45,23.45,0,0,1-4.22-.73,4.39,4.39,0,0,0-1.46-.51.74.74,0,0,0-.8.81c0,.22.1.55.88,1.33a32.67,32.67,0,0,1,3.84,5.29,2.48,2.48,0,0,0,1.92,1.33l.67,0v0A6.14,6.14,0,0,0,69.32,128c1.54-1.59,2.42-4.06,2.62-7.33l.58-6.79a14,14,0,0,1,1-4.34,3,3,0,0,0,.55-1.46C74,107.2,73.42,106.3,72.16,105.31Zm-15.7-7.4a5.38,5.38,0,0,0-1.92-.48,38.42,38.42,0,0,0-4.18.43L49.27,98l.09-3.58,3-.39q1.63-.19,4-.39a9.57,9.57,0,0,0,1.08-.28A35.64,35.64,0,0,1,56.46,97.91Zm1-11.67c.4,0,.8.13.8,1a26.51,26.51,0,0,1-.32,3.81,10.57,10.57,0,0,0-1-.42h0A15.23,15.23,0,0,0,54,90.18c-.11,0-.45,0-2.17.3l-2.36.43a11.47,11.47,0,0,1,.2-1.14,4.37,4.37,0,0,0,.22-1.29,1.7,1.7,0,0,0-.71-1.3C53.85,86.56,56.61,86.24,57.44,86.24ZM37.93,92.48c-.13-.67-.28-1.38-.44-2.12a11,11,0,0,1-.25-1.92,59.33,59.33,0,0,0,6.2-.45,3.2,3.2,0,0,0,.31.42,4.81,4.81,0,0,1,.64,1.93l0,1.36c-1.95.28-3.93.53-5.91.75ZM39,99.09c-.1-1-.29-2.3-.55-3.78a11.25,11.25,0,0,0,1.62.11c.92,0,2.39-.12,4.37-.34l.06,3.56C42.75,98.83,40.91,99,39,99.09Z"/><path class="cls-2" d="M26,80.6a5.39,5.39,0,0,0,3.07,1.62,3.62,3.62,0,0,0,1.65-.6A38,38,0,0,1,34.5,80.3l.23-.08h0c.34-.11,1.19-.37,3-.9.19.57.39,1.17.59,1.79.5,2.06,1.19,3.09,2.16,3.15.77-.06,1.28-.81,1.51-2.26,0-.2-.08-.86-.58-3.75l3-.87c.71-.2,1.66-.54,1.66-1.28,0-.54-.35-1.17-2-1.17a7.66,7.66,0,0,0-1.31.17c-.53.1-1.16.22-1.88.34-.11-.62-.23-1.3-.37-2.05a15.82,15.82,0,0,1-.2-3c0-.58-.41-1.1-1.22-1.56l0,0a11.07,11.07,0,0,0-4-.92,1.36,1.36,0,0,0-1.53,1.47c0,.25.09.72.93,1.94a24,24,0,0,1,2.09,4.78c-1.68.25-3.61.53-5.78.82-1.25.12-2.13.17-2.61.17-.22,0-.76,0-1.6-.15a9.6,9.6,0,0,0-1.43-.16c-1.16,0-1.29.72-1.29,1S24.14,78.82,26,80.6Z"/><path class="cls-3" d="M72.16,105.31c-3.09-2.31-3.83-2.63-4.18-2.63a7,7,0,0,0-1.87.5,38.71,38.71,0,0,1-4.32,1.06L49.07,106l.11-4.41L52,101.3c1.25-.15,2.61-.25,4-.29.46,1.14,1,1.7,1.68,1.7,1.43,0,2.42-.84,2.94-2.5l3-9.32a7.77,7.77,0,0,1,1.59-3.28,2.06,2.06,0,0,0,.54-1.19c0-.75-.86-1.57-2.69-2.58l0,0c-3.14-1.38-3.9-1.54-4.2-1.54a17.54,17.54,0,0,0-3.46.61l.06-.07a29.26,29.26,0,0,0,3.59-6.14l1.6-.28a44.5,44.5,0,0,1,6.52-.52,10.66,10.66,0,0,0,3.12-.29c1.27-.23,1.54-.88,1.54-1.37s-.26-.86-2.14-1.75h0a8,8,0,0,0-2.8-.89,3.73,3.73,0,0,0-1,.24c-.87.21-2.64.62-5.27,1.21q.52-1.35,1.08-2.64c.76-1.14.86-1.56.86-1.79,0-.8-.71-1.64-2.16-2.59h0a6.3,6.3,0,0,0-3.09-1.15c-.59,0-1.34.27-1.54,1.58v.06l0,.07a9.41,9.41,0,0,1,.33,1.92,29.74,29.74,0,0,1-.6,5.06c0,.18-.09.36-.13.55-1.57.28-3,.53-4.31.74-.38,0-1.4.15-1.4.85,0,.43.45.83,1.49,1.33a6.2,6.2,0,0,0,2.35.84,2.49,2.49,0,0,0,.82-.21l.17,0c-.49,1.81-1.08,3.81-1.75,6A90.87,90.87,0,0,1,35.31,86l-.71-.28a7.59,7.59,0,0,0-2.67-.44c-.78,0-1.23.51-1.23,1.39,0,.25.2.46.72.76a5.15,5.15,0,0,1,1.84,2.72,25.69,25.69,0,0,1,1.11,5.2l.89,4.77a5,5,0,0,0,1,2.67c.44.71.9,1.06,1.4,1.06s.85-.32,1.14-.93a3.78,3.78,0,0,0,.26-.74,7,7,0,0,0,1.19.09c.82,0,2-.08,3.5-.23l.87-.08.08,4.59q-8,1.06-12.73,1.66l0-.8c-.09-.75-.77-1.38-2.08-1.91h0a11.89,11.89,0,0,0-2.69-.63c-.44,0-1.16.19-1.16,1.44a2,2,0,0,0,.36,1.1,13.75,13.75,0,0,1,.67,1.4c-.86.1-1.39.15-1.58.15a7.72,7.72,0,0,1-1.44-.23h0a9.87,9.87,0,0,0-1.49-.17,1,1,0,0,0-1.05,1.06c0,.56.51,1.16,1.65,1.9a7.83,7.83,0,0,0,3.47.92,6.4,6.4,0,0,0,1.31-.17,53,53,0,0,1,.53,7.35c0,1,0,2-.08,3.12a11.08,11.08,0,0,0-.18,1.42,4.67,4.67,0,0,0,.75,2.15c.61,1.28,1.16,1.88,1.72,1.88s1.12-.46,1.43-1.32a6.28,6.28,0,0,0,.75-2.65l-.65-12.9c3.71-.71,7.94-1.37,12.63-2l.08,5.35-3,.52c-1.42.15-2.41.23-2.94.23-.21,0-.75-.06-1.59-.16a9.74,9.74,0,0,0-1.43-.16c-1.17,0-1.29.72-1.29,1s.24,1,2.13,2.78a5.4,5.4,0,0,0,3.08,1.62,4,4,0,0,0,1.82-.68c1.23-.53,2.64-1,4.19-1.53l.23-.07h0c.58-.2,2.75-.87,9.85-3l.26.49a13.88,13.88,0,0,0,2.32,3.59c.45.48.77.69,1.06.69a2,2,0,0,0,1.78-1.11,6.48,6.48,0,0,0,.51-2.34,5.93,5.93,0,0,0-.57-2.6,9.6,9.6,0,0,0-3-2.9,27.83,27.83,0,0,0-3.48-1.78l0,0a5.31,5.31,0,0,0-1.32-.26c-.34,0-.7.21-.7.82a2.56,2.56,0,0,0,.79,1.46,14.76,14.76,0,0,1,1,1.5q-2.1.48-5.54,1.12l.13-5.13h.14c7.58-.71,12.82-1.06,15.59-1.06a3.42,3.42,0,0,1,2.1.42,14.13,14.13,0,0,1,.51,4.55,26.67,26.67,0,0,1-1.07,8.75c-.25.51-.64,1.12-1.12,1.12a23.45,23.45,0,0,1-4.22-.73,4.39,4.39,0,0,0-1.46-.51.74.74,0,0,0-.8.81c0,.22.1.55.88,1.33a32.67,32.67,0,0,1,3.84,5.29,2.48,2.48,0,0,0,1.92,1.33l.67,0v0A6.14,6.14,0,0,0,69.32,128c1.54-1.59,2.42-4.06,2.62-7.33l.58-6.79a14,14,0,0,1,1-4.34,3,3,0,0,0,.55-1.46C74,107.2,73.42,106.3,72.16,105.31Zm-15.7-7.4a5.38,5.38,0,0,0-1.92-.48,38.42,38.42,0,0,0-4.18.43L49.27,98l.09-3.58,3-.39q1.63-.19,4-.39a9.57,9.57,0,0,0,1.08-.28A35.64,35.64,0,0,1,56.46,97.91Zm1-11.67c.4,0,.8.13.8,1a26.51,26.51,0,0,1-.32,3.81,10.57,10.57,0,0,0-1-.42h0A15.23,15.23,0,0,0,54,90.18c-.11,0-.45,0-2.17.3l-2.36.43a11.47,11.47,0,0,1,.2-1.14,4.37,4.37,0,0,0,.22-1.29,1.7,1.7,0,0,0-.71-1.3C53.85,86.56,56.61,86.24,57.44,86.24ZM37.93,92.48c-.13-.67-.28-1.38-.44-2.12a11,11,0,0,1-.25-1.92,59.33,59.33,0,0,0,6.2-.45,3.2,3.2,0,0,0,.31.42,4.81,4.81,0,0,1,.64,1.93l0,1.36c-1.95.28-3.93.53-5.91.75ZM39,99.09c-.1-1-.29-2.3-.55-3.78a11.25,11.25,0,0,0,1.62.11c.92,0,2.39-.12,4.37-.34l.06,3.56C42.75,98.83,40.91,99,39,99.09Z"/><path class="cls-3" d="M26,80.6a5.39,5.39,0,0,0,3.07,1.62,3.62,3.62,0,0,0,1.65-.6A38,38,0,0,1,34.5,80.3l.23-.08h0c.34-.11,1.19-.37,3-.9.19.57.39,1.17.59,1.79.5,2.06,1.19,3.09,2.16,3.15.77-.06,1.28-.81,1.51-2.26,0-.2-.08-.86-.58-3.75l3-.87c.71-.2,1.66-.54,1.66-1.28,0-.54-.35-1.17-2-1.17a7.66,7.66,0,0,0-1.31.17c-.53.1-1.16.22-1.88.34-.11-.62-.23-1.3-.37-2.05a15.82,15.82,0,0,1-.2-3c0-.58-.41-1.1-1.22-1.56l0,0a11.07,11.07,0,0,0-4-.92,1.36,1.36,0,0,0-1.53,1.47c0,.25.09.72.93,1.94a24,24,0,0,1,2.09,4.78c-1.68.25-3.61.53-5.78.82-1.25.12-2.13.17-2.61.17-.22,0-.76,0-1.6-.15a9.6,9.6,0,0,0-1.43-.16c-1.16,0-1.29.72-1.29,1S24.14,78.82,26,80.6Z"/><path class="cls-4" d="M72.16,105.31c-3.09-2.31-3.83-2.63-4.18-2.63a7,7,0,0,0-1.87.5,38.71,38.71,0,0,1-4.32,1.06L49.07,106l.11-4.41L52,101.3c1.25-.15,2.61-.25,4-.29.46,1.14,1,1.7,1.68,1.7,1.43,0,2.42-.84,2.94-2.5l3-9.32a7.77,7.77,0,0,1,1.59-3.28,2.06,2.06,0,0,0,.54-1.19c0-.75-.86-1.57-2.69-2.58l0,0c-3.14-1.38-3.9-1.54-4.2-1.54a17.54,17.54,0,0,0-3.46.61l.06-.07a29.26,29.26,0,0,0,3.59-6.14l1.6-.28a44.5,44.5,0,0,1,6.52-.52,10.66,10.66,0,0,0,3.12-.29c1.27-.23,1.54-.88,1.54-1.37s-.26-.86-2.14-1.75h0a8,8,0,0,0-2.8-.89,3.73,3.73,0,0,0-1,.24c-.87.21-2.64.62-5.27,1.21q.52-1.35,1.08-2.64c.76-1.14.86-1.56.86-1.79,0-.8-.71-1.64-2.16-2.59h0a6.3,6.3,0,0,0-3.09-1.15c-.59,0-1.34.27-1.54,1.58v.06l0,.07a9.41,9.41,0,0,1,.33,1.92,29.74,29.74,0,0,1-.6,5.06c0,.18-.09.36-.13.55-1.57.28-3,.53-4.31.74-.38,0-1.4.15-1.4.85,0,.43.45.83,1.49,1.33a6.2,6.2,0,0,0,2.35.84,2.49,2.49,0,0,0,.82-.21l.17,0c-.49,1.81-1.08,3.81-1.75,6A90.87,90.87,0,0,1,35.31,86l-.71-.28a7.59,7.59,0,0,0-2.67-.44c-.78,0-1.23.51-1.23,1.39,0,.25.2.46.72.76a5.15,5.15,0,0,1,1.84,2.72,25.69,25.69,0,0,1,1.11,5.2l.89,4.77a5,5,0,0,0,1,2.67c.44.71.9,1.06,1.4,1.06s.85-.32,1.14-.93a3.78,3.78,0,0,0,.26-.74,7,7,0,0,0,1.19.09c.82,0,2-.08,3.5-.23l.87-.08.08,4.59q-8,1.06-12.73,1.66l0-.8c-.09-.75-.77-1.38-2.08-1.91h0a11.89,11.89,0,0,0-2.69-.63c-.44,0-1.16.19-1.16,1.44a2,2,0,0,0,.36,1.1,13.75,13.75,0,0,1,.67,1.4c-.86.1-1.39.15-1.58.15a7.72,7.72,0,0,1-1.44-.23h0a9.87,9.87,0,0,0-1.49-.17,1,1,0,0,0-1.05,1.06c0,.56.51,1.16,1.65,1.9a7.83,7.83,0,0,0,3.47.92,6.4,6.4,0,0,0,1.31-.17,53,53,0,0,1,.53,7.35c0,1,0,2-.08,3.12a11.08,11.08,0,0,0-.18,1.42,4.67,4.67,0,0,0,.75,2.15c.61,1.28,1.16,1.88,1.72,1.88s1.12-.46,1.43-1.32a6.28,6.28,0,0,0,.75-2.65l-.65-12.9c3.71-.71,7.94-1.37,12.63-2l.08,5.35-3,.52c-1.42.15-2.41.23-2.94.23-.21,0-.75-.06-1.59-.16a9.74,9.74,0,0,0-1.43-.16c-1.17,0-1.29.72-1.29,1s.24,1,2.13,2.78a5.4,5.4,0,0,0,3.08,1.62,4,4,0,0,0,1.82-.68c1.23-.53,2.64-1,4.19-1.53l.23-.07h0c.58-.2,2.75-.87,9.85-3l.26.49a13.88,13.88,0,0,0,2.32,3.59c.45.48.77.69,1.06.69a2,2,0,0,0,1.78-1.11,6.48,6.48,0,0,0,.51-2.34,5.93,5.93,0,0,0-.57-2.6,9.6,9.6,0,0,0-3-2.9,27.83,27.83,0,0,0-3.48-1.78l0,0a5.31,5.31,0,0,0-1.32-.26c-.34,0-.7.21-.7.82a2.56,2.56,0,0,0,.79,1.46,14.76,14.76,0,0,1,1,1.5q-2.1.48-5.54,1.12l.13-5.13h.14c7.58-.71,12.82-1.06,15.59-1.06a3.42,3.42,0,0,1,2.1.42,14.13,14.13,0,0,1,.51,4.55,26.67,26.67,0,0,1-1.07,8.75c-.25.51-.64,1.12-1.12,1.12a23.45,23.45,0,0,1-4.22-.73,4.39,4.39,0,0,0-1.46-.51.74.74,0,0,0-.8.81c0,.22.1.55.88,1.33a32.67,32.67,0,0,1,3.84,5.29,2.48,2.48,0,0,0,1.92,1.33l.67,0v0A6.14,6.14,0,0,0,69.32,128c1.54-1.59,2.42-4.06,2.62-7.33l.58-6.79a14,14,0,0,1,1-4.34,3,3,0,0,0,.55-1.46C74,107.2,73.42,106.3,72.16,105.31Zm-15.7-7.4a5.38,5.38,0,0,0-1.92-.48,38.42,38.42,0,0,0-4.18.43L49.27,98l.09-3.58,3-.39q1.63-.19,4-.39a9.57,9.57,0,0,0,1.08-.28A35.64,35.64,0,0,1,56.46,97.91Zm1-11.67c.4,0,.8.13.8,1a26.51,26.51,0,0,1-.32,3.81,10.57,10.57,0,0,0-1-.42h0A15.23,15.23,0,0,0,54,90.18c-.11,0-.45,0-2.17.3l-2.36.43a11.47,11.47,0,0,1,.2-1.14,4.37,4.37,0,0,0,.22-1.29,1.7,1.7,0,0,0-.71-1.3C53.85,86.56,56.61,86.24,57.44,86.24ZM37.93,92.48c-.13-.67-.28-1.38-.44-2.12a11,11,0,0,1-.25-1.92,59.33,59.33,0,0,0,6.2-.45,3.2,3.2,0,0,0,.31.42,4.81,4.81,0,0,1,.64,1.93l0,1.36c-1.95.28-3.93.53-5.91.75ZM39,99.09c-.1-1-.29-2.3-.55-3.78a11.25,11.25,0,0,0,1.62.11c.92,0,2.39-.12,4.37-.34l.06,3.56C42.75,98.83,40.91,99,39,99.09Z"/><path class="cls-4" d="M26,80.6a5.39,5.39,0,0,0,3.07,1.62,3.62,3.62,0,0,0,1.65-.6A38,38,0,0,1,34.5,80.3l.23-.08h0c.34-.11,1.19-.37,3-.9.19.57.39,1.17.59,1.79.5,2.06,1.19,3.09,2.16,3.15.77-.06,1.28-.81,1.51-2.26,0-.2-.08-.86-.58-3.75l3-.87c.71-.2,1.66-.54,1.66-1.28,0-.54-.35-1.17-2-1.17a7.66,7.66,0,0,0-1.31.17c-.53.1-1.16.22-1.88.34-.11-.62-.23-1.3-.37-2.05a15.82,15.82,0,0,1-.2-3c0-.58-.41-1.1-1.22-1.56l0,0a11.07,11.07,0,0,0-4-.92,1.36,1.36,0,0,0-1.53,1.47c0,.25.09.72.93,1.94a24,24,0,0,1,2.09,4.78c-1.68.25-3.61.53-5.78.82-1.25.12-2.13.17-2.61.17-.22,0-.76,0-1.6-.15a9.6,9.6,0,0,0-1.43-.16c-1.16,0-1.29.72-1.29,1S24.14,78.82,26,80.6Z"/><path class="cls-5" d="M75.51,46.92q3.15,1.72,3.15,3.12,0,1.23-4.35,1.23-5.62-.15-12.12-.15-6.8,0-17.74.74A114.38,114.38,0,0,0,27.67,54a22.09,22.09,0,0,1-3.1.56,12,12,0,0,1-4.23-1.23c-2-.88-3-1.59-3-2.13s.64-1,1.94-1.15a100.92,100.92,0,0,0,14.57-.88q8.78-1,19.3-1.51c6.62-.53,11.71-1.11,15.24-1.76a24.78,24.78,0,0,1,2.8-.36A24.66,24.66,0,0,1,75.51,46.92ZM63,15.43c1,.46,1.57,1,1.57,1.72q0,.78-2.07,1.23a84.26,84.26,0,0,1-10.67,2A160.21,160.21,0,0,1,35.5,22.07a10.65,10.65,0,0,1-4.9-.79c-.92-.64-1.38-1.2-1.38-1.67s1-.68,3-.75q7.11-.64,15.61-2.15a84.45,84.45,0,0,0,9.57-2,7.18,7.18,0,0,1,1.73-.44A9.31,9.31,0,0,1,63,15.43ZM60.79,32.37c1.05.45,1.57,1,1.57,1.71,0,.37-.55.67-1.67.88a75.16,75.16,0,0,1-8.64,1.45Q41.9,37.63,38.81,37.62a10.65,10.65,0,0,1-4.9-.79c-.92-.64-1.37-1.2-1.37-1.67,0-.32.81-.5,2.45-.56q5.79-.48,12.72-1.6a71,71,0,0,0,7.81-1.52,6.13,6.13,0,0,1,1.41-.31A9.16,9.16,0,0,1,60.79,32.37Z"/></g></g></svg>
