<svg xmlns="http://www.w3.org/2000/svg" xmlns:xlink="http://www.w3.org/1999/xlink" viewBox="0 0 101.39 138"><defs><style>.cls-1,.cls-4{fill:none;}.cls-2,.cls-3{fill:#722529;}.cls-3,.cls-4{stroke:#722529;}.cls-3{stroke-width:0.5px;}.cls-4,.cls-5{stroke-width:0.75px;}.cls-5{fill:#010101;stroke:#010101;}</style><symbol id="Болванка-новая" data-name="Болванка-новая" viewBox="0 0 101.39 138"><rect class="cls-1" width="101.39" height="138" rx="6.76"/></symbol></defs><g id="Слой_2" data-name="Слой 2"><g id="Слой_1-2" data-name="Слой 1"><use width="101.39" height="138" xlink:href="#Болванка-новая"/><path class="cls-2" d="M26,80.6a5.39,5.39,0,0,0,3.07,1.62,3.62,3.62,0,0,0,1.65-.6A39,39,0,0,1,34.5,80.3l.23-.08h0c.34-.11,1.19-.37,3-.9.19.57.39,1.17.59,1.79.5,2.06,1.19,3.09,2.16,3.15.77-.06,1.28-.81,1.51-2.26,0-.2-.08-.86-.58-3.75l3-.87c.41-.12,1.66-.45,1.66-1.28,0-.54-.35-1.17-2-1.17a7.78,7.78,0,0,0-1.31.17c-.53.11-1.16.22-1.88.34-.11-.62-.23-1.3-.37-2.05a15.89,15.89,0,0,1-.2-3c0-.58-.41-1.1-1.22-1.56l0,0a11,11,0,0,0-4-.91,1.35,1.35,0,0,0-1.53,1.46c0,.25.09.72.93,1.94a24,24,0,0,1,2.09,4.78c-1.68.25-3.61.53-5.78.82-1.25.12-2.13.17-2.61.17-.22,0-.76,0-1.6-.15a9.6,9.6,0,0,0-1.43-.16c-1.16,0-1.29.72-1.29,1S24.14,78.82,26,80.6Z"/><path class="cls-2" d="M72.16,105.31c-3.09-2.31-3.83-2.63-4.18-2.63a7.16,7.16,0,0,0-1.87.5,39.82,39.82,0,0,1-4.32,1.06L49.07,106l.11-4.41L52,101.3c1.25-.15,2.61-.25,4-.29.46,1.14,1,1.7,1.68,1.7,1.43,0,2.42-.84,2.94-2.5l3-9.32a7.71,7.71,0,0,1,1.59-3.28,2.06,2.06,0,0,0,.54-1.19c0-.75-.86-1.57-2.69-2.58l0,0c-3.1-1.36-3.87-1.54-4.2-1.54a17,17,0,0,0-3.46.62l.06-.08a29.26,29.26,0,0,0,3.59-6.14l1.6-.28a44.5,44.5,0,0,1,6.52-.52,10.66,10.66,0,0,0,3.12-.29c1.27-.23,1.54-.88,1.54-1.37s-.26-.86-2.14-1.75h0a7.85,7.85,0,0,0-2.8-.9,3.65,3.65,0,0,0-1,.24C65,72,63.18,72.44,60.6,73c.34-.89.7-1.78,1.07-2.64.76-1.14.86-1.56.86-1.79,0-.8-.71-1.64-2.16-2.59h0a6.44,6.44,0,0,0-3.09-1.15c-.59,0-1.34.27-1.54,1.58v.06l0,.07a9.52,9.52,0,0,1,.33,1.92,29.74,29.74,0,0,1-.6,5.06c0,.18-.09.36-.13.55-1.57.28-3,.53-4.31.74-.38,0-1.4.15-1.4.85,0,.43.45.83,1.49,1.33a6.25,6.25,0,0,0,2.35.84,2.49,2.49,0,0,0,.82-.21l.16,0c-.48,1.81-1.07,3.81-1.74,6A90.87,90.87,0,0,1,35.31,86c-.22-.09-.45-.19-.71-.27a7.36,7.36,0,0,0-2.67-.45c-.78,0-1.23.51-1.23,1.39,0,.26.2.46.72.76a5.15,5.15,0,0,1,1.84,2.72,25.69,25.69,0,0,1,1.11,5.2l.89,4.77a5,5,0,0,0,1,2.67c.44.71.9,1.06,1.4,1.06s.85-.32,1.14-.93a3.56,3.56,0,0,0,.26-.74,7,7,0,0,0,1.19.09c.82,0,2-.08,3.5-.23l.87-.08.08,4.59q-8,1.06-12.73,1.66l0-.8c-.09-.75-.77-1.38-2.08-1.91h0a11.89,11.89,0,0,0-2.69-.63c-.44,0-1.16.19-1.16,1.44a2,2,0,0,0,.36,1.1,13,13,0,0,1,.67,1.41c-.86.09-1.39.14-1.57.14a7.67,7.67,0,0,1-1.45-.23h0a9.87,9.87,0,0,0-1.49-.17,1,1,0,0,0-1.05,1.06c0,.56.51,1.16,1.65,1.9a7.83,7.83,0,0,0,3.47.92,6.4,6.4,0,0,0,1.31-.17,53.14,53.14,0,0,1,.53,7.36c0,1,0,2-.08,3.11a11.3,11.3,0,0,0-.18,1.42,4.64,4.64,0,0,0,.74,2.15c.62,1.28,1.17,1.88,1.73,1.88s1.12-.46,1.43-1.32a6.14,6.14,0,0,0,.75-2.65l-.65-12.9c3.71-.71,7.94-1.37,12.63-2l.08,5.35-3,.52c-1.42.15-2.41.23-2.94.23-.21,0-.75-.06-1.59-.16a9.74,9.74,0,0,0-1.43-.16c-1.17,0-1.29.72-1.29,1s.24,1,2.13,2.78a5.4,5.4,0,0,0,3.08,1.62,4,4,0,0,0,1.83-.68,42.68,42.68,0,0,1,4.18-1.53l.23-.07h0c.58-.2,2.75-.87,9.85-3,.09.16.17.33.27.49a13.4,13.4,0,0,0,2.31,3.59c.45.48.77.69,1.06.69a2.06,2.06,0,0,0,1.78-1.11,6.48,6.48,0,0,0,.51-2.34,5.93,5.93,0,0,0-.57-2.6,9.6,9.6,0,0,0-3-2.9,26.54,26.54,0,0,0-3.48-1.78l0,0a5.31,5.31,0,0,0-1.32-.26c-.34,0-.7.21-.7.82a2.53,2.53,0,0,0,.79,1.46,14.76,14.76,0,0,1,1,1.5q-2.1.48-5.54,1.12l.13-5.13h.14c7.59-.71,12.83-1.06,15.59-1.06a3.42,3.42,0,0,1,2.1.42,14.42,14.42,0,0,1,.51,4.55,26.67,26.67,0,0,1-1.07,8.75c-.25.51-.64,1.12-1.12,1.12a23.25,23.25,0,0,1-4.21-.73,4.47,4.47,0,0,0-1.47-.51.74.74,0,0,0-.8.81c0,.22.1.55.88,1.33a32.67,32.67,0,0,1,3.84,5.29,2.48,2.48,0,0,0,1.92,1.33l.67,0v0A6.14,6.14,0,0,0,69.32,128c1.54-1.59,2.42-4.06,2.62-7.33l.58-6.79a14,14,0,0,1,1-4.34,3,3,0,0,0,.55-1.46C74,107.2,73.42,106.3,72.16,105.31Zm-15.7-7.4a5.38,5.38,0,0,0-1.92-.48,38,38,0,0,0-4.18.43L49.27,98l.09-3.58,3-.39c1.09-.13,2.43-.25,4-.39a9.57,9.57,0,0,0,1.08-.28A35.64,35.64,0,0,1,56.46,97.91Zm1-11.67c.4,0,.8.13.8,1a25.14,25.14,0,0,1-.32,3.81,10.57,10.57,0,0,0-1-.42h0A15.1,15.1,0,0,0,54,90.18c-.07,0-.22,0-2.17.3l-2.36.43a11.47,11.47,0,0,1,.2-1.14,4.42,4.42,0,0,0,.22-1.29,1.7,1.7,0,0,0-.71-1.3C53.84,86.56,56.61,86.24,57.44,86.24ZM37.93,92.48c-.14-.67-.28-1.38-.45-2.12a13.12,13.12,0,0,1-.24-1.91q3.07-.08,6.2-.46a3.2,3.2,0,0,0,.31.42,4.86,4.86,0,0,1,.64,1.93l0,1.36c-1.95.28-3.93.53-5.91.75ZM39,99.09c-.11-1-.29-2.3-.56-3.78a11.5,11.5,0,0,0,1.63.11c.92,0,2.39-.12,4.37-.34l.06,3.56C42.75,98.83,40.91,99,39,99.09Z"/><path class="cls-3" d="M26,80.6a5.39,5.39,0,0,0,3.07,1.62,3.62,3.62,0,0,0,1.65-.6A39,39,0,0,1,34.5,80.3l.23-.08h0c.34-.11,1.19-.37,3-.9.19.57.39,1.17.59,1.79.5,2.06,1.19,3.09,2.16,3.15.77-.06,1.28-.81,1.51-2.26,0-.2-.08-.86-.58-3.75l3-.87c.41-.12,1.66-.45,1.66-1.28,0-.54-.35-1.17-2-1.17a7.78,7.78,0,0,0-1.31.17c-.53.11-1.16.22-1.88.34-.11-.62-.23-1.3-.37-2.05a15.89,15.89,0,0,1-.2-3c0-.58-.41-1.1-1.22-1.56l0,0a11,11,0,0,0-4-.91,1.35,1.35,0,0,0-1.53,1.46c0,.25.09.72.93,1.94a24,24,0,0,1,2.09,4.78c-1.68.25-3.61.53-5.78.82-1.25.12-2.13.17-2.61.17-.22,0-.76,0-1.6-.15a9.6,9.6,0,0,0-1.43-.16c-1.16,0-1.29.72-1.29,1S24.14,78.82,26,80.6Z"/><path class="cls-3" d="M72.16,105.31c-3.09-2.31-3.83-2.63-4.18-2.63a7.16,7.16,0,0,0-1.87.5,39.82,39.82,0,0,1-4.32,1.06L49.07,106l.11-4.41L52,101.3c1.25-.15,2.61-.25,4-.29.46,1.14,1,1.7,1.68,1.7,1.43,0,2.42-.84,2.94-2.5l3-9.32a7.71,7.71,0,0,1,1.59-3.28,2.06,2.06,0,0,0,.54-1.19c0-.75-.86-1.57-2.69-2.58l0,0c-3.1-1.36-3.87-1.54-4.2-1.54a17,17,0,0,0-3.46.62l.06-.08a29.26,29.26,0,0,0,3.59-6.14l1.6-.28a44.5,44.5,0,0,1,6.52-.52,10.66,10.66,0,0,0,3.12-.29c1.27-.23,1.54-.88,1.54-1.37s-.26-.86-2.14-1.75h0a7.85,7.85,0,0,0-2.8-.9,3.65,3.65,0,0,0-1,.24C65,72,63.18,72.44,60.6,73c.34-.89.7-1.78,1.07-2.64.76-1.14.86-1.56.86-1.79,0-.8-.71-1.64-2.16-2.59h0a6.44,6.44,0,0,0-3.09-1.15c-.59,0-1.34.27-1.54,1.58v.06l0,.07a9.52,9.52,0,0,1,.33,1.92,29.74,29.74,0,0,1-.6,5.06c0,.18-.09.36-.13.55-1.57.28-3,.53-4.31.74-.38,0-1.4.15-1.4.85,0,.43.45.83,1.49,1.33a6.25,6.25,0,0,0,2.35.84,2.49,2.49,0,0,0,.82-.21l.16,0c-.48,1.81-1.07,3.81-1.74,6A90.87,90.87,0,0,1,35.31,86c-.22-.09-.45-.19-.71-.27a7.36,7.36,0,0,0-2.67-.45c-.78,0-1.23.51-1.23,1.39,0,.26.2.46.72.76a5.15,5.15,0,0,1,1.84,2.72,25.69,25.69,0,0,1,1.11,5.2l.89,4.77a5,5,0,0,0,1,2.67c.44.71.9,1.06,1.4,1.06s.85-.32,1.14-.93a3.56,3.56,0,0,0,.26-.74,7,7,0,0,0,1.19.09c.82,0,2-.08,3.5-.23l.87-.08.08,4.59q-8,1.06-12.73,1.66l0-.8c-.09-.75-.77-1.38-2.08-1.91h0a11.89,11.89,0,0,0-2.69-.63c-.44,0-1.16.19-1.16,1.44a2,2,0,0,0,.36,1.1,13,13,0,0,1,.67,1.41c-.86.09-1.39.14-1.57.14a7.67,7.67,0,0,1-1.45-.23h0a9.87,9.87,0,0,0-1.49-.17,1,1,0,0,0-1.05,1.06c0,.56.51,1.16,1.65,1.9a7.83,7.83,0,0,0,3.47.92,6.4,6.4,0,0,0,1.31-.17,53.14,53.14,0,0,1,.53,7.36c0,1,0,2-.08,3.11a11.3,11.3,0,0,0-.18,1.42,4.64,4.64,0,0,0,.74,2.15c.62,1.28,1.17,1.88,1.73,1.88s1.12-.46,1.43-1.32a6.14,6.14,0,0,0,.75-2.65l-.65-12.9c3.71-.71,7.94-1.37,12.63-2l.08,5.35-3,.52c-1.42.15-2.41.23-2.94.23-.21,0-.75-.06-1.59-.16a9.74,9.74,0,0,0-1.43-.16c-1.17,0-1.29.72-1.29,1s.24,1,2.13,2.78a5.4,5.4,0,0,0,3.08,1.62,4,4,0,0,0,1.83-.68,42.68,42.68,0,0,1,4.18-1.53l.23-.07h0c.58-.2,2.75-.87,9.85-3,.09.16.17.33.27.49a13.4,13.4,0,0,0,2.31,3.59c.45.48.77.69,1.06.69a2.06,2.06,0,0,0,1.78-1.11,6.48,6.48,0,0,0,.51-2.34,5.93,5.93,0,0,0-.57-2.6,9.6,9.6,0,0,0-3-2.9,26.54,26.54,0,0,0-3.48-1.78l0,0a5.31,5.31,0,0,0-1.32-.26c-.34,0-.7.21-.7.82a2.53,2.53,0,0,0,.79,1.46,14.76,14.76,0,0,1,1,1.5q-2.1.48-5.54,1.12l.13-5.13h.14c7.59-.71,12.83-1.06,15.59-1.06a3.42,3.42,0,0,1,2.1.42,14.42,14.42,0,0,1,.51,4.55,26.67,26.67,0,0,1-1.07,8.75c-.25.51-.64,1.12-1.12,1.12a23.25,23.25,0,0,1-4.21-.73,4.47,4.47,0,0,0-1.47-.51.74.74,0,0,0-.8.81c0,.22.1.55.88,1.33a32.67,32.67,0,0,1,3.84,5.29,2.48,2.48,0,0,0,1.92,1.33l.67,0v0A6.14,6.14,0,0,0,69.32,128c1.54-1.59,2.42-4.06,2.62-7.33l.58-6.79a14,14,0,0,1,1-4.34,3,3,0,0,0,.55-1.46C74,107.2,73.42,106.3,72.16,105.31Zm-15.7-7.4a5.38,5.38,0,0,0-1.92-.48,38,38,0,0,0-4.18.43L49.27,98l.09-3.58,3-.39c1.09-.13,2.43-.25,4-.39a9.57,9.57,0,0,0,1.08-.28A35.64,35.64,0,0,1,56.46,97.91Zm1-11.67c.4,0,.8.13.8,1a25.14,25.14,0,0,1-.32,3.81,10.57,10.57,0,0,0-1-.42h0A15.1,15.1,0,0,0,54,90.18c-.07,0-.22,0-2.17.3l-2.36.43a11.47,11.47,0,0,1,.2-1.14,4.42,4.42,0,0,0,.22-1.29,1.7,1.7,0,0,0-.71-1.3C53.84,86.56,56.61,86.24,57.44,86.24ZM37.93,92.48c-.14-.67-.28-1.38-.45-2.12a13.12,13.12,0,0,1-.24-1.91q3.07-.08,6.2-.46a3.2,3.2,0,0,0,.31.42,4.86,4.86,0,0,1,.64,1.93l0,1.36c-1.95.28-3.93.53-5.91.75ZM39,99.09c-.11-1-.29-2.3-.56-3.78a11.5,11.5,0,0,0,1.63.11c.92,0,2.39-.12,4.37-.34l.06,3.56C42.75,98.83,40.91,99,39,99.09Z"/><path class="cls-4" d="M26,80.6a5.39,5.39,0,0,0,3.07,1.62,3.62,3.62,0,0,0,1.65-.6A39,39,0,0,1,34.5,80.3l.23-.08h0c.34-.11,1.19-.37,3-.9.19.57.39,1.17.59,1.79.5,2.06,1.19,3.09,2.16,3.15.77-.06,1.28-.81,1.51-2.26,0-.2-.08-.86-.58-3.75l3-.87c.41-.12,1.66-.45,1.66-1.28,0-.54-.35-1.17-2-1.17a7.78,7.78,0,0,0-1.31.17c-.53.11-1.16.22-1.88.34-.11-.62-.23-1.3-.37-2.05a15.89,15.89,0,0,1-.2-3c0-.58-.41-1.1-1.22-1.56l0,0a11,11,0,0,0-4-.91,1.35,1.35,0,0,0-1.53,1.46c0,.25.09.72.93,1.94a24,24,0,0,1,2.09,4.78c-1.68.25-3.61.53-5.78.82-1.25.12-2.13.17-2.61.17-.22,0-.76,0-1.6-.15a9.6,9.6,0,0,0-1.43-.16c-1.16,0-1.29.72-1.29,1S24.14,78.82,26,80.6Z"/><path class="cls-4" d="M72.16,105.31c-3.09-2.31-3.83-2.63-4.18-2.63a7.16,7.16,0,0,0-1.87.5,39.82,39.82,0,0,1-4.32,1.06L49.07,106l.11-4.41L52,101.3c1.25-.15,2.61-.25,4-.29.46,1.14,1,1.7,1.68,1.7,1.43,0,2.42-.84,2.94-2.5l3-9.32a7.71,7.71,0,0,1,1.59-3.28,2.06,2.06,0,0,0,.54-1.19c0-.75-.86-1.57-2.69-2.58l0,0c-3.1-1.36-3.87-1.54-4.2-1.54a17,17,0,0,0-3.46.62l.06-.08a29.26,29.26,0,0,0,3.59-6.14l1.6-.28a44.5,44.5,0,0,1,6.52-.52,10.66,10.66,0,0,0,3.12-.29c1.27-.23,1.54-.88,1.54-1.37s-.26-.86-2.14-1.75h0a7.85,7.85,0,0,0-2.8-.9,3.65,3.65,0,0,0-1,.24C65,72,63.18,72.44,60.6,73c.34-.89.7-1.78,1.07-2.64.76-1.14.86-1.56.86-1.79,0-.8-.71-1.64-2.16-2.59h0a6.44,6.44,0,0,0-3.09-1.15c-.59,0-1.34.27-1.54,1.58v.06l0,.07a9.52,9.52,0,0,1,.33,1.92,29.74,29.74,0,0,1-.6,5.06c0,.18-.09.36-.13.55-1.57.28-3,.53-4.31.74-.38,0-1.4.15-1.4.85,0,.43.45.83,1.49,1.33a6.25,6.25,0,0,0,2.35.84,2.49,2.49,0,0,0,.82-.21l.16,0c-.48,1.81-1.07,3.81-1.74,6A90.87,90.87,0,0,1,35.31,86c-.22-.09-.45-.19-.71-.27a7.36,7.36,0,0,0-2.67-.45c-.78,0-1.23.51-1.23,1.39,0,.26.2.46.72.76a5.15,5.15,0,0,1,1.84,2.72,25.69,25.69,0,0,1,1.11,5.2l.89,4.77a5,5,0,0,0,1,2.67c.44.71.9,1.06,1.4,1.06s.85-.32,1.14-.93a3.56,3.56,0,0,0,.26-.74,7,7,0,0,0,1.19.09c.82,0,2-.08,3.5-.23l.87-.08.08,4.59q-8,1.06-12.73,1.66l0-.8c-.09-.75-.77-1.38-2.08-1.91h0a11.89,11.89,0,0,0-2.69-.63c-.44,0-1.16.19-1.16,1.44a2,2,0,0,0,.36,1.1,13,13,0,0,1,.67,1.41c-.86.09-1.39.14-1.57.14a7.67,7.67,0,0,1-1.45-.23h0a9.87,9.87,0,0,0-1.49-.17,1,1,0,0,0-1.05,1.06c0,.56.51,1.16,1.65,1.9a7.83,7.83,0,0,0,3.47.92,6.4,6.4,0,0,0,1.31-.17,53.14,53.14,0,0,1,.53,7.36c0,1,0,2-.08,3.11a11.3,11.3,0,0,0-.18,1.42,4.64,4.64,0,0,0,.74,2.15c.62,1.28,1.17,1.88,1.73,1.88s1.12-.46,1.43-1.32a6.14,6.14,0,0,0,.75-2.65l-.65-12.9c3.71-.71,7.94-1.37,12.63-2l.08,5.35-3,.52c-1.42.15-2.41.23-2.94.23-.21,0-.75-.06-1.59-.16a9.74,9.74,0,0,0-1.43-.16c-1.17,0-1.29.72-1.29,1s.24,1,2.13,2.78a5.4,5.4,0,0,0,3.08,1.62,4,4,0,0,0,1.83-.68,42.68,42.68,0,0,1,4.18-1.53l.23-.07h0c.58-.2,2.75-.87,9.85-3,.09.16.17.33.27.49a13.4,13.4,0,0,0,2.31,3.59c.45.48.77.69,1.06.69a2.06,2.06,0,0,0,1.78-1.11,6.48,6.48,0,0,0,.51-2.34,5.93,5.93,0,0,0-.57-2.6,9.6,9.6,0,0,0-3-2.9,26.54,26.54,0,0,0-3.48-1.78l0,0a5.31,5.31,0,0,0-1.32-.26c-.34,0-.7.21-.7.82a2.53,2.53,0,0,0,.79,1.46,14.76,14.76,0,0,1,1,1.5q-2.1.48-5.54,1.12l.13-5.13h.14c7.59-.71,12.83-1.06,15.59-1.06a3.42,3.42,0,0,1,2.1.42,14.42,14.42,0,0,1,.51,4.55,26.67,26.67,0,0,1-1.07,8.75c-.25.51-.64,1.12-1.12,1.12a23.25,23.25,0,0,1-4.21-.73,4.47,4.47,0,0,0-1.47-.51.74.74,0,0,0-.8.81c0,.22.1.55.88,1.33a32.67,32.67,0,0,1,3.84,5.29,2.48,2.48,0,0,0,1.92,1.33l.67,0v0A6.14,6.14,0,0,0,69.32,128c1.54-1.59,2.42-4.06,2.62-7.33l.58-6.79a14,14,0,0,1,1-4.34,3,3,0,0,0,.55-1.46C74,107.2,73.42,106.3,72.16,105.31Zm-15.7-7.4a5.38,5.38,0,0,0-1.92-.48,38,38,0,0,0-4.18.43L49.27,98l.09-3.58,3-.39c1.09-.13,2.43-.25,4-.39a9.57,9.57,0,0,0,1.08-.28A35.64,35.64,0,0,1,56.46,97.91Zm1-11.67c.4,0,.8.13.8,1a25.14,25.14,0,0,1-.32,3.81,10.57,10.57,0,0,0-1-.42h0A15.1,15.1,0,0,0,54,90.18c-.07,0-.22,0-2.17.3l-2.36.43a11.47,11.47,0,0,1,.2-1.14,4.42,4.42,0,0,0,.22-1.29,1.7,1.7,0,0,0-.71-1.3C53.84,86.56,56.61,86.24,57.44,86.24ZM37.93,92.48c-.14-.67-.28-1.38-.45-2.12a13.12,13.12,0,0,1-.24-1.91q3.07-.08,6.2-.46a3.2,3.2,0,0,0,.31.42,4.86,4.86,0,0,1,.64,1.93l0,1.36c-1.95.28-3.93.53-5.91.75ZM39,99.09c-.11-1-.29-2.3-.56-3.78a11.5,11.5,0,0,0,1.63.11c.92,0,2.39-.12,4.37-.34l.06,3.56C42.75,98.83,40.91,99,39,99.09Z"/><path class="cls-5" d="M71.87,19.9l0,0c-3.06-2-3.85-2.22-4.2-2.22A16.42,16.42,0,0,0,65,18c-2.63.49-5.39.92-8.19,1.27C45,20.4,35.31,21.26,28,21.83c-.23-.1-.48-.2-.76-.3a8.18,8.18,0,0,0-2.91-.48c-.5,0-1.32.19-1.32,1.49a2.1,2.1,0,0,0,.7,1.2,13.63,13.63,0,0,1,2.05,5.7A92.89,92.89,0,0,1,27,40.1l1,9.76A5.41,5.41,0,0,0,29,52.77c.47.78,1,1.16,1.51,1.16s.91-.35,1.22-1A4.52,4.52,0,0,0,32.12,51a6,6,0,0,0,1.7.26c.15,0,.51,0,1.85-.18,5-.52,9.08-.87,12.14-1,4.26-.27,8.18-.45,11.71-.54a27.73,27.73,0,0,1,2.64,4.65,1.87,1.87,0,0,0,1.59,1.07h.67v0c1-.21,2-1.17,3-3a27.19,27.19,0,0,0,2.67-10.39h0c.23-.78.55-3.53,1.66-13.29A11.09,11.09,0,0,1,73,24.43a3.29,3.29,0,0,0,.78-2C73.78,21.73,73.17,20.93,71.87,19.9ZM62.3,46l-.06,0A8.92,8.92,0,0,0,60,45.26c-.62,0-2,.15-4.35.46-6.17.71-14.09,1.47-23.6,2.28-.19-4.24-.75-10.62-1.68-19-.15-1.31-.23-2.6-.26-3.84,1-.07,2.08-.2,3.3-.4l5.86-.63A10.5,10.5,0,0,1,39.65,27a28.76,28.76,0,0,1-.36,3.71,27.12,27.12,0,0,1-.91,3.86A16,16,0,0,1,37,37.73a18.35,18.35,0,0,1-2.43,2.92,1,1,0,0,0-.5.71c0,.18.09.61,1,.61h0a6.71,6.71,0,0,0,1.18-.41,8.79,8.79,0,0,0,4-3A17.69,17.69,0,0,0,43,33.48a50.6,50.6,0,0,0,1.43-6.11,15.43,15.43,0,0,1,.41-1.74,1.71,1.71,0,0,0,.25-.75,1.77,1.77,0,0,0-.8-1.26l4.91-.46c0,.14,0,.3,0,.46a12.9,12.9,0,0,1,.19,2.47v4.25A8.27,8.27,0,0,1,48.84,34l0,.16A5.33,5.33,0,0,0,53,39.65a15.61,15.61,0,0,0,5,.77,10.14,10.14,0,0,0,4.39-.79,1.57,1.57,0,0,0,1.25-1.54,2.4,2.4,0,0,0-.78-1.78l-.09-.06a4.28,4.28,0,0,0-1.63-.59,15.19,15.19,0,0,0-2.66.33,17.32,17.32,0,0,1-1.89.21c-2.5,0-3.71-.88-3.71-2.67a53,53,0,0,1,.64-5.74,9,9,0,0,1,.76-3.35,2,2,0,0,0,.37-.88,1.55,1.55,0,0,0-.26-.86c4.12-.35,7.35-.53,9.6-.53a4.51,4.51,0,0,1,2.16.34c.07,0,.31.27.31,1.34a97.08,97.08,0,0,1-2.07,19.84,8.18,8.18,0,0,1-1,3C63.05,46.45,62.7,46.21,62.3,46Z"/></g></g></svg>
