<svg xmlns="http://www.w3.org/2000/svg" xmlns:xlink="http://www.w3.org/1999/xlink" viewBox="0 0 101.39 138"><defs><style>.cls-1,.cls-4,.cls-7{fill:none;}.cls-2,.cls-3{fill:#722529;}.cls-3,.cls-4{stroke:#722529;}.cls-3,.cls-6{stroke-width:0.5px;}.cls-4,.cls-7{stroke-width:0.75px;}.cls-5,.cls-6{fill:#010101;}.cls-6,.cls-7{stroke:#010101;}</style><symbol id="Болванка-новая" data-name="Болванка-новая" viewBox="0 0 101.39 138"><rect class="cls-1" width="101.39" height="138" rx="6.76"/></symbol></defs><g id="Слой_2" data-name="Слой 2"><g id="Слой_1-2" data-name="Слой 1"><use width="101.39" height="138" xlink:href="#Болванка-новая"/><path class="cls-2" d="M72.16,105.31c-3.09-2.31-3.83-2.63-4.18-2.63a7,7,0,0,0-1.87.5,38.71,38.71,0,0,1-4.32,1.06L49.07,106l.11-4.41L52,101.3c1.25-.15,2.61-.25,4-.29.46,1.14,1,1.7,1.68,1.7,1.43,0,2.42-.84,2.93-2.5l3-9.32a7.77,7.77,0,0,1,1.59-3.28,2.06,2.06,0,0,0,.54-1.19c0-.75-.86-1.57-2.69-2.58l0,0c-3.14-1.38-3.9-1.54-4.2-1.54a17.54,17.54,0,0,0-3.46.61l.06-.07a29,29,0,0,0,3.59-6.14l1.6-.28a44.5,44.5,0,0,1,6.52-.52,10.66,10.66,0,0,0,3.12-.29c1.27-.23,1.54-.88,1.54-1.37s-.26-.86-2.14-1.75h0a8,8,0,0,0-2.8-.89,3.73,3.73,0,0,0-1,.24c-.87.21-2.63.62-5.27,1.21.35-.89.71-1.78,1.08-2.64.76-1.14.86-1.56.86-1.79,0-.8-.71-1.64-2.16-2.59h0a6.3,6.3,0,0,0-3.09-1.15c-.59,0-1.34.27-1.54,1.58v.06l0,.07a9.52,9.52,0,0,1,.33,1.92,29.74,29.74,0,0,1-.6,5.06c0,.18-.09.36-.13.55-1.57.28-3,.53-4.31.74-.38,0-1.4.15-1.4.85,0,.43.45.83,1.49,1.33a6.2,6.2,0,0,0,2.35.84,2.44,2.44,0,0,0,.82-.21l.16,0c-.48,1.81-1.07,3.81-1.74,6A90.87,90.87,0,0,1,35.31,86c-.22-.09-.45-.19-.71-.28a7.59,7.59,0,0,0-2.67-.44c-.78,0-1.23.51-1.23,1.39,0,.26.2.46.72.76a5.15,5.15,0,0,1,1.84,2.72,25.69,25.69,0,0,1,1.11,5.2l.89,4.77a5,5,0,0,0,1,2.67c.44.71.9,1.06,1.4,1.06s.85-.32,1.14-.93a3.78,3.78,0,0,0,.26-.74,7,7,0,0,0,1.19.09c.82,0,2-.08,3.5-.23l.87-.08.08,4.59q-8,1.06-12.73,1.66l0-.8c-.09-.75-.77-1.38-2.08-1.91h0a11.89,11.89,0,0,0-2.69-.63c-.44,0-1.16.19-1.16,1.44a2,2,0,0,0,.36,1.1,13.75,13.75,0,0,1,.67,1.4c-.86.1-1.39.15-1.57.15a7.67,7.67,0,0,1-1.45-.23h0a9.87,9.87,0,0,0-1.49-.17,1,1,0,0,0-1.05,1.06c0,.56.51,1.16,1.65,1.9a7.83,7.83,0,0,0,3.47.92,6.4,6.4,0,0,0,1.31-.17,53.11,53.11,0,0,1,.53,7.35c0,1,0,2-.08,3.12a9.76,9.76,0,0,0-.18,1.42,4.64,4.64,0,0,0,.74,2.15c.62,1.28,1.17,1.88,1.73,1.88s1.12-.46,1.43-1.32a6.21,6.21,0,0,0,.75-2.65l-.65-12.9c3.71-.71,7.94-1.37,12.63-2l.08,5.35-3,.52c-1.42.15-2.41.23-2.94.23-.21,0-.75-.06-1.59-.16a9.74,9.74,0,0,0-1.43-.16c-1.17,0-1.29.72-1.29,1s.24,1,2.13,2.78a5.4,5.4,0,0,0,3.08,1.62,4,4,0,0,0,1.82-.68,43.91,43.91,0,0,1,4.19-1.53l.23-.07h0c.58-.2,2.75-.87,9.85-3,.09.16.17.33.27.49a13.66,13.66,0,0,0,2.31,3.59c.45.48.77.69,1.06.69a2.06,2.06,0,0,0,1.78-1.11,6.48,6.48,0,0,0,.51-2.34,5.9,5.9,0,0,0-.57-2.6,9.6,9.6,0,0,0-3-2.9,29.25,29.25,0,0,0-3.48-1.78l0,0a5.31,5.31,0,0,0-1.32-.26c-.34,0-.7.21-.7.82a2.53,2.53,0,0,0,.79,1.46,14.76,14.76,0,0,1,1,1.5q-2.1.48-5.54,1.12l.13-5.13h.14c7.58-.71,12.82-1.06,15.59-1.06a3.42,3.42,0,0,1,2.1.42,14.42,14.42,0,0,1,.51,4.55,26.67,26.67,0,0,1-1.07,8.75c-.25.51-.64,1.12-1.12,1.12a23.25,23.25,0,0,1-4.21-.73,4.47,4.47,0,0,0-1.47-.51.74.74,0,0,0-.8.81c0,.22.1.55.88,1.33a32.67,32.67,0,0,1,3.84,5.29,2.48,2.48,0,0,0,1.92,1.33l.67,0v0A6.14,6.14,0,0,0,69.32,128c1.54-1.59,2.42-4.06,2.62-7.33l.58-6.79a14,14,0,0,1,1-4.34,3,3,0,0,0,.55-1.46C74,107.2,73.42,106.3,72.16,105.31ZM57.92,91.09a10.57,10.57,0,0,0-1-.42h0A15.23,15.23,0,0,0,54,90.18c-.11,0-.45,0-2.17.3l-2.36.43a11.47,11.47,0,0,1,.2-1.14,4.37,4.37,0,0,0,.22-1.29,1.7,1.7,0,0,0-.71-1.3c4.65-.62,7.41-.94,8.24-.94.4,0,.8.13.8,1A25.14,25.14,0,0,1,57.92,91.09Zm-13.51.61c-1.95.28-3.93.53-5.91.75l-.57,0c-.13-.67-.28-1.38-.45-2.12a13.08,13.08,0,0,1-.24-1.92,59.33,59.33,0,0,0,6.2-.45,3.2,3.2,0,0,0,.31.42,4.86,4.86,0,0,1,.64,1.93ZM40.1,95.42c.92,0,2.39-.12,4.37-.34l.06,3.56c-1.78.19-3.62.34-5.5.45-.1-1-.29-2.3-.55-3.78A11.25,11.25,0,0,0,40.1,95.42Zm9.26-1,3-.39q1.63-.19,4-.39a9.57,9.57,0,0,0,1.08-.28,35,35,0,0,1-1.06,4.51,5.55,5.55,0,0,0-1.92-.47,38.42,38.42,0,0,0-4.18.43L49.27,98Z"/><path class="cls-2" d="M26,80.6a5.39,5.39,0,0,0,3.07,1.62,3.62,3.62,0,0,0,1.65-.6c1.1-.46,2.36-.9,3.74-1.32l.23-.08h0c.34-.11,1.19-.37,3-.9.19.57.39,1.17.59,1.79.5,2.06,1.18,3.09,2.16,3.15.77-.06,1.28-.81,1.51-2.26,0-.2-.08-.86-.58-3.75l3-.87c.71-.2,1.66-.54,1.66-1.28,0-.54-.35-1.17-2-1.17a7.66,7.66,0,0,0-1.31.17c-.53.11-1.16.22-1.88.34-.11-.62-.23-1.3-.37-2.05a15.89,15.89,0,0,1-.2-3c0-.58-.41-1.1-1.22-1.56l0,0a11.11,11.11,0,0,0-4-.92,1.36,1.36,0,0,0-1.53,1.47c0,.25.09.72.93,1.94a24,24,0,0,1,2.09,4.78c-1.68.25-3.61.53-5.78.82-1.25.12-2.13.17-2.61.17-.22,0-.76,0-1.6-.15a9.6,9.6,0,0,0-1.43-.16c-1.17,0-1.29.72-1.29,1S24.14,78.82,26,80.6Z"/><path class="cls-3" d="M72.16,105.31c-3.09-2.31-3.83-2.63-4.18-2.63a7,7,0,0,0-1.87.5,38.71,38.71,0,0,1-4.32,1.06L49.07,106l.11-4.41L52,101.3c1.25-.15,2.61-.25,4-.29.46,1.14,1,1.7,1.68,1.7,1.43,0,2.42-.84,2.93-2.5l3-9.32a7.77,7.77,0,0,1,1.59-3.28,2.06,2.06,0,0,0,.54-1.19c0-.75-.86-1.57-2.69-2.58l0,0c-3.14-1.38-3.9-1.54-4.2-1.54a17.54,17.54,0,0,0-3.46.61l.06-.07a29,29,0,0,0,3.59-6.14l1.6-.28a44.5,44.5,0,0,1,6.52-.52,10.66,10.66,0,0,0,3.12-.29c1.27-.23,1.54-.88,1.54-1.37s-.26-.86-2.14-1.75h0a8,8,0,0,0-2.8-.89,3.73,3.73,0,0,0-1,.24c-.87.21-2.63.62-5.27,1.21.35-.89.71-1.78,1.08-2.64.76-1.14.86-1.56.86-1.79,0-.8-.71-1.64-2.16-2.59h0a6.3,6.3,0,0,0-3.09-1.15c-.59,0-1.34.27-1.54,1.58v.06l0,.07a9.52,9.52,0,0,1,.33,1.92,29.74,29.74,0,0,1-.6,5.06c0,.18-.09.36-.13.55-1.57.28-3,.53-4.31.74-.38,0-1.4.15-1.4.85,0,.43.45.83,1.49,1.33a6.2,6.2,0,0,0,2.35.84,2.44,2.44,0,0,0,.82-.21l.16,0c-.48,1.81-1.07,3.81-1.74,6A90.87,90.87,0,0,1,35.31,86c-.22-.09-.45-.19-.71-.28a7.59,7.59,0,0,0-2.67-.44c-.78,0-1.23.51-1.23,1.39,0,.26.2.46.72.76a5.15,5.15,0,0,1,1.84,2.72,25.69,25.69,0,0,1,1.11,5.2l.89,4.77a5,5,0,0,0,1,2.67c.44.71.9,1.06,1.4,1.06s.85-.32,1.14-.93a3.78,3.78,0,0,0,.26-.74,7,7,0,0,0,1.19.09c.82,0,2-.08,3.5-.23l.87-.08.08,4.59q-8,1.06-12.73,1.66l0-.8c-.09-.75-.77-1.38-2.08-1.91h0a11.89,11.89,0,0,0-2.69-.63c-.44,0-1.16.19-1.16,1.44a2,2,0,0,0,.36,1.1,13.75,13.75,0,0,1,.67,1.4c-.86.1-1.39.15-1.57.15a7.67,7.67,0,0,1-1.45-.23h0a9.87,9.87,0,0,0-1.49-.17,1,1,0,0,0-1.05,1.06c0,.56.51,1.16,1.65,1.9a7.83,7.83,0,0,0,3.47.92,6.4,6.4,0,0,0,1.31-.17,53.11,53.11,0,0,1,.53,7.35c0,1,0,2-.08,3.12a9.76,9.76,0,0,0-.18,1.42,4.64,4.64,0,0,0,.74,2.15c.62,1.28,1.17,1.88,1.73,1.88s1.12-.46,1.43-1.32a6.21,6.21,0,0,0,.75-2.65l-.65-12.9c3.71-.71,7.94-1.37,12.63-2l.08,5.35-3,.52c-1.42.15-2.41.23-2.94.23-.21,0-.75-.06-1.59-.16a9.74,9.74,0,0,0-1.43-.16c-1.17,0-1.29.72-1.29,1s.24,1,2.13,2.78a5.4,5.4,0,0,0,3.08,1.62,4,4,0,0,0,1.82-.68,43.91,43.91,0,0,1,4.19-1.53l.23-.07h0c.58-.2,2.75-.87,9.85-3,.09.16.17.33.27.49a13.66,13.66,0,0,0,2.31,3.59c.45.48.77.69,1.06.69a2.06,2.06,0,0,0,1.78-1.11,6.48,6.48,0,0,0,.51-2.34,5.9,5.9,0,0,0-.57-2.6,9.6,9.6,0,0,0-3-2.9,29.25,29.25,0,0,0-3.48-1.78l0,0a5.31,5.31,0,0,0-1.32-.26c-.34,0-.7.21-.7.82a2.53,2.53,0,0,0,.79,1.46,14.76,14.76,0,0,1,1,1.5q-2.1.48-5.54,1.12l.13-5.13h.14c7.58-.71,12.82-1.06,15.59-1.06a3.42,3.42,0,0,1,2.1.42,14.42,14.42,0,0,1,.51,4.55,26.67,26.67,0,0,1-1.07,8.75c-.25.51-.64,1.12-1.12,1.12a23.25,23.25,0,0,1-4.21-.73,4.47,4.47,0,0,0-1.47-.51.74.74,0,0,0-.8.81c0,.22.1.55.88,1.33a32.67,32.67,0,0,1,3.84,5.29,2.48,2.48,0,0,0,1.92,1.33l.67,0v0A6.14,6.14,0,0,0,69.32,128c1.54-1.59,2.42-4.06,2.62-7.33l.58-6.79a14,14,0,0,1,1-4.34,3,3,0,0,0,.55-1.46C74,107.2,73.42,106.3,72.16,105.31ZM57.92,91.09a10.57,10.57,0,0,0-1-.42h0A15.23,15.23,0,0,0,54,90.18c-.11,0-.45,0-2.17.3l-2.36.43a11.47,11.47,0,0,1,.2-1.14,4.37,4.37,0,0,0,.22-1.29,1.7,1.7,0,0,0-.71-1.3c4.65-.62,7.41-.94,8.24-.94.4,0,.8.13.8,1A25.14,25.14,0,0,1,57.92,91.09Zm-13.51.61c-1.95.28-3.93.53-5.91.75l-.57,0c-.13-.67-.28-1.38-.45-2.12a13.08,13.08,0,0,1-.24-1.92,59.33,59.33,0,0,0,6.2-.45,3.2,3.2,0,0,0,.31.42,4.86,4.86,0,0,1,.64,1.93ZM40.1,95.42c.92,0,2.39-.12,4.37-.34l.06,3.56c-1.78.19-3.62.34-5.5.45-.1-1-.29-2.3-.55-3.78A11.25,11.25,0,0,0,40.1,95.42Zm9.26-1,3-.39q1.63-.19,4-.39a9.57,9.57,0,0,0,1.08-.28,35,35,0,0,1-1.06,4.51,5.55,5.55,0,0,0-1.92-.47,38.42,38.42,0,0,0-4.18.43L49.27,98Z"/><path class="cls-3" d="M26,80.6a5.39,5.39,0,0,0,3.07,1.62,3.62,3.62,0,0,0,1.65-.6c1.1-.46,2.36-.9,3.74-1.32l.23-.08h0c.34-.11,1.19-.37,3-.9.19.57.39,1.17.59,1.79.5,2.06,1.18,3.09,2.16,3.15.77-.06,1.28-.81,1.51-2.26,0-.2-.08-.86-.58-3.75l3-.87c.71-.2,1.66-.54,1.66-1.28,0-.54-.35-1.17-2-1.17a7.66,7.66,0,0,0-1.31.17c-.53.11-1.16.22-1.88.34-.11-.62-.23-1.3-.37-2.05a15.89,15.89,0,0,1-.2-3c0-.58-.41-1.1-1.22-1.56l0,0a11.11,11.11,0,0,0-4-.92,1.36,1.36,0,0,0-1.53,1.47c0,.25.09.72.93,1.94a24,24,0,0,1,2.09,4.78c-1.68.25-3.61.53-5.78.82-1.25.12-2.13.17-2.61.17-.22,0-.76,0-1.6-.15a9.6,9.6,0,0,0-1.43-.16c-1.17,0-1.29.72-1.29,1S24.14,78.82,26,80.6Z"/><path class="cls-4" d="M72.16,105.31c-3.09-2.31-3.83-2.63-4.18-2.63a7,7,0,0,0-1.87.5,38.71,38.71,0,0,1-4.32,1.06L49.07,106l.11-4.41L52,101.3c1.25-.15,2.61-.25,4-.29.46,1.14,1,1.7,1.68,1.7,1.43,0,2.42-.84,2.93-2.5l3-9.32a7.77,7.77,0,0,1,1.59-3.28,2.06,2.06,0,0,0,.54-1.19c0-.75-.86-1.57-2.69-2.58l0,0c-3.14-1.38-3.9-1.54-4.2-1.54a17.54,17.54,0,0,0-3.46.61l.06-.07a29,29,0,0,0,3.59-6.14l1.6-.28a44.5,44.5,0,0,1,6.52-.52,10.66,10.66,0,0,0,3.12-.29c1.27-.23,1.54-.88,1.54-1.37s-.26-.86-2.14-1.75h0a8,8,0,0,0-2.8-.89,3.73,3.73,0,0,0-1,.24c-.87.21-2.63.62-5.27,1.21.35-.89.71-1.78,1.08-2.64.76-1.14.86-1.56.86-1.79,0-.8-.71-1.64-2.16-2.59h0a6.3,6.3,0,0,0-3.09-1.15c-.59,0-1.34.27-1.54,1.58v.06l0,.07a9.52,9.52,0,0,1,.33,1.92,29.74,29.74,0,0,1-.6,5.06c0,.18-.09.36-.13.55-1.57.28-3,.53-4.31.74-.38,0-1.4.15-1.4.85,0,.43.45.83,1.49,1.33a6.2,6.2,0,0,0,2.35.84,2.44,2.44,0,0,0,.82-.21l.16,0c-.48,1.81-1.07,3.81-1.74,6A90.87,90.87,0,0,1,35.31,86c-.22-.09-.45-.19-.71-.28a7.59,7.59,0,0,0-2.67-.44c-.78,0-1.23.51-1.23,1.39,0,.26.2.46.72.76a5.15,5.15,0,0,1,1.84,2.72,25.69,25.69,0,0,1,1.11,5.2l.89,4.77a5,5,0,0,0,1,2.67c.44.71.9,1.06,1.4,1.06s.85-.32,1.14-.93a3.78,3.78,0,0,0,.26-.74,7,7,0,0,0,1.19.09c.82,0,2-.08,3.5-.23l.87-.08.08,4.59q-8,1.06-12.73,1.66l0-.8c-.09-.75-.77-1.38-2.08-1.91h0a11.89,11.89,0,0,0-2.69-.63c-.44,0-1.16.19-1.16,1.44a2,2,0,0,0,.36,1.1,13.75,13.75,0,0,1,.67,1.4c-.86.1-1.39.15-1.57.15a7.67,7.67,0,0,1-1.45-.23h0a9.87,9.87,0,0,0-1.49-.17,1,1,0,0,0-1.05,1.06c0,.56.51,1.16,1.65,1.9a7.83,7.83,0,0,0,3.47.92,6.4,6.4,0,0,0,1.31-.17,53.11,53.11,0,0,1,.53,7.35c0,1,0,2-.08,3.12a9.76,9.76,0,0,0-.18,1.42,4.64,4.64,0,0,0,.74,2.15c.62,1.28,1.17,1.88,1.73,1.88s1.12-.46,1.43-1.32a6.21,6.21,0,0,0,.75-2.65l-.65-12.9c3.71-.71,7.94-1.37,12.63-2l.08,5.35-3,.52c-1.42.15-2.41.23-2.94.23-.21,0-.75-.06-1.59-.16a9.74,9.74,0,0,0-1.43-.16c-1.17,0-1.29.72-1.29,1s.24,1,2.13,2.78a5.4,5.4,0,0,0,3.08,1.62,4,4,0,0,0,1.82-.68,43.91,43.91,0,0,1,4.19-1.53l.23-.07h0c.58-.2,2.75-.87,9.85-3,.09.16.17.33.27.49a13.66,13.66,0,0,0,2.31,3.59c.45.48.77.69,1.06.69a2.06,2.06,0,0,0,1.78-1.11,6.48,6.48,0,0,0,.51-2.34,5.9,5.9,0,0,0-.57-2.6,9.6,9.6,0,0,0-3-2.9,29.25,29.25,0,0,0-3.48-1.78l0,0a5.31,5.31,0,0,0-1.32-.26c-.34,0-.7.21-.7.82a2.53,2.53,0,0,0,.79,1.46,14.76,14.76,0,0,1,1,1.5q-2.1.48-5.54,1.12l.13-5.13h.14c7.58-.71,12.82-1.06,15.59-1.06a3.42,3.42,0,0,1,2.1.42,14.42,14.42,0,0,1,.51,4.55,26.67,26.67,0,0,1-1.07,8.75c-.25.51-.64,1.12-1.12,1.12a23.25,23.25,0,0,1-4.21-.73,4.47,4.47,0,0,0-1.47-.51.74.74,0,0,0-.8.81c0,.22.1.55.88,1.33a32.67,32.67,0,0,1,3.84,5.29,2.48,2.48,0,0,0,1.92,1.33l.67,0v0A6.14,6.14,0,0,0,69.32,128c1.54-1.59,2.42-4.06,2.62-7.33l.58-6.79a14,14,0,0,1,1-4.34,3,3,0,0,0,.55-1.46C74,107.2,73.42,106.3,72.16,105.31ZM57.92,91.09a10.57,10.57,0,0,0-1-.42h0A15.23,15.23,0,0,0,54,90.18c-.11,0-.45,0-2.17.3l-2.36.43a11.47,11.47,0,0,1,.2-1.14,4.37,4.37,0,0,0,.22-1.29,1.7,1.7,0,0,0-.71-1.3c4.65-.62,7.41-.94,8.24-.94.4,0,.8.13.8,1A25.14,25.14,0,0,1,57.92,91.09Zm-13.51.61c-1.95.28-3.93.53-5.91.75l-.57,0c-.13-.67-.28-1.38-.45-2.12a13.08,13.08,0,0,1-.24-1.92,59.33,59.33,0,0,0,6.2-.45,3.2,3.2,0,0,0,.31.42,4.86,4.86,0,0,1,.64,1.93ZM40.1,95.42c.92,0,2.39-.12,4.37-.34l.06,3.56c-1.78.19-3.62.34-5.5.45-.1-1-.29-2.3-.55-3.78A11.25,11.25,0,0,0,40.1,95.42Zm9.26-1,3-.39q1.63-.19,4-.39a9.57,9.57,0,0,0,1.08-.28,35,35,0,0,1-1.06,4.51,5.55,5.55,0,0,0-1.92-.47,38.42,38.42,0,0,0-4.18.43L49.27,98Z"/><path class="cls-4" d="M26,80.6a5.39,5.39,0,0,0,3.07,1.62,3.62,3.62,0,0,0,1.65-.6c1.1-.46,2.36-.9,3.74-1.32l.23-.08h0c.34-.11,1.19-.37,3-.9.19.57.39,1.17.59,1.79.5,2.06,1.18,3.09,2.16,3.15.77-.06,1.28-.81,1.51-2.26,0-.2-.08-.86-.58-3.75l3-.87c.71-.2,1.66-.54,1.66-1.28,0-.54-.35-1.17-2-1.17a7.66,7.66,0,0,0-1.31.17c-.53.11-1.16.22-1.88.34-.11-.62-.23-1.3-.37-2.05a15.89,15.89,0,0,1-.2-3c0-.58-.41-1.1-1.22-1.56l0,0a11.11,11.11,0,0,0-4-.92,1.36,1.36,0,0,0-1.53,1.47c0,.25.09.72.93,1.94a24,24,0,0,1,2.09,4.78c-1.68.25-3.61.53-5.78.82-1.25.12-2.13.17-2.61.17-.22,0-.76,0-1.6-.15a9.6,9.6,0,0,0-1.43-.16c-1.17,0-1.29.72-1.29,1S24.14,78.82,26,80.6Z"/><path class="cls-5" d="M63.35,43.29a54.69,54.69,0,0,0-6.82-4.06l0,0A9.45,9.45,0,0,0,54,38.62a.65.65,0,0,0-.65.75c0,.64.55,1.48,1.71,2.62a71.75,71.75,0,0,1,6.05,8.55c2,3.41,3.77,5.69,5.13,6.76.89.82,1.54,1.21,2,1.21a1.81,1.81,0,0,0,1.57-1,5.56,5.56,0,0,0,.45-2,14.72,14.72,0,0,0-1.08-5.72C68.24,47.81,66.28,45.63,63.35,43.29Z"/><path class="cls-5" d="M41.76,38.57h0a13.09,13.09,0,0,0-3.47-1c-1.14,0-1.31.55-1.31.88a6.43,6.43,0,0,1-.62,3.28,38.94,38.94,0,0,1-5.82,8.47A58.1,58.1,0,0,1,24,57.12l-.11.1v.15c0,.26.12.88,1.19.88a4,4,0,0,0,1.94-.83,16,16,0,0,0,4.71-3,47.43,47.43,0,0,0,8-7.43,18.73,18.73,0,0,1,3.82-3.85,2,2,0,0,0,1-1.66C44.57,40.3,43.62,39.33,41.76,38.57Z"/><path class="cls-5" d="M73.85,24.44h0A11.53,11.53,0,0,0,70,23c-.1,0-.37,0-6.66,1-4.57.42-8.1.75-10.57,1L52,25.1a4.08,4.08,0,0,0,.52-2.2,11.51,11.51,0,0,0-.87-4.31A10.13,10.13,0,0,0,48,14.72a8.79,8.79,0,0,0-4.68-1.82h0c-.89.09-1,.63-1,.86,0,1,1,3.35,2.91,7.23a17.61,17.61,0,0,0,2.86,4.52c-3.25.35-7.64.86-13.14,1.53A80.09,80.09,0,0,1,24,28c-1.5.12-1.81.79-1.81,1.33s.27,1,2.25,2.19c1.63,1.12,2.82,1.67,3.65,1.67a14.73,14.73,0,0,0,3.44-.95,106.66,106.66,0,0,1,16.31-2.65,148.51,148.51,0,0,1,16.32-1.1c2,0,4,0,5.69.15s3.14.14,4.28.14c1.85,0,2.23-.79,2.23-1.46C76.36,26.42,75.54,25.47,73.85,24.44Z"/><path class="cls-6" d="M63.35,43.29a54.69,54.69,0,0,0-6.82-4.06l0,0A9.45,9.45,0,0,0,54,38.62a.65.65,0,0,0-.65.75c0,.64.55,1.48,1.71,2.62a71.75,71.75,0,0,1,6.05,8.55c2,3.41,3.77,5.69,5.13,6.76.89.82,1.54,1.21,2,1.21a1.81,1.81,0,0,0,1.57-1,5.56,5.56,0,0,0,.45-2,14.72,14.72,0,0,0-1.08-5.72C68.24,47.81,66.28,45.63,63.35,43.29Z"/><path class="cls-6" d="M41.76,38.57h0a13.09,13.09,0,0,0-3.47-1c-1.14,0-1.31.55-1.31.88a6.43,6.43,0,0,1-.62,3.28,38.94,38.94,0,0,1-5.82,8.47A58.1,58.1,0,0,1,24,57.12l-.11.1v.15c0,.26.12.88,1.19.88a4,4,0,0,0,1.94-.83,16,16,0,0,0,4.71-3,47.43,47.43,0,0,0,8-7.43,18.73,18.73,0,0,1,3.82-3.85,2,2,0,0,0,1-1.66C44.57,40.3,43.62,39.33,41.76,38.57Z"/><path class="cls-6" d="M73.85,24.44h0A11.53,11.53,0,0,0,70,23c-.1,0-.37,0-6.66,1-4.57.42-8.1.75-10.57,1L52,25.1a4.08,4.08,0,0,0,.52-2.2,11.51,11.51,0,0,0-.87-4.31A10.13,10.13,0,0,0,48,14.72a8.79,8.79,0,0,0-4.68-1.82h0c-.89.09-1,.63-1,.86,0,1,1,3.35,2.91,7.23a17.61,17.61,0,0,0,2.86,4.52c-3.25.35-7.64.86-13.14,1.53A80.09,80.09,0,0,1,24,28c-1.5.12-1.81.79-1.81,1.33s.27,1,2.25,2.19c1.63,1.12,2.82,1.67,3.65,1.67a14.73,14.73,0,0,0,3.44-.95,106.66,106.66,0,0,1,16.31-2.65,148.51,148.51,0,0,1,16.32-1.1c2,0,4,0,5.69.15s3.14.14,4.28.14c1.85,0,2.23-.79,2.23-1.46C76.36,26.42,75.54,25.47,73.85,24.44Z"/><path class="cls-7" d="M63.35,43.29a54.69,54.69,0,0,0-6.82-4.06l0,0A9.45,9.45,0,0,0,54,38.62a.65.65,0,0,0-.65.75c0,.64.55,1.48,1.71,2.62a71.75,71.75,0,0,1,6.05,8.55c2,3.41,3.77,5.69,5.13,6.76.89.82,1.54,1.21,2,1.21a1.81,1.81,0,0,0,1.57-1,5.56,5.56,0,0,0,.45-2,14.72,14.72,0,0,0-1.08-5.72C68.24,47.81,66.28,45.63,63.35,43.29Z"/><path class="cls-7" d="M41.76,38.57h0a13.09,13.09,0,0,0-3.47-1c-1.14,0-1.31.55-1.31.88a6.43,6.43,0,0,1-.62,3.28,38.94,38.94,0,0,1-5.82,8.47A58.1,58.1,0,0,1,24,57.12l-.11.1v.15c0,.26.12.88,1.19.88a4,4,0,0,0,1.94-.83,16,16,0,0,0,4.71-3,47.43,47.43,0,0,0,8-7.43,18.73,18.73,0,0,1,3.82-3.85,2,2,0,0,0,1-1.66C44.57,40.3,43.62,39.33,41.76,38.57Z"/><path class="cls-7" d="M73.85,24.44h0A11.53,11.53,0,0,0,70,23c-.1,0-.37,0-6.66,1-4.57.42-8.1.75-10.57,1L52,25.1a4.08,4.08,0,0,0,.52-2.2,11.51,11.51,0,0,0-.87-4.31A10.13,10.13,0,0,0,48,14.72a8.79,8.79,0,0,0-4.68-1.82h0c-.89.09-1,.63-1,.86,0,1,1,3.35,2.91,7.23a17.61,17.61,0,0,0,2.86,4.52c-3.25.35-7.64.86-13.14,1.53A80.09,80.09,0,0,1,24,28c-1.5.12-1.81.79-1.81,1.33s.27,1,2.25,2.19c1.63,1.12,2.82,1.67,3.65,1.67a14.73,14.73,0,0,0,3.44-.95,106.66,106.66,0,0,1,16.31-2.65,148.51,148.51,0,0,1,16.32-1.1c2,0,4,0,5.69.15s3.14.14,4.28.14c1.85,0,2.23-.79,2.23-1.46C76.36,26.42,75.54,25.47,73.85,24.44Z"/></g></g></svg>
