<svg xmlns="http://www.w3.org/2000/svg" xmlns:xlink="http://www.w3.org/1999/xlink" viewBox="0 0 101.39 138"><defs><style>.cls-1{fill:none;}.cls-2{fill:#722529;stroke:#722529;stroke-width:0.75px;}.cls-3{fill:#010101;stroke:#010101;stroke-width:1.25px;}</style><symbol id="Болванка-новая" data-name="Болванка-новая" viewBox="0 0 101.39 138"><rect class="cls-1" width="101.39" height="138" rx="6.76"/></symbol></defs><g id="Слой_2" data-name="Слой 2"><g id="Слой_1-2" data-name="Слой 1"><use width="101.39" height="138" xlink:href="#Болванка-новая"/><path class="cls-2" d="M26,80.16a5.35,5.35,0,0,0,3.07,1.63,3.74,3.74,0,0,0,1.65-.6,38.88,38.88,0,0,1,3.74-1.33l.23-.07v0c.33-.1,1.13-.35,3-.89.19.56.39,1.16.59,1.78.5,2.06,1.18,3.09,2.16,3.15.77-.06,1.28-.8,1.51-2.26,0-.2-.08-.86-.58-3.74l3-.88c.41-.11,1.66-.45,1.66-1.28,0-.53-.35-1.17-2-1.17a7.78,7.78,0,0,0-1.31.17c-.53.11-1.16.22-1.88.34-.11-.62-.23-1.3-.37-2a15.82,15.82,0,0,1-.2-3c0-.57-.41-1.1-1.22-1.56l0,0a11.24,11.24,0,0,0-4-.91A1.35,1.35,0,0,0,33.59,69c0,.24.09.71.93,1.93a24,24,0,0,1,2.09,4.78q-2.52.38-5.78.83c-1.26.11-2.14.16-2.61.16-.22,0-.76,0-1.6-.15a9.6,9.6,0,0,0-1.43-.16c-1.17,0-1.29.72-1.29,1S24.14,78.39,26,80.16Z"/><path class="cls-2" d="M72.16,104.87c-3.09-2.31-3.83-2.63-4.18-2.63a7.16,7.16,0,0,0-1.87.5,38.83,38.83,0,0,1-4.32,1.07l-12.72,1.7.11-4.4,2.82-.25c1.25-.15,2.61-.24,4-.29.46,1.14,1,1.7,1.68,1.7,1.43,0,2.42-.84,2.93-2.5l3-9.31a7.71,7.71,0,0,1,1.59-3.28A2.11,2.11,0,0,0,65.78,86c0-.76-.86-1.58-2.69-2.59h0c-3.14-1.38-3.9-1.54-4.2-1.54a16.8,16.8,0,0,0-3.46.61l.06-.08a29,29,0,0,0,3.59-6.14l1.6-.27a43.16,43.16,0,0,1,6.52-.52,10.67,10.67,0,0,0,3.13-.3c1.26-.23,1.53-.87,1.53-1.37s-.26-.85-2.14-1.75h0a7.91,7.91,0,0,0-2.8-.9,4.25,4.25,0,0,0-1,.24c-.87.21-2.63.62-5.27,1.21.35-.89.71-1.78,1.08-2.64.76-1.14.86-1.55.86-1.79,0-.79-.71-1.64-2.16-2.58h0a6.4,6.4,0,0,0-3.09-1.15c-.59,0-1.34.27-1.54,1.58v.07l0,.06A9.63,9.63,0,0,1,56.07,68a29.84,29.84,0,0,1-.6,5.07c0,.17-.09.36-.13.54-1.57.29-3,.54-4.31.75-.38,0-1.4.14-1.4.84,0,.43.45.83,1.49,1.34a6.39,6.39,0,0,0,2.35.84,2.33,2.33,0,0,0,.82-.22l.16,0C54,79,53.38,81,52.71,83.15a90.09,90.09,0,0,1-17.4,2.39l-.71-.27a7.59,7.59,0,0,0-2.67-.44c-.78,0-1.23.5-1.23,1.39,0,.25.2.46.72.75a5.14,5.14,0,0,1,1.84,2.73,25.36,25.36,0,0,1,1.11,5.2l.89,4.76a5,5,0,0,0,1,2.67c.44.71.9,1.06,1.4,1.06s.85-.32,1.14-.93a3.56,3.56,0,0,0,.26-.74,6,6,0,0,0,1.19.1c.81,0,2-.08,3.5-.24l.87-.08.08,4.6-12.73,1.65,0-.8c-.09-.75-.77-1.37-2.08-1.91h0a11.89,11.89,0,0,0-2.69-.63c-.44,0-1.16.19-1.16,1.44a2.1,2.1,0,0,0,.36,1.11,12,12,0,0,1,.67,1.4c-.86.09-1.39.14-1.57.14a7.67,7.67,0,0,1-1.45-.23h0a9.7,9.7,0,0,0-1.49-.16,1,1,0,0,0-1.05,1.05c0,.56.51,1.16,1.65,1.91a8,8,0,0,0,3.47.91,7,7,0,0,0,1.31-.16,53,53,0,0,1,.53,7.35c0,1,0,2-.08,3.11a9.68,9.68,0,0,0-.18,1.43,4.71,4.71,0,0,0,.74,2.15c.62,1.28,1.17,1.87,1.73,1.87s1.12-.45,1.43-1.32a6.14,6.14,0,0,0,.75-2.64l-.65-12.9c3.71-.72,7.93-1.38,12.63-2l.08,5.34-3,.52c-1.41.15-2.4.23-2.94.23-.21,0-.75,0-1.59-.15a10.31,10.31,0,0,0-1.43-.17c-1.17,0-1.29.73-1.29,1s.24,1,2.13,2.78a5.4,5.4,0,0,0,3.08,1.62,4,4,0,0,0,1.82-.68,40.56,40.56,0,0,1,4.19-1.52l.23-.08h0c.58-.2,2.75-.86,9.85-3,.09.16.17.32.27.49a13.48,13.48,0,0,0,2.31,3.58c.45.48.77.69,1.06.69a2,2,0,0,0,1.78-1.11,6.48,6.48,0,0,0,.51-2.34,5.93,5.93,0,0,0-.57-2.6,9.71,9.71,0,0,0-3-2.9,29.25,29.25,0,0,0-3.48-1.78l0,0a5.84,5.84,0,0,0-1.32-.26c-.34,0-.7.22-.7.82a2.53,2.53,0,0,0,.79,1.46,16,16,0,0,1,1,1.5q-2.1.48-5.54,1.12l.13-5.13h.14c7.59-.71,12.83-1.06,15.59-1.06a3.42,3.42,0,0,1,2.1.42,14.45,14.45,0,0,1,.51,4.56A26.65,26.65,0,0,1,66.27,121c-.25.51-.64,1.13-1.12,1.13a23.92,23.92,0,0,1-4.21-.73,4.47,4.47,0,0,0-1.47-.51.74.74,0,0,0-.8.8c0,.22.1.56.88,1.33a32.67,32.67,0,0,1,3.84,5.29,2.48,2.48,0,0,0,1.92,1.33l.67,0v0a6.08,6.08,0,0,0,3.34-2.12c1.54-1.59,2.42-4.06,2.62-7.33l.58-6.78a13.84,13.84,0,0,1,1-4.34,3,3,0,0,0,.55-1.47C74,106.76,73.42,105.86,72.16,104.87ZM57.92,90.65c-.28-.13-.63-.27-1-.42h0A16.18,16.18,0,0,0,54,89.74c-.11,0-.45,0-2.17.31l-2.36.42a10.83,10.83,0,0,1,.2-1.13,4.43,4.43,0,0,0,.22-1.3,1.71,1.71,0,0,0-.71-1.3c4.65-.62,7.41-.93,8.24-.93.4,0,.8.12.8,1A25.14,25.14,0,0,1,57.92,90.65Zm-13.51.61c-1.95.28-3.93.53-5.91.75l-.57,0c-.13-.67-.28-1.37-.45-2.12A13,13,0,0,1,37.24,88a62,62,0,0,0,6.2-.46,3.2,3.2,0,0,0,.31.42,4.9,4.9,0,0,1,.64,1.94ZM40.1,95a42.1,42.1,0,0,0,4.37-.34l.06,3.57c-1.78.18-3.62.33-5.5.44-.1-1-.29-2.29-.55-3.78A11.25,11.25,0,0,0,40.1,95Zm9.26-1,3-.4q1.65-.2,4-.39A9.57,9.57,0,0,0,57.52,93a35.64,35.64,0,0,1-1.06,4.52A5.38,5.38,0,0,0,54.54,97a38.42,38.42,0,0,0-4.18.43l-1.09.18Z"/><path class="cls-3" d="M77.84,52.81c-1-1.31-1.61-4.18-2-8.5,0-1.12-.45-1.36-.82-1.36s-.57.34-.86,1.36c-1.26,4.92-2.38,7.91-3.31,8.87-.86.79-2.61,1.19-5.21,1.19-4.11,0-7.06-.7-8.77-2.06-1.3-1.26-2-3.24-2-5.91a39.34,39.34,0,0,1,2-10.73,31.15,31.15,0,0,1,4.06-9,2.28,2.28,0,0,0,.89-1.49c0-.62-.6-1.37-1.88-2.36l0,0a6.91,6.91,0,0,0-3.14-1.25,11.35,11.35,0,0,0-3,1c-2.64,1.05-5.3,2-8,2.95q.71-3.43,1.36-7.34a47.59,47.59,0,0,1,1.17-5.11A4.54,4.54,0,0,0,49,11.23c0-.76-.78-1.57-2.45-2.56h0a8.46,8.46,0,0,0-3.46-1.31,1.8,1.8,0,0,0-1.75,1.32l0,.12a4.15,4.15,0,0,0,.35,1.36A13.46,13.46,0,0,1,42.15,14a71.79,71.79,0,0,1-1.32,11.61c-.11.56-.23,1.11-.35,1.64l-3.2,1a58.54,58.54,0,0,1-11,2c-.41,0-1.66,0-1.66.81,0,.63.6,1.29,1.92,2.07a6.46,6.46,0,0,0,3,.93,8.8,8.8,0,0,0,3.11-.65l7-2.21a60.18,60.18,0,0,1-2.09,6.49,46.51,46.51,0,0,1-5.27,9.87A60.34,60.34,0,0,1,23,56.83c-1,.62-1.49,1.15-1.49,1.67,0,.26.12.7,1.14.7a18.63,18.63,0,0,0,3.09-1.15c3.79-1.37,7.29-4.14,10.39-8.24a50.48,50.48,0,0,0,7.33-14.33c.54-1.81,1.06-3.82,1.57-6l5.79-1.84a9.77,9.77,0,0,1,2.59-.83c.3,0,.4.1.4.41a12.4,12.4,0,0,1-.62,3,105.22,105.22,0,0,0-2.55,10.25,45.7,45.7,0,0,0-.56,6c0,4.42,1.32,7.78,3.93,10,2.9,2.4,7.23,3.61,12.87,3.61,4.31,0,7.43-.65,9.24-1.92,1.76-1.06,2.64-2.19,2.64-3.35A2.53,2.53,0,0,0,77.84,52.81Z"/></g></g></svg>
