<svg xmlns="http://www.w3.org/2000/svg" xmlns:xlink="http://www.w3.org/1999/xlink" viewBox="0 0 101.39 138"><defs><style>.cls-1{fill:none;}.cls-2{fill:#722529;}.cls-3{fill:#eae8dc;}.cls-4{fill:#085241;}</style><symbol id="Болванка-новая" data-name="Болванка-новая" viewBox="0 0 101.39 138"><rect class="cls-1" width="101.39" height="138" rx="6.76"/></symbol></defs><g id="Слой_2" data-name="Слой 2"><g id="Слой_1-2" data-name="Слой 1"><use width="101.39" height="138" xlink:href="#Болванка-новая"/><path class="cls-2" d="M92.63,69A41.94,41.94,0,1,1,50.69,27.06,41.94,41.94,0,0,1,92.63,69"/><path class="cls-3" d="M87.8,69A37.11,37.11,0,1,1,50.69,31.89,37.12,37.12,0,0,1,87.8,69"/><path class="cls-4" d="M84.56,69A33.87,33.87,0,1,1,50.69,35.13,33.86,33.86,0,0,1,84.56,69"/><path class="cls-3" d="M50.69,39.63c-7.62,0,0,29.37,0,29.37s8.11-29.37,0-29.37"/><path class="cls-3" d="M36,43.56C29.41,47.37,50.69,69,50.69,69S43,39.51,36,43.56"/><path class="cls-3" d="M25.26,54.31C21.45,60.91,50.69,69,50.69,69S29.31,47.29,25.26,54.31"/><path class="cls-3" d="M21.32,69c0,7.62,29.37,0,29.37,0s-29.37-8.11-29.37,0"/><path class="cls-3" d="M25.26,83.68C29.07,90.28,50.69,69,50.69,69S21.2,76.67,25.26,83.68"/><path class="cls-3" d="M36,94.44C42.61,98.25,50.69,69,50.69,69S29,90.38,36,94.44"/><path class="cls-3" d="M50.69,98.37c7.62,0,0-29.37,0-29.37s-8.1,29.37,0,29.37"/><path class="cls-3" d="M65.38,94.44C72,90.63,50.69,69,50.69,69s7.67,29.49,14.69,25.44"/><path class="cls-3" d="M76.13,83.68C79.94,77.08,50.69,69,50.69,69S72.08,90.71,76.13,83.68"/><path class="cls-3" d="M80.06,69c0-7.62-29.37,0-29.37,0s29.37,8.11,29.37,0"/><path class="cls-3" d="M76.13,54.31C72.32,47.71,50.69,69,50.69,69s29.49-7.67,25.44-14.69"/><path class="cls-3" d="M65.38,43.56C58.78,39.75,50.69,69,50.69,69S72.4,47.62,65.38,43.56"/><path class="cls-3" d="M44.9,42.44A1.28,1.28,0,0,1,44,44a1.28,1.28,0,1,1-.67-2.47,1.27,1.27,0,0,1,1.57.91"/><path class="cls-3" d="M32.39,48.89a1.26,1.26,0,0,1,0,1.81,1.28,1.28,0,0,1-1.81-1.81,1.26,1.26,0,0,1,1.81,0"/><path class="cls-3" d="M24.79,60.73a1.29,1.29,0,0,1,.91,1.57,1.3,1.3,0,0,1-1.58.91,1.28,1.28,0,0,1,.67-2.48"/><path class="cls-3" d="M24.12,74.79a1.3,1.3,0,0,1,1.58.91,1.28,1.28,0,1,1-1.58-.91"/><path class="cls-3" d="M30.58,87.29a1.3,1.3,0,0,1,1.81,0,1.28,1.28,0,1,1-1.81,1.82,1.29,1.29,0,0,1,0-1.82"/><path class="cls-3" d="M42.42,94.9A1.29,1.29,0,0,1,44,94a1.28,1.28,0,1,1-1.58.9"/><path class="cls-3" d="M56.48,95.57a1.28,1.28,0,1,1,1.57.9,1.29,1.29,0,0,1-1.57-.9"/><path class="cls-3" d="M69,89.11A1.28,1.28,0,1,1,70.8,87.3,1.28,1.28,0,0,1,69,89.11"/><path class="cls-3" d="M76.6,77.27a1.28,1.28,0,1,1,1.57-.91,1.29,1.29,0,0,1-1.57.91"/><path class="cls-3" d="M77.26,63.21a1.28,1.28,0,1,1,.91-1.57,1.29,1.29,0,0,1-.91,1.57"/><path class="cls-3" d="M70.81,50.7A1.28,1.28,0,0,1,69,48.89a1.28,1.28,0,1,1,1.82,1.81"/><path class="cls-3" d="M59,43.1a1.28,1.28,0,0,1-2.48-.66A1.28,1.28,0,1,1,59,43.1"/><path class="cls-4" d="M50.77,49.6c-2.29,0,0,19.4,0,19.4s2.43-19.4,0-19.4"/><path class="cls-4" d="M41.06,52.16c-2,1.15,9.7,16.8,9.7,16.8s-7.59-18-9.7-16.8"/><path class="cls-4" d="M33.93,59.23c-1.14,2,16.8,9.7,16.8,9.7s-15.58-11.8-16.8-9.7"/><path class="cls-4" d="M31.3,68.92c0,2.29,19.39,0,19.39,0s-19.39-2.43-19.39,0"/><path class="cls-4" d="M33.86,78.63c1.14,2,16.79-9.7,16.79-9.7s-18,7.6-16.79,9.7"/><path class="cls-4" d="M40.93,85.76c2,1.14,9.7-16.8,9.7-16.8s-11.81,15.58-9.7,16.8"/><path class="cls-4" d="M50.62,88.4c2.28,0,0-19.4,0-19.4s-2.43,19.4,0,19.4"/><path class="cls-4" d="M60.32,85.84c2-1.15-9.7-16.8-9.7-16.8s7.6,18,9.7,16.8"/><path class="cls-4" d="M67.45,78.77c1.14-2-16.8-9.7-16.8-9.7s15.59,11.8,16.8,9.7"/><path class="cls-4" d="M70.09,69.08c0-2.29-19.4,0-19.4,0s19.4,2.43,19.4,0"/><path class="cls-4" d="M67.53,59.37c-1.15-2-16.8,9.7-16.8,9.7s18-7.6,16.8-9.7"/><path class="cls-4" d="M60.46,52.24c-2-1.14-9.7,16.8-9.7,16.8s11.8-15.58,9.7-16.8"/><path class="cls-4" d="M64.9,69A14.21,14.21,0,1,1,50.69,54.79,14.21,14.21,0,0,1,64.9,69"/><path class="cls-3" d="M61,69A10.3,10.3,0,1,1,50.7,58.7,10.3,10.3,0,0,1,61,69"/><path class="cls-4" d="M57.38,69a6.69,6.69,0,1,1-6.69-6.69A6.69,6.69,0,0,1,57.38,69"/></g></g></svg>
