<svg xmlns="http://www.w3.org/2000/svg" xmlns:xlink="http://www.w3.org/1999/xlink" viewBox="0 0 101.39 138"><defs><style>.cls-1{fill:none;}.cls-2{fill:#085241;}</style><symbol id="Болванка-новая" data-name="Болванка-новая" viewBox="0 0 101.39 138"><rect class="cls-1" width="101.39" height="138" rx="6.76"/></symbol></defs><g id="Слой_2" data-name="Слой 2"><g id="Слой_1-2" data-name="Слой 1"><use width="101.39" height="138" xlink:href="#Болванка-новая"/><path class="cls-2" d="M41.21,83.64c0-.92-.88-1.84-2.7-2.83a13,13,0,0,0-4.43-1.5c-.34,0-1.47.18-7.45,1.71-.3,0-.39-.11-.39-.38a8,8,0,0,1,1.83-3.48c.43-.5.51-.72.51-.9a1.63,1.63,0,0,0-.59-1.2l6.08-1a21.63,21.63,0,0,1,4.64-.47,1,1,0,0,0,1-1.07c0-.54-.46-1.12-1.45-1.82l1.33-3.86a12.42,12.42,0,0,1,1.81-3.45,2.76,2.76,0,0,0,1.06-2,2.56,2.56,0,0,0-1.53-2.1h0a12,12,0,0,0-4.42-1.47,2.84,2.84,0,0,0-1.33.52,14.88,14.88,0,0,1-3.81,1.5c-.48.14-1,.27-1.57.38a116.2,116.2,0,0,0,8.56-13.14,22.87,22.87,0,0,1,3.4-4.32A3.24,3.24,0,0,0,43,40.71c0-.87-.89-1.83-2.8-3h0a9.13,9.13,0,0,0-3.69-1.51,9.79,9.79,0,0,0-2.6.57,52,52,0,0,1-11.23,2.83c-1.43.17-2.15.66-2.15,1.45,0,.42.33.75,1,1a7.51,7.51,0,0,0,2.78.51A42.37,42.37,0,0,0,29.77,42a16,16,0,0,1,3.65-.65c.44,0,.44.16.44.3,0,.64-.57,2.48-3.27,7.63a73.23,73.23,0,0,1-4.08,6.46,5.07,5.07,0,0,0-1.7-3,20.71,20.71,0,0,0-5.67-2.29,9.42,9.42,0,0,0-2.95-.52c-.46,0-.79.29-.93.88a1.64,1.64,0,0,0,.58,1A37.65,37.65,0,0,0,22,58.59a4.54,4.54,0,0,0,1.72.88c-.9,1.15-1.85,2.32-2.85,3.49A61.15,61.15,0,0,1,7,75.05c-.78.7-.94,1-.94,1.25s.06.71.85.71c1.79,0,4.31-1,7.73-3a52.94,52.94,0,0,0,11.5-9.48l1.2-1.33a2.57,2.57,0,0,0,1.3.37A22.39,22.39,0,0,0,32.46,63a9.16,9.16,0,0,1,2.19-.34c.48,0,.48.18.48.32a21.42,21.42,0,0,1-.33,3.27c-.18,1-.45,2.2-.79,3.55-.58.1-1.33.29-2.28.54a43.88,43.88,0,0,1-9.19,1.91c-1.22,0-1.35.8-1.35,1.15a2.07,2.07,0,0,0,.73,1.43l.11.1a2.29,2.29,0,0,0,.17.27l.61,1.49a14.29,14.29,0,0,1-.71,2.47,9.87,9.87,0,0,1-2.93,4.57,4.84,4.84,0,0,0-1.11,2.54v.1c.19,2.32,1.31,2.81,2.22,2.81,1.12,0,2.57-.94,4.44-2.87a10.16,10.16,0,0,1,3.19-2.41,21.71,21.71,0,0,1,4.69-.49c1.29,0,1.29.48,1.29.67a55.24,55.24,0,0,1-.56,6.56A30.87,30.87,0,0,1,31,98.45c-.93,1.76-1.62,2.13-2,2.13s-1.58-.31-5.73-1.79l-.12,0c-.83,0-.89.56-.89.74v.14l.1.11a39.6,39.6,0,0,1,5.88,7c.49.94,1,1.47,1.55,1.61l.71,0v0a5.8,5.8,0,0,0,3.06-2c2.31-2.56,3.81-6.31,4.46-11.12a34.19,34.19,0,0,1,2.18-9.24A4.67,4.67,0,0,0,41.21,83.64Z"/><path class="cls-2" d="M88.77,65.12C80.6,62,74.86,59.32,71.7,57.19a77.54,77.54,0,0,1-9.61-8.6c5.54-2.36,9.69-4.31,12.32-5.78.93-.4,1.4-.94,1.4-1.59,0-.44-.31-1.18-2.77-3.13-2.23-1.52-3-1.7-3.46-1.7s-.94.36-1.24,1a23.29,23.29,0,0,1-4,5.35,55.4,55.4,0,0,1-4,4q-2.75-2.82-6-6.32a76.6,76.6,0,0,0,7.49-5.35,1.76,1.76,0,0,0,.92-1.52c0-.39-.27-1-2.29-2.61-1.84-1.25-2.52-1.4-2.87-1.4-.58,0-.78.78-.84,1a24.61,24.61,0,0,1-2.21,4.91c-.55,1-1.19,2.15-1.9,3.27a7.12,7.12,0,0,0-4.44-1.9c-1.79,0-4.18.16-4.18,1.6,0,.93.71,1.62,2.08,2a18.26,18.26,0,0,1,7.31,5.64l10.3,12.42a53.45,53.45,0,0,0,9.22,9.88c1.16,1.16,3.27,1.73,6.46,1.73a31.14,31.14,0,0,0,9.55-1.41c1.66-.55,2.47-1.26,2.47-2.15C91.39,66.23,91,65.81,88.77,65.12Z"/><path class="cls-2" d="M71.59,72.57a8,8,0,0,0-4-1,4.35,4.35,0,0,0-1.8.65,10.16,10.16,0,0,1-3.41.7A1.76,1.76,0,0,1,61,72.31a4.53,4.53,0,0,1-.64-2.84,22.92,22.92,0,0,1,1.79-7.83,5.78,5.78,0,0,0,.5-2c0-.67-.67-1.32-2.1-2a9.21,9.21,0,0,0-4.07-1.3,3.75,3.75,0,0,0-1.57.64,33.21,33.21,0,0,1-5.24,2.43h0A9.16,9.16,0,0,0,46,58.49c-1.28,0-1.42.87-1.42,1.24s.18.43.85.81a1.65,1.65,0,0,1,.5.94l0,.09a6.84,6.84,0,0,1,.43,2.63v2.1a18.7,18.7,0,0,1-.67,5.11,11.11,11.11,0,0,1-1.66,4.08,18.35,18.35,0,0,1-3.19,3.45l-.11.11v.15c0,.32.19.66.75.66a7.92,7.92,0,0,0,2.84-1.06,10.49,10.49,0,0,0,3.33-2.59,10.84,10.84,0,0,0,2-3.72,18.12,18.12,0,0,0,.85-5.08l.09-3.63A6.2,6.2,0,0,1,51,62.22c.67-.21,1.54-.54,2.59-1a7.17,7.17,0,0,1,1.75-.35c.17,0,.69,0,.69,1.49,0,.88,0,2.05.09,3.46v4c0,2.61.68,4.56,2,5.81s3.77,1.72,7.41,1.72a16.5,16.5,0,0,0,5.67-.81c1.11-.45,1.68-1.12,1.68-2A2.35,2.35,0,0,0,71.59,72.57Z"/><path class="cls-2" d="M63.73,94.2,61.89,93c.88-1.47,1.75-3.1,2.6-4.87a11.09,11.09,0,0,1,2.56-3.41,2.73,2.73,0,0,0,1-1.72c0-1.06-1.06-2-3.23-2.82-2.68-1.22-3.48-1.36-3.86-1.36a10.93,10.93,0,0,0-3.17.89,86.3,86.3,0,0,1-11.9,3c-1.91.3-2.61.61-2.61,1.15a1.26,1.26,0,0,0,1.1,1.27,5.53,5.53,0,0,0,.32.46q5.58,4.74,10,8.71a29.46,29.46,0,0,1-4,4.24,33,33,0,0,1-10.35,6l-.22.08v.24c0,.67.6,1,1.79,1a22.07,22.07,0,0,0,6.67-1.22,26.88,26.88,0,0,0,8.54-5.32c.47-.47.95-1,1.42-1.54,3,2.78,5.38,5.21,7.25,7.28,1,1,1.81,1.8,2.4,2.3A2.68,2.68,0,0,0,70,108c1.58,0,2.38-1.31,2.38-3.89,0-1.21-.71-2.61-2.18-4.29A45.23,45.23,0,0,0,63.73,94.2Zm-6.31-4.08Q54,88,49.73,85.54A80.81,80.81,0,0,0,59.16,84c.34,0,.45.11.45.45C59.61,85.91,58.88,87.82,57.42,90.12Z"/></g></g></svg>
