<svg xmlns="http://www.w3.org/2000/svg" xmlns:xlink="http://www.w3.org/1999/xlink" viewBox="0 0 101.39 138"><defs><style>.cls-1{fill:none;}.cls-2{fill:#723032;}.cls-3{fill:#0d5948;}</style><symbol id="Болванка-новая" data-name="Болванка-новая" viewBox="0 0 101.39 138"><rect class="cls-1" width="101.39" height="138" rx="6.76"/></symbol></defs><g id="Слой_2" data-name="Слой 2"><g id="Слой_1-2" data-name="Слой 1"><use width="101.39" height="138" xlink:href="#Болванка-новая"/><path class="cls-2" d="M39,36.18c.76,0,9,8,5.61,13.6s-11.35,2.61-11.5-1.47c-.18-5.26,4.67-12.07,5.89-12.13"/><path class="cls-3" d="M71.75,68c2-1.17,4-3.6,2.4-5.88a3.52,3.52,0,0,0-1.45-1.22l.41-.43c1.21-1.37,2.39-3.65,1.79-5.52a3.93,3.93,0,0,0-4.84-2.29,7.05,7.05,0,0,0-3.75,3,2.58,2.58,0,0,0-1.09-.93c-3.13-1.39-5.91,2.33-6.76,4.91a8.9,8.9,0,0,0-.39,2.46,2.75,2.75,0,0,0-3-.36c-2.58,1-4,4.56-3.31,7.07.86,3.09,4.64,9.21,4.75,9.22s4.35-.91,6.21-1.41A31,31,0,0,0,69,74.36c2.28-1.19,4.63-4.19,2.77-6.4m-8.09,4.3c-.85,1.7-3,3.72-5.55,2.65-2-.84-1.83-3.91-.88-5.38,1.18-1.81,5-4,7.18-4.69.21,2,.18,5.57-.75,7.42"/><path class="cls-3" d="M82.09,86.14c1.48-1.31,2.84-3.12,1.54-5s-4-1.68-5.6-.47a5.59,5.59,0,0,0-1.4,1.55,1.69,1.69,0,0,0-.91-.67c-2-.67-4,1.11-5,2.67a6.66,6.66,0,0,0-1,2.69,2.58,2.58,0,0,0-.53-.24c-2.08-.64-3.56,1.11-4,3-.59,2.81.7,5.51,1.38,8.18,0,0,6,3.31,9,3.17,2-.09,4.19-.59,4.94-2.69a2.87,2.87,0,0,0-1.72-3.59,16.83,16.83,0,0,0,2-1.11c1.83-1.18,4.09-3.62,2.77-6a3.2,3.2,0,0,0-1.54-1.44m-9.26,9.7c-.68,1-2.92,1.63-3.89.51-1.12-1.27-.22-2.83.68-3.64,1.19-1.07,5-2.4,5-2.4h0a16.72,16.72,0,0,1-1.84,5.53"/><path class="cls-3" d="M43.31,68.2s.06.07.08.11,1.42,1.87,2.91,4.06c-.22-.57-.42-1.15-.62-1.73-1.72-5.16-2.26-12.46-2.43-17a7.26,7.26,0,0,1-1.08.54c.06,3.19.22,7.77.42,9.84a29.19,29.19,0,0,0,.72,4.15"/><path class="cls-3" d="M67.66,100.91c-2.53-3.3-9.94-11.12-12.1-13.39a40.22,40.22,0,0,1-5.17-6.72A16.46,16.46,0,0,1,49.31,83a31,31,0,0,0,2.16,3.25c3.74,4.85,12.94,12.27,15.71,23.06a47.89,47.89,0,0,1,1.33,10.28h4.26c.56-3.78-1.35-13.79-5.11-18.68"/><path class="cls-3" d="M41.58,69.69c-1.59-2.09-4.75-3.14-6.95-1.28a4,4,0,0,0-1,1.25c-.25-.26-.49-.5-.75-.73a4.78,4.78,0,0,0-6.57-.24,3.3,3.3,0,0,0-.9,3.3,5,5,0,0,0-3.17-.28,5.56,5.56,0,0,0-4,4.33c-.25,2.52,1.16,6.18,7.54,5.7.46,0,.91,0,1.37,0a5.85,5.85,0,0,0-.55,1.09c-.91,2.36,1.39,4.15,3.36,4.87a5.3,5.3,0,0,0,3.86,0,7.39,7.39,0,0,0,.91-.43A4.25,4.25,0,0,0,35.63,91c1.76,2,5.15,1.47,6.66-.51.91-1.19,6-10.22,5.92-10.37-1.34-3.24-5.4-8.83-6.63-10.44M45.2,80.35c-.21,2.06-1.87,3.77-5.68,3.41-3.27-.31-8.33-5.59-8.27-5.57s6.7-2.54,9.5-2.25c2.23.22,4.74,1.62,4.45,4.41"/><path class="cls-2" d="M46.09,25c-1.78,5.07-6.69,8.23-9.7,9.51,0,0,6-3.95,7-10.07.53-3.39-.43-7.68,2.58-7.14,2.82.52.72,6.11.17,7.7"/><path class="cls-2" d="M40.44,24.51c.5-2.9,1-8.6-2.23-8.21-1,.12-1.51,1.75-1.46,2.65a4.7,4.7,0,0,0,.92,2.74c2.2,3.37.52,9.32.64,9.4a25.48,25.48,0,0,0,2.13-6.58"/><path class="cls-2" d="M31.57,29.77c-2.34-2.29-7.16-9.83-3.46-11.37a1.85,1.85,0,0,1,1.35,0c1.8,1,.16,5.25,2.52,9a20.92,20.92,0,0,0,5,4.82,10.45,10.45,0,0,1-5.4-2.51"/><path class="cls-2" d="M31.21,33.54c-.18-.59-1.09-2.72-4.78-4.83-5.54-3.17-11.86-1-12.92,2.59-1.3,4.34,3.88,6.11,7.75,6.08a32.66,32.66,0,0,1,10-3.84"/><path class="cls-2" d="M33.74,35.18c-5.48.48-19.83,5.49-15.94,13.66,1.44,3,8.28,5.21,12.79-2.32,2.86-4.76,3.15-11.34,3.15-11.34"/><path class="cls-2" d="M39,36.18c.76,0,9,8,5.61,13.6s-11.35,2.61-11.5-1.47c-.18-5.26,4.67-12.07,5.89-12.13"/><path class="cls-3" d="M69.06,108c-.35-2.15-2.28-3.57-4-4.52-2.42-1.3-8.37-5.51-17.51-2.86a88.78,88.78,0,0,0-8.35,3.12,1.69,1.69,0,0,1,.2.23,2.15,2.15,0,0,1,.33,1c2.4-1.2,8.42-3.65,13.29-3s12.83,3.35,14.59,9.31c.48,1.64,1.76-1.62,1.49-3.28"/><path class="cls-3" d="M37.74,105c-.17-.26-6.16-5.41-8-6-2.94-1-5.72-.33-7.22,2.3-1.13,2-.09,3.71,1.49,4.81a13.48,13.48,0,0,0-1.77.68c-1.8.86-4.63,2.61-4,5a2.82,2.82,0,0,0,.5,1.06A13.14,13.14,0,0,0,17.3,114c-1.49,1.46-3.16,4.23-1.57,6.2s3.66,1.79,5.7.79a5.61,5.61,0,0,0,2.66-2.09,4.07,4.07,0,0,0,4.6.09,5.24,5.24,0,0,0,1.37-1.52,2.64,2.64,0,0,0,2.14,2c2.64.45,4.29-2.87,4.64-4.9.27-1.61,1.29-9,.9-9.62m-10.92,6.4c-.22-.1,1.66-4.2,4.36-6,1.83-1.23,3.86-1.37,5.07.26.84,1.13-.1,3-1.85,4.06-2.4,1.52-6.09,2.37-7.58,1.72"/><path class="cls-2" d="M54,27c-5.13.28-13.4,7.7-13.4,7.7a31.78,31.78,0,0,1,8.54.75c2.47.44,5.41,1.26,7.22,2.71l.41.36c2.68.19,5.24-.94,5.75-4.22C63.37,29,57.63,26.83,54,27"/><path class="cls-2" d="M55.2,39.63c3,2.4,5.9,8.42,1.06,10.89-4.48,2.28-7.66-2.72-8.57-6.25a46.9,46.9,0,0,0-3-7.46s7.46.4,10.48,2.82"/></g></g></svg>
