<svg xmlns="http://www.w3.org/2000/svg" xmlns:xlink="http://www.w3.org/1999/xlink" viewBox="0 0 101.39 138"><defs><style>.cls-1{fill:none;}.cls-2{fill:#0d5948;}</style><symbol id="Болванка-новая" data-name="Болванка-новая" viewBox="0 0 101.39 138"><rect class="cls-1" width="101.39" height="138" rx="6.76"/></symbol></defs><g id="Слой_2" data-name="Слой 2"><g id="Слой_1-2" data-name="Слой 1"><use width="101.39" height="138" xlink:href="#Болванка-новая"/><path class="cls-2" d="M29.17,104.86c.69-5.77-1.56-10.82-4.51-9.94C16.55,97.35,30,113,30,113c-.09-.3-1.56-2.38-.87-8.15"/><path class="cls-2" d="M24.7,91.58c1.93,4.12,8.19-.66,9.76-2.77,1.78-2.4,7.85-4,7.85-4-14.75-1-18.88,4.11-17.61,6.81"/><path class="cls-2" d="M46.51,72a19,19,0,0,1,1.92-.54s-.8,0-2.08.13c-.82.07-1.83.15-3,.29-7.31.86-21,4-16.95,10.87,1.11,1.9,5,1.29,8.37-3.13C37,76.7,40.76,74.4,44,73a24.13,24.13,0,0,1,2.5-1"/><path class="cls-2" d="M24.4,78.18c-.35-5,4.44-11.41,6.2-13.28,0,0-22.27,16-11.93,21.48,2.83,1.51,5.95-5,5.73-8.2"/><path class="cls-2" d="M53,20.87c5.37-1,9.7,1.32,11.37,1.86,0,0-19.94-13.66-21.09-3.59-.33,3,4.2,2.74,9.72,1.73"/><path class="cls-2" d="M30.12,24.17c7.56-1.23,8.17-5.05,6.64-6.47C29.54,11,20.11,30.54,20.11,30.54h0s2-5.07,10-6.37"/><path class="cls-2" d="M32.47,34.93a11.5,11.5,0,0,1,6-6.78c4.41-2,5.51-6.35,3.39-7.28C34,18.42,32.47,34.93,32.47,34.93"/><path class="cls-2" d="M40.93,41.56c-.31-1,1.12-5.79,2-7.13,1.7-2.5,2.5-6.77,0-7.1-6.45-.83-2,14.23-2,14.23"/><path class="cls-2" d="M45.31,25.42c-.8,1.75.61,4.71,6.63,4.82,3.11.05,5.81,2.13,7,3.3,0,0-8-15.93-13.66-8.12"/><path class="cls-2" d="M46.31,51.45c.43-.12,5.95-3.83,9.91-4.17S62.47,45.53,62,44c-2.3-7.06-15.66,7.46-15.66,7.46"/><path class="cls-2" d="M53.55,62.52a15.59,15.59,0,0,1,6.57-8.31c3.58-2.05,7.2-5.58,3.88-7.4-6-3.29-10.45,15.71-10.45,15.71"/><path class="cls-2" d="M66.52,49.63c-2.73,1.82,1.41,5.74,3,6.66,3.22,1.92,4.75,9,4.75,9s-.93-20.15-7.72-15.62"/><path class="cls-2" d="M69.64,46.86c-.93,1.65,2.33,3,6,3.51,3,.44,8.89,3.82,8.89,3.82S73.74,39.56,69.64,46.86"/><path class="cls-2" d="M74.57,41.94c3.09-1.33,8.26-1.51,9.13-1.2,0,0-20.2-6-17.44,1.95.88,2.53,5.49.46,8.31-.75"/><path class="cls-2" d="M17.49,39.2l0,0,.06.09a1,1,0,0,0,.37.28h0c7.63,5.27,12.29,11.25,14.86,20.18h0a1.43,1.43,0,0,0,.12.31l0,0,.05.07a.85.85,0,0,0,.26.24c.9.6,2.85.07,4.63-1.3s2.92-3.44,2.28-4.4l0-.07a1,1,0,0,0-.48-.35C32,49.06,27.47,43.12,24.89,34.21h0s0,0,0,0a2,2,0,0,0-.1-.26l-.05-.1,0,0a1.21,1.21,0,0,0-.23-.22c-.89-.62-2.87-.1-4.65,1.29S17,38.09,17.44,39.1l0,.1"/><path class="cls-2" d="M36.15,64.64a1.23,1.23,0,0,0,.41.37h0l.05,0,.23.11a12.31,12.31,0,0,1,6.39,5.16l.17,0c1.08-.13,2-.22,2.84-.28-1.43-3.67-2.3-6.17-2.3-9.31h0a1.34,1.34,0,0,0-.15-.88c-.64-1-2.87-.74-5,.59s-3.29,3.22-2.66,4.23"/><path class="cls-2" d="M69.71,119.86c-4.24-3.91-8.63-14.5-8.59-23.41a1.61,1.61,0,0,0,0-1.4c-.61-1.14-2.93-1.08-5.19.13s-3.6,3.1-3,4.24a1.31,1.31,0,0,0,.61.55c6.36,6.09,8.34,15.37,8.66,23.68a1.48,1.48,0,0,0,0,1.21c.61,1.13,2.93,1.08,5.19-.13s3.6-3.11,3-4.24a1.39,1.39,0,0,0-.75-.63"/><path class="cls-2" d="M50.16,92.75a1.1,1.1,0,0,0,.17.58c.63,1,2.85.75,5-.58s3.29-3.23,2.66-4.23a1.05,1.05,0,0,0-.31-.32c-4.18-3.2-7.48-8.27-10.09-14.71l-1,.33c-.47.15-1,.33-1.49.54,3,5.71,4.16,12,5.14,18.4Z"/><path class="cls-2" d="M57.78,123.9c-.84-.45-1.42-1.53-2.09-2.22s-1.31-1.57-2-2.35-1.46-1.74-2.17-2.62a15.55,15.55,0,0,1-1.92-2.65,5.16,5.16,0,0,1-.46-1.49c-.06-.46.15-1,.08-1.44a1.63,1.63,0,0,0-.52-1c-1-.82-2.33-.06-3.09.63s-1.77,1.9-1.26,3a2.14,2.14,0,0,0,1.61,1,5.05,5.05,0,0,1,3.12,1.45c1,1.16,1.94,2.47,2.95,3.67,1.46,1.75,3.16,3.32,3.14,5.8,0,.78-.62,1.49-.42,2.31.24,1,1.47.74,2.17.51a7.22,7.22,0,0,0,1.31-.64c.84-.47,2-1.39,1.91-2.46a1.3,1.3,0,0,0-.27-.77c-.43-.57-1.5-.29-2.11-.62"/><path class="cls-2" d="M44.94,108.21a2.68,2.68,0,0,0,.88-2.08,1,1,0,0,0-.62-.85,5.51,5.51,0,0,0-1.13-.24,6.61,6.61,0,0,1-1.7-.76A7.57,7.57,0,0,1,41,103.21a36.21,36.21,0,0,1-2.75-2.92c-1.89-2.1-4.44-3.38-6.77-5-.84-.56-1.62.8-.78,1.35a45.66,45.66,0,0,1,5.91,4.13,13.4,13.4,0,0,1,4,5.69,2.36,2.36,0,0,1,.11,1.61,1.16,1.16,0,0,0,1,1.69l.08,0a1.59,1.59,0,0,0,.83,0,5.25,5.25,0,0,0,2.35-1.54"/><path class="cls-2" d="M64,81.59c.15-.9.18-1.83.41-2.72a9.2,9.2,0,0,1,1.14-2.49,3.13,3.13,0,0,1,.51-.65l.25-.26c.69-.67-.13-1.5-.7-1.82a3.2,3.2,0,0,0-3-.36c-1.32.75-.68,1.93-.15,3a3.89,3.89,0,0,1,.44,1.83,21.07,21.07,0,0,1-.84,5.16c-.33,1.18-.61,2.83-1.89,3.36a4.86,4.86,0,0,0-1.25.49c-1.54,1.2,2.25,2.65,3.11,2.66,1.54,0,1-1.61.82-2.5a6.3,6.3,0,0,1,.41-2.78A29.72,29.72,0,0,0,64,81.59"/><path class="cls-2" d="M66.58,64.82a18.21,18.21,0,0,0-.08-2.56,40.58,40.58,0,0,0-.61-4.54c-.15-.83-.31-1.65-.48-2.48-.2-1-1.71-.57-1.51.41a52.62,52.62,0,0,1,1.17,8.73,4.8,4.8,0,0,1-.31,2.09,6,6,0,0,1-1.6,2c-.52.45-1.47.91-1.46,1.69,0,1.42,2.39,1.86,3.44,2a1.79,1.79,0,0,0,1.75-.72,1.45,1.45,0,0,0,0-1.08c-.13-.39-.32-.79-.4-1.12a6.39,6.39,0,0,1-.16-1.8c.07-.85.22-1.7.28-2.55"/><path class="cls-2" d="M44.22,44.44a9.76,9.76,0,0,1-.65,2.26,7.5,7.5,0,0,1-1.39,1.69,2.44,2.44,0,0,1-1.26.77c-.49.09-1.06.05-1.45.43-1.21,1.18.23,2.61,1.19,3.32a2.38,2.38,0,0,0,2.12.54c.61-.28.53-1,.5-1.51A4.3,4.3,0,0,1,43.63,50c.41-1,1.07-2,1.46-3a17.59,17.59,0,0,0,.82-3.11,44,44,0,0,0,.6-6.58c0-1.19.06-2.36.1-3.55,0-1-1.53-1-1.56,0-.12,3.57,0,7.2-.83,10.69"/></g></g></svg>
