<svg xmlns="http://www.w3.org/2000/svg" xmlns:xlink="http://www.w3.org/1999/xlink" viewBox="0 0 101.39 138"><defs><style>.cls-1{fill:none;}.cls-2{fill:#0d5948;}.cls-3{fill:#723032;}</style><symbol id="Болванка-новая" data-name="Болванка-новая" viewBox="0 0 101.39 138"><rect class="cls-1" width="101.39" height="138" rx="6.76"/></symbol></defs><g id="Слой_2" data-name="Слой 2"><g id="Слой_1-2" data-name="Слой 1"><use width="101.39" height="138" xlink:href="#Болванка-новая"/><path class="cls-2" d="M67.29,46.65l.22,0,.94,0A14.26,14.26,0,0,1,78,50.51a41.08,41.08,0,0,0-6.21-16.25c-5-7.62-20.45-20.76-20.26-20.49,5.49,8.59,11.82,15.84,14.31,26,.55,2.27,1,4.56,1.46,6.86"/><path class="cls-2" d="M71.09,84.81A92.42,92.42,0,0,0,75.6,73.88c-3.15,2.22-8.81,1-12-.06-.56,1.34-1,2.46-1.66,3.88a15.81,15.81,0,0,1,9.2,7.11"/><path class="cls-2" d="M64.92,97.06a27.59,27.59,0,0,1-8.8-5.12c-4,11.51-5.55,23.59,3.27,32.7a.17.17,0,0,0,.29-.15,37.4,37.4,0,0,1,5.24-27.43"/><path class="cls-3" d="M49.58,28.92a.51.51,0,0,0-.84-.12c-3.85,4.17-7.92,9.06-9.5,14.54a12.93,12.93,0,0,0,.53,8.48,44.77,44.77,0,0,0,2.77,4.82.14.14,0,0,0,.25-.1c-1.32-6.72-.4-15.67,5-20.33,2.71,4.19,2,12.14.34,16.7a.11.11,0,0,0,.18.11c1-.93,4.19-4.3,4.19-10.76a31.06,31.06,0,0,0-2.91-13.34"/><path class="cls-3" d="M24.17,55.83a.1.1,0,0,0-.18,0,6.2,6.2,0,0,0,2.68,5.65c2.82,1.94,7.28,1.26,9.66.21a.09.09,0,0,0,0-.18c-1.92.09-8.8,0-12.12-5.72"/><path class="cls-3" d="M31.73,94.1c-3.8,2.9-15.19,3.66-15.23,3.33C14.66,82.52,26.16,76.06,34.64,75.6a.19.19,0,0,1,.09.36c-9.87,4.44-11.61,8.82-12.22,16a.24.24,0,0,1,0,.1c6.75,2,13.58-5.5,15.77-11.56a.18.18,0,0,1,.35,0C39,82.29,39.67,88,31.73,94.1"/><path class="cls-3" d="M57.33,78.7A18.75,18.75,0,0,1,68.51,90.93c-6.85,2-14.1-6.1-15.63-8.56a.22.22,0,0,0-.4.12c.14,8.58,13.1,15.1,20.42,14.62a.54.54,0,0,0,.49-.6c-.3-3-2.44-17.74-16-18.14a.17.17,0,0,0-.06.33"/><path class="cls-3" d="M56.45,64.54c-.06,0-.15,0-.1-.1,1-1.22,4.6-5.18,9.15-5.88,2.93-.45,6.26.93,7.32,3.54a.1.1,0,0,1-.13.13c-1.27-.54-8.22-3.06-16.24,2.31"/><path class="cls-2" d="M28.46,127.75h3.46c.25-2.55.4-13-.17-16.77a20.4,20.4,0,0,1,2.81-1.1,139.44,139.44,0,0,1-.1,17.87h2.87c.81-5.92,2.19-26.57-1.45-27.24s-16.22,12.2-19.77,17.58a.2.2,0,0,0,.24.29c2-.94,8.32-4,12.21-5.83a128.92,128.92,0,0,1-.1,15.2"/><path class="cls-3" d="M40.26,66.91C37,65.38,30.6,68.07,26,69.39c-4.21,1.2-7.5-1.46-9.27-5-1.06-2.1-1.19-4.35-1.6-6.58,1.76-2.73,13.16-12.32,16.84-5.67,3.33,6,6.21,8,7.39,8.59.13.07.25-.1.15-.22C34.14,54.62,34.8,47.5,28.56,45.62c-6.69-2-11.43,7.21-15.91,10.59a.8.8,0,0,0-.33.78c.28,1.62,1.23,6.94,2.32,10.83A10.3,10.3,0,0,0,19.37,74c6.89,3.88,14.39-5.71,19.34-4.1a24.05,24.05,0,0,1,1.55-3"/><path class="cls-3" d="M46.47,62.25C44,64.79,40.54,69.53,39.9,73c-.75,4,1.76,8.29,5.6,8.88,4,.63,8.2-2.46,8.33-5.78.26-6.85-7.24-13.95-7.36-13.82M50,71.65a3.08,3.08,0,0,1-6,1.32c-1-2.69,1.6-5.67,2.73-8.16,1.42,1.86,3.05,4.83,3.22,6.84"/><path class="cls-3" d="M85.06,62.87C81.56,56.07,76.37,47.38,67.6,48c-4,.27-7.09,3.25-9.42,6.24-1,1.21-4.8,6.25-9,7.69a33.73,33.73,0,0,1,2.52,3c3.91-1.72,11.44-11.65,20.16-10.13,4.66.81,8.11,5,11,8.59C75,73.68,62.46,69.28,55,68.43a.15.15,0,0,0-.08.29C58.16,70.57,68,75,73.05,73.54c6.86-2,11-8.28,12-9.89a.83.83,0,0,0,0-.78"/><path class="cls-2" d="M48.07,106.17c-2.25-4.57-3.91-9.41-3.79-14.54A22.81,22.81,0,0,1,46.17,84a8.24,8.24,0,0,1-1-.07,8.05,8.05,0,0,1-2-.61,35.3,35.3,0,0,0-1.73,17.12c.54,3.87,2.27,7.37,3.86,10.9,2.37,5.28,2.36,11.79,1.16,16.89,0,.05,5.05.37,5.05.37.64-1.25,1-8.7.22-12.87a38,38,0,0,0-3.64-9.55"/></g></g></svg>
