<svg xmlns="http://www.w3.org/2000/svg" xmlns:xlink="http://www.w3.org/1999/xlink" viewBox="0 0 101.39 138"><defs><style>.cls-1{fill:none;}.cls-2{fill:#723032;}.cls-3{fill:#eae8dc;}.cls-4{fill:#0d5948;}</style><symbol id="Болванка-новая" data-name="Болванка-новая" viewBox="0 0 101.39 138"><rect class="cls-1" width="101.39" height="138" rx="6.76"/></symbol></defs><g id="Слой_2" data-name="Слой 2"><g id="Слой_1-2" data-name="Слой 1"><use width="101.39" height="138" xlink:href="#Болванка-новая"/><path class="cls-2" d="M43.89,96.4a.17.17,0,0,1-.21.24C37.05,93.75,37.88,86.48,40.1,86c1.82-.39,2.35,1.8,2.11,3.81a11.08,11.08,0,0,0,1.68,6.59"/><path class="cls-2" d="M40.3,106.57a56,56,0,0,1-11.75,1.63,23.33,23.33,0,0,1-5.29-.56c-2.78-.64-6.2-1.69-8.37-4.11,2.9-3.21,7.28-4.84,13-4.84,3.44,0,11.11,1.76,13.64,2.37a.15.15,0,0,0,.11-.27c-3.18-2.22-15.91-12-12.85-23.81,0,0,7.63.51,10.93,5.23l0-.26c-.81-5.92-8.65-10.2-13.55-10.2a6.11,6.11,0,0,0-1.16.1.79.79,0,0,0-.55.56c0,.1-4.13,10.32,3,22.38a18.92,18.92,0,0,0-2.14-.12c-6.94,0-12.83,3.9-15.22,9.26-.21.46-.32.76.27,1.35,1.88,1.88,7.62,7.54,16.06,7.54,4.71,0,9.53-1.77,14.33-5.26l1.8-1.32s.13-.18-.18-.12c-.64.12-2.07.45-2.07.45"/><path class="cls-3" d="M40.12,70.48s0,.07,0,.07a0,0,0,1,0,0-.07"/><path class="cls-4" d="M43.32,68.9a32.73,32.73,0,0,1-4.84-1.78c-4-2.13-5.43-6.6-2.87-11.26A26,26,0,0,1,40,50.24c-.26-.87-.79-2.87-1-3.74-4.19,3.67-7.73,8.38-8.12,13.73-.48,6.73,4.28,8.87,9.44,10.18.48.12,1.63.36,3.14.66,0-.72,0-1.45-.06-2.17"/><path class="cls-2" d="M58.05,124.33c-15-3-14.51-13.83-13.91-17a.18.18,0,0,1,.35,0c.43,1.87,1.69,6.61,3.77,8.38,4.09,3.47,5.82,3.61,8.59,4.41,1.15-5.44-1.7-11-5.43-15.44a.17.17,0,0,1,.19-.27c3.84,1.71,13,11.36,7.44,19.57a1,1,0,0,1-1,.4"/><path class="cls-4" d="M81.05,46.71c-1.47-4.05,3.28-11-.09-14.67-4.38-4.84-12.68-3.6-18-1.81A50.69,50.69,0,0,0,43.61,42.38a14.76,14.76,0,0,0,1,3.79l.13-.1c14.46-10.67,25.44-11.37,29-6.24,1.49,2.15.51,4.81,1.12,8.47.81,4.8,9.85,15.14-4,21.48A30.64,30.64,0,0,1,71,73.44a17.93,17.93,0,0,0,7.89-4.55c7.7-8,3.81-17.53,2.13-22.18"/><path class="cls-2" d="M46,28.28c1.44-1.51,3.07-8.33.23-10a5.08,5.08,0,0,0-2,4.78A12.06,12.06,0,0,0,46,28.28m2.36-.57c-1.33,3.44-5.26,8.38-9.47,6.62-4-1.67-6.12-5.83-4.48-9.94a10.31,10.31,0,0,1,1.9-2.91c2.4-2.92,7-5.78,10.69-4.9,3.12.74,3.1,6.61,1.36,11.13m-4,2.23s-.05,0-.06-.06A10.48,10.48,0,0,1,42,21.79a10.17,10.17,0,0,1,.36-1.48,15.49,15.49,0,0,0-3.39,3.37c-1.08,1.78-2.17,4.62-.82,6.69,1.17,1.78,3.81,1.37,4.77.69.49-.35,1-.72,1.44-1.12"/><path class="cls-2" d="M66.44,71.61c.16,1.86-.21,9.08-4.56,13.79a.12.12,0,0,0,.14.2c9.51-4.16,7.57-14.57,6.9-17.22a.8.8,0,0,0-.81-.59C53.27,68.6,52,76.24,51.93,78.11a.14.14,0,0,0,.26.07c4-6.43,11-6.8,14.25-6.57"/><path class="cls-2" d="M59.49,103.59c-.2,0-.19-.35,0-.39,2.56-.53,11.5-3.21,12.58-14.77C67.3,88.38,56.86,91,51.54,100.91a.08.08,0,0,1-.15,0C53.29,89.21,71.23,80.49,81.27,83a.35.35,0,0,1,.15.58c-4.82,4.55-8.91,21.86-21.93,20"/><path class="cls-2" d="M48,91.48a.12.12,0,0,1-.15-.18c2-2.57.47-5.35,1.57-8.29a2.11,2.11,0,0,1,3.23-1.14C54.4,83,54.08,88.17,48,91.48"/><path class="cls-2" d="M58.19,86.64a9.43,9.43,0,0,1-3.95,6c-1.5,1-5.77,2.09-4.81,1.62A8.72,8.72,0,0,0,53.64,89c.31-1.21.5-2.83,1.43-3.78,1.49-1.51,3.45-.87,3.12,1.39"/><path class="cls-4" d="M44.83,73.05a4.94,4.94,0,0,1,2-.39l.6,0,.18,0c0-17.84-5.73-22.28-6.28-35.46-.22,0-.42,0-.64,0A5.85,5.85,0,0,1,39,37c.13,10,6.6,20.73,5.87,36"/><path class="cls-2" d="M45.47,88.05a.1.1,0,0,1-.17.08C43.59,85.72,40.43,74,46.92,74.06c1.3,0,2.46,1.94,1.55,3.72-1.3,2.56-3.65,3-3,10.27"/><path class="cls-4" d="M44.91,118.17c.13,3.47.28,7,.44,10.42h3.11c-.22-2.38-.38-4.75-.52-7.11a14.83,14.83,0,0,1-3-3.31"/><path class="cls-4" d="M53.24,68.9H50.51c1.08-9.21,8.35-22.54,16.35-27.11.16-.12.82.11.15.6C60.17,47.32,54.26,59.91,53.24,68.9"/></g></g></svg>
