<svg xmlns="http://www.w3.org/2000/svg" xmlns:xlink="http://www.w3.org/1999/xlink" viewBox="0 0 101.39 138"><defs><style>.cls-1{fill:none;}.cls-2{fill:#723032;}.cls-3{fill:#0d5948;}</style><symbol id="Болванка-новая" data-name="Болванка-новая" viewBox="0 0 101.39 138"><rect class="cls-1" width="101.39" height="138" rx="6.76"/></symbol></defs><g id="Слой_2" data-name="Слой 2"><g id="Слой_1-2" data-name="Слой 1"><use width="101.39" height="138" xlink:href="#Болванка-новая"/><path class="cls-2" d="M42.4,29.8c-4.55-.74-10.11,2.59-12.18,7.71-1.78,4.39-1.17,11.09,2.85,13.84a.29.29,0,0,0,.45-.3,14.63,14.63,0,0,1,.52-9c2.11-4.83,6.58-6.12,9-3.91,4.08,3.71,2.51,9.4.47,13.37a.29.29,0,0,0,.41.38c3.75-2.31,7.36-7.71,7.36-12.5,0-5.1-4.29-8.84-8.89-9.59"/><path class="cls-2" d="M22.29,45.79c-5.6-1.41-9.83,1-11.26,5.28C7.65,61.23,17.36,70.34,26.11,66c.74-.37-11.74-1.15-10.08-9.66A7.18,7.18,0,0,1,21.18,51c3.27-.87,5.7.66,7.83,2.37.4.33-2.13-6.42-6.72-7.58"/><path class="cls-3" d="M68.32,101a7.35,7.35,0,0,0,6.17-4.09,1,1,0,0,0,.45,0,2.69,2.69,0,0,0,2.4-2.4,2.26,2.26,0,0,0-2-2.68,2.75,2.75,0,0,0-3.16,1.69,2.43,2.43,0,0,0,.49,2.32,6.6,6.6,0,0,1-4.64,4.18c-.61.07-.62,1,.27,1"/><path class="cls-3" d="M82.9,100.26A2.5,2.5,0,0,0,79.2,99a2,2,0,0,0-1,1.49,10.8,10.8,0,0,1-5,1.34c-.68.06-.65.84,0,1a10.75,10.75,0,0,0,5.06-.15c.24,1.14,2.15,2.12,4,.78.85-.62.92-2.31.63-3.21"/><path class="cls-3" d="M40.91,49.41a2.38,2.38,0,0,0-3,.3,3,3,0,0,0-.81,2.78,2.37,2.37,0,0,0,2.57,1.72l.17,0a2.56,2.56,0,0,0,2.37-1.82,2.67,2.67,0,0,0-1.26-3"/><path class="cls-3" d="M39.62,66.16a13.42,13.42,0,0,1-4.87-5.34c-.12-.3-1.94-.24-1.87,0,.48,1.9,4.42,5.55,6.33,5.83.38,0,.73-.35.41-.54"/><path class="cls-3" d="M40.13,60.39a21.06,21.06,0,0,1,.07-8.18c.07-.22-1.92.55-1.94.76a20.26,20.26,0,0,0,1.17,7.68c.21.5.92.5.7-.26"/><path class="cls-3" d="M35.88,58.36c-.68-1.22-1.93-1.45-3.31-1.21a2.78,2.78,0,0,0-2.1,2.19,1.86,1.86,0,0,0,0,.33,2.41,2.41,0,0,0,0,.71,2.48,2.48,0,0,0,1.27,1.73,2.25,2.25,0,0,0,.45.19,2.22,2.22,0,0,0,1.17.24,1.09,1.09,0,0,0,.25,0,2.79,2.79,0,0,0,2.5-1.4,3.15,3.15,0,0,0-.19-2.74"/><path class="cls-2" d="M53.59,45.84a14.87,14.87,0,0,0-5.36,8,.26.26,0,0,0,.45.24c6.24-6.7,12.53-7.65,16.25-3,2.81,3.53.62,8.56-3.4,9.81-3.09,1-8.1-.61-10.06-1.29a.21.21,0,0,0-.2.36c1.94,1.85,7.17,4.64,10.5,4.36,6.28-.53,9.38-5.19,9.63-10.53.25-5.17-7.37-15.32-17.81-8"/><path class="cls-2" d="M49.53,64.78a.33.33,0,0,0-.14.62c6.5,3.23,10.73,10.23,6.5,14.71-4,4.2-11.81.11-12.89-6.09a.26.26,0,0,0-.52,0c-.56,4.44.44,9,3.51,12.18,3.81,3.94,12.26,2.68,15.31-1.92C68.06,74.11,57.21,65,49.53,64.78"/><path class="cls-2" d="M37.52,72.87a.33.33,0,0,0-.59.19c-.22,7.44-4,11.18-9.25,9.5-4.47-1.44-6-10.1,4.19-16.2a.26.26,0,0,0-.14-.48c-2.43.22-9.26,1.93-12.36,7.38-2.64,4.62-.23,11.48,4.1,13.51C32.88,91.18,39,85,39.54,79.53a9.69,9.69,0,0,0-2-6.66"/><path class="cls-3" d="M44.42,68.49a14.12,14.12,0,0,1,0-5.42,2.9,2.9,0,0,0-1.27,0c-.59,1,.09,4.32.62,5.57.16.37.77.43.65-.19"/><path class="cls-3" d="M45.37,59.38a2.62,2.62,0,0,0-2.24.19A2.76,2.76,0,0,0,41.92,62a2.57,2.57,0,0,0,1.19,2.06,2.83,2.83,0,0,0,3.5-.89c.62-1.15.47-3.3-1.24-3.82"/><path class="cls-3" d="M87,15S61.84,34.8,57.65,38.26c0,0-1.3,2.42-3.2,5.54a11.92,11.92,0,0,1,6.92-2.42,10.4,10.4,0,0,1,1.77.16v0C67.52,37.68,84.83,24.15,87.06,22c0,0,.13-5.68,0-6.95"/><path class="cls-3" d="M46.26,105.75c-3,1.23-9.4,3.42-12.5,3.37,3-6.94,6.28-14.81,9.79-23.05-1.45-1.39-2.36-4.87-2.66-6.41-.37,4-2.66,8.61-8.25,10C24.35,107.6,16.93,124,15,128.41c-.09.21,10.3.28,10.46,0,.27-.46,1.5-3.27,3.38-7.63a1.7,1.7,0,0,1,.24-.23c3.28-3,12.32-8.08,18.62-10.35a8.07,8.07,0,0,1-1.39-4.46"/><path class="cls-2" d="M68,105.63a6.88,6.88,0,0,0-5.16-3.45l.25-.18c2.22-1.79,3.8-6.55.78-8.5-6-3.91-15.62,3.9-16.18,10.49a8.38,8.38,0,0,0,1.72,6.11c3.58,4.15,10,6.26,15,4,3.22-1.43,5.29-4.8,3.6-8.5m-17.1-1.22c-1.33-2.26,3.4-7.52,6.27-8.65a2.35,2.35,0,0,1,3.38,2.55,5,5,0,0,1-1.86,3.27,12.88,12.88,0,0,0-7.79,2.83M63.6,111c-1.59,1.13-7,1.85-9.87-.23-1.77-1.29-1.09-3.24.33-4.45,3-2.55,7.82-3,10.8-.72a2.74,2.74,0,0,1,.92,2.16c0,1.3-1.25,2.58-2.18,3.24"/></g></g></svg>
