<svg xmlns="http://www.w3.org/2000/svg" xmlns:xlink="http://www.w3.org/1999/xlink" viewBox="0 0 101.39 138"><defs><style>.cls-1{fill:none;}.cls-2{fill:#0d5948;}.cls-3{fill:#723032;}</style><symbol id="Болванка-новая" data-name="Болванка-новая" viewBox="0 0 101.39 138"><rect class="cls-1" width="101.39" height="138" rx="6.76"/></symbol></defs><g id="Слой_2" data-name="Слой 2"><g id="Слой_1-2" data-name="Слой 1"><use width="101.39" height="138" xlink:href="#Болванка-новая"/><path class="cls-2" d="M38.09,85.37a8.1,8.1,0,0,1,2.83-1.27c.38-6.35,5.7-25.8,6.8-30.66a.21.21,0,0,0-.39-.15C45.26,56.9,38.07,70,36.57,80.09a12.9,12.9,0,0,1,1.52,5.28"/><path class="cls-3" d="M73.84,23.6c1-1.91.66-4.25-1.78-4.67-2.63-.44-5.18,2.25-6.24,4.33A13.37,13.37,0,0,0,65.31,33a.21.21,0,0,0,.39,0,15.25,15.25,0,0,1,4.71-6c1.17-1,2.69-2,3.43-3.43"/><path class="cls-3" d="M73.88,38.56c2.25-.91,4.89-2.78,4.12-5.54-.57-2.09-3.35-2.59-4.92-1.27-2.28,1.93-6.31,4.64-10,4.69a.2.2,0,0,0-.1.38c1.71,1,6.57,3.49,10.89,1.74"/><path class="cls-3" d="M60.32,31.54a.2.2,0,0,0,.36-.11c.48-3.94,2.42-6.8,2.68-10.27.17-2.28-1.81-4.46-4.21-3-4,2.48-.64,10.92,1.17,13.35"/><path class="cls-3" d="M83,63.19c4.61-1.41,5.89-7.66,4-11.85C84.78,46.49,77.88,43,73.67,43a.19.19,0,0,0-.07.37c1.79.74,6.22,3,8.21,7.52,1.32,3,.76,8.12-3.69,7.91-4.27-.2-7.73-8-8.7-10.46a.19.19,0,0,0-.36,0C68.24,56.49,73.68,66,83,63.19"/><path class="cls-3" d="M49.19,61.48c.13,5.3,3.21,11.86,9.57,11.24,13.4-1.3,12.28-20.55,4.42-27.78-.64-.59,6.65,19-2.89,19.22-7.51.17-6.48-8.09-4.95-12,1.13-2.93,3.58-8.8,3.58-8.8C52.84,46.92,49,55,49.19,61.48"/><path class="cls-3" d="M26.16,40.73c1.38-5.48,6.52-7.46,11.58-7.25,6.14.26,12.2,5.08,13,10,0,.09-.11.14-.17.07-1.21-1.46-7.3-8.14-15.49-5.6-4.37,1.35-5.47,7-2.15,10.37S43.67,51,48.74,44a7.15,7.15,0,0,1,1.44,1.86c-4.11,6.56-10.06,9.3-17.17,7.37-5.69-1.53-8.29-6.75-6.85-12.45"/><path class="cls-3" d="M55.06,35.81a.18.18,0,0,0,0-.34c-2.62-.8-13.12-4.38-13.38-10.12-.23-5,5.35-6.63,9.38-3.3a18.64,18.64,0,0,1,4.12,5.4.17.17,0,0,0,.33-.09c-.42-5.46-3.3-11.29-8.5-12.23-4.13-.75-9.49.66-10.63,5.25-2.48,9.93,9.67,17.76,18.68,15.43"/><path class="cls-2" d="M43.59,103.78A38.39,38.39,0,0,0,44.6,86a.56.56,0,0,0-.56-.44,12.41,12.41,0,0,0-7.82,3.53c.34-7.34-3.64-9.07-4.63-14.31a.38.38,0,0,0-.43-.31c-1.14.18-4.63.88-5.77,3C24.8,71,17.83,65.31,15.94,63.89a.56.56,0,0,0-.8.13c-3.09,4.65-3.58,14.72,0,19.38a10.88,10.88,0,0,0-7.83.35.34.34,0,0,0-.12.5c4,6,4.82,12.12,10.75,16.36a11.33,11.33,0,0,0-6.56,2,.52.52,0,0,0-.17.63c3.63,7.68,11.3,4.92,22.36,12.83a.25.25,0,0,0,.4-.22c-1.72-16-13.78-36.75-13.78-36.75C34.7,90.87,37.57,111.93,38.46,122a23.38,23.38,0,0,1,.1,4.22c-.08,1.23,5.37.65,5.41.58.31-.08-2.45-15.72-.38-23"/><path class="cls-2" d="M88.09,77.39c-3.87-.59-8.85,1.32-11.61,4.23-.62-2.23-3.24-5-4.14-5.87a.43.43,0,0,0-.61,0c-1.34,1.2-6.47,6.12-6.27,10.73a6.24,6.24,0,0,1-3.81-2.34.39.39,0,0,0-.64,0c-1.31,2-6.26,10.37-3.72,18.23,3.11,9.66-1.37,17.32-2.1,25.65a4.17,4.17,0,0,0,3.57.23s8-37.43,20.72-44.23a94.62,94.62,0,0,0-10.91,24.87c7.82-2,11.8-5.39,13-6.51a.69.69,0,0,0,.14-.82,9.57,9.57,0,0,0-2.94-3.25l-.37-.25c2.72-.74,5.24-4,6.94-6.27a.52.52,0,0,0-.13-.76,20,20,0,0,0-5.12-2.54c3.9-3.5,5.76-8.45,8.16-10.63a.28.28,0,0,0-.12-.49"/></g></g></svg>
