<svg xmlns="http://www.w3.org/2000/svg" xmlns:xlink="http://www.w3.org/1999/xlink" viewBox="0 0 101.39 138"><defs><style>.cls-1{fill:none;}.cls-2{fill:#232120;}</style><symbol id="Болванка-новая" data-name="Болванка-новая" viewBox="0 0 101.39 138"><rect class="cls-1" width="101.39" height="138" rx="6.76"/></symbol></defs><g id="Слой_2" data-name="Слой 2"><g id="Слой_1-2" data-name="Слой 1"><use width="101.39" height="138" xlink:href="#Болванка-новая"/><path class="cls-2" d="M88.44,98.76c-10.12-3.36-17.81-6.59-22.87-9.59-5-2.83-11.18-7.69-18.51-14.46v-.78l4.21-.47a58.45,58.45,0,0,1,7.22-.61,3.47,3.47,0,0,0,.27.59c.45.88,1,1.32,1.65,1.32A5.86,5.86,0,0,0,64.06,73l.1-.13c1.84-4.39,3.86-10,6-16.77a14.36,14.36,0,0,1,1.16-3,3,3,0,0,0,.86-2c0-.45-.32-1.1-2.69-2.44C66.57,47,64.62,46.1,63.57,46.1a11.34,11.34,0,0,0-3.17.59c-2.07.39-6.29,1.16-12.91,2.35h0q.12-3.39.25-6.08l2.56-.31a112.49,112.49,0,0,0,12.91-2.23c1.19-.24,2.78-.67,2.78-1.71s-.66-1.66-2-2.23a10.68,10.68,0,0,0-4.47-1.38,9,9,0,0,0-2.17.49c-2.45.66-5.57,1.3-9.31,1.91A29.61,29.61,0,0,1,49,31.09,10.6,10.6,0,0,0,49.48,28c0-1.33-1.23-2.5-3.75-3.57a10.13,10.13,0,0,0-4.19-1c-1.66,0-2.5.47-2.5,1.37A4.29,4.29,0,0,0,40,27.44a16,16,0,0,1,1.12,4.63c.16,1.32.26,3.48.32,6.46-5.12.75-9.94,1.32-14.34,1.69-2.86.09-4,.42-4,1.18s.55,1.36,1.71,2.17c1.09.63,3,.93,5.67.93,2.06,0,5.74-.28,11-.84V50c-5.73.81-11.4,1.42-16.92,1.8h-.07a11.58,11.58,0,0,0-3.62-.53c-.63,0-1.7.25-1.7,1.94,0,.31.27.57,1,1A7.32,7.32,0,0,1,22.88,58a35.23,35.23,0,0,1,1.6,7.29L25.78,72a7.41,7.41,0,0,0,1.43,4c.63,1,1.28,1.53,2,1.53s1.17-.45,1.58-1.32a5.13,5.13,0,0,0,.33-.86,9.82,9.82,0,0,0,1.62.11,44.51,44.51,0,0,0,5.5-.48l1.52-.17a6.6,6.6,0,0,1-1.05,1.59,42.29,42.29,0,0,1-6.9,8A117.13,117.13,0,0,1,17,96.19a90.45,90.45,0,0,1-11.26,7.34l-.17.1v.2c0,.32.21.71,1.22.71.43,0,1.5-.16,5.83-1.57a66.74,66.74,0,0,0,11-5.07,85.57,85.57,0,0,0,11.73-9q3-3.24,5.55-6.18-.26,6.85-.63,11.38c-.34,2.66-.6,4.58-.76,5.73a23.8,23.8,0,0,0-.91,5.29A24.62,24.62,0,0,0,40.06,111c1.42,3.17,2.19,3.58,2.71,3.58.89,0,1.85-.88,2.95-2.7a17.19,17.19,0,0,0,1.79-7.79c0-2.19-.08-5.12-.23-8.68C47.12,91.16,47,87,47,83.18V80.24c9.39,11,16.2,18.21,20.24,21.4,1.32,1.41,3.79,2.13,7.32,2.13A57.5,57.5,0,0,0,89.18,102c1.9-.39,2.68-.79,2.68-1.39S91.44,99.58,88.44,98.76ZM47.15,63.43l5.57-.84q2.56-.35,6.35-.71a12.22,12.22,0,0,0,1.52-.4,39.83,39.83,0,0,1-1.53,7,9.24,9.24,0,0,0-3.45-1,45.69,45.69,0,0,0-6.62.88l-1.89.38C47.11,66.94,47.13,65.15,47.15,63.43ZM59.73,51.51c1.68,0,1.89.74,1.89,1.39a38,38,0,0,1-.51,5.63c-.4-.19-.88-.38-1.45-.59h0a21.27,21.27,0,0,0-3.88-.66c-.09,0-.34,0-3.4.52-1.69.35-3.4.67-5.12,1,0-2.13.08-4.14.12-6l.2,0C54.14,51.93,58.24,51.51,59.73,51.51ZM41.41,59.76c-3.37.53-6.78,1-10.21,1.42a9.85,9.85,0,0,0-1.56.16c-.18-.9-.37-1.83-.58-2.8a16.34,16.34,0,0,1-.36-3c.69-.12,1.48-.3,2.36-.53,2.19-.36,5.62-.84,10.39-1.45Q41.43,56.75,41.41,59.76Zm-8,5.31a62,62,0,0,0,7.52-.72l.44-.06c0,1.91,0,3.74-.08,5.51-3.25.48-6.62.85-10.08,1.12q-.24-2.46-.91-6.18A12.67,12.67,0,0,0,33.41,65.07Z"/></g></g></svg>
