<svg xmlns="http://www.w3.org/2000/svg" xmlns:xlink="http://www.w3.org/1999/xlink" viewBox="0 0 101.39 138"><defs><style>.cls-1{fill:none;}.cls-2{fill:#232120;}</style><symbol id="Болванка-новая" data-name="Болванка-новая" viewBox="0 0 101.39 138"><rect class="cls-1" width="101.39" height="138" rx="6.76"/></symbol></defs><g id="Слой_2" data-name="Слой 2"><g id="Слой_1-2" data-name="Слой 1"><use width="101.39" height="138" xlink:href="#Болванка-новая"/><use width="101.39" height="138" xlink:href="#Болванка-новая"/><path class="cls-2" d="M41.56,89.73a14.11,14.11,0,0,0-2.37.22l-2,.53,0-32.89c.89-7.39,1.36-9.51,1.58-10,1.13-1.84,1.13-2,1.13-2.16,0-1.7-1.08-3-3.23-4a15.05,15.05,0,0,0-6.66-2c-2.33,0-2.82,1.43-2.82,2.64,0,.23.12.6,1,1.75a6.11,6.11,0,0,1,1.18,3.57,56.16,56.16,0,0,1,.79,9l.11,6.33a6.56,6.56,0,0,0-.76,0,28.07,28.07,0,0,0-3.42.49c-7.81,1.25-13.54,2.06-17,2.41-.43,0-1.33.13-1.33.74,0,.84.81,1.73,2.52,2.73A13.61,13.61,0,0,0,15,70.42a13.55,13.55,0,0,0,2.63-.59,123.68,123.68,0,0,1,12.71-2.49l.42,24.74c-3.48.83-6.53,1.47-9.13,1.92a94.16,94.16,0,0,1-10.48,1.47c-2.91.27-3.42.54-3.42,1,0,.92.58,2.82,1.77,5.84,1,2,1.82,3,2.7,3A10,10,0,0,0,18,103.67a67.44,67.44,0,0,1,6.54-3.6c6.06-2.57,11-4.86,14.72-6.81,2.84-1.42,3.23-2,3.23-2.45C42.5,90.13,42.15,89.73,41.56,89.73Z"/><path class="cls-2" d="M88.37,93.86c-1.18-2-2.27-5.8-3.22-11.14-.42-2.41-.9-3.43-1.62-3.43-.91,0-1.13,1.3-1.21,2.26l-.69,5.69c-.79,3.73-2.1,6.53-3.87,8.3-1.55,1.36-4.62,2-9.13,2s-7.74-.73-9.95-2.15c-1.82-1.4-2.74-4.77-2.74-10,0-4.55.21-10.73.63-18.43a19.92,19.92,0,0,0,2.41.13,29.74,29.74,0,0,0,5.18-.71l8-1.75c1.16-.24,2.61-.47,4.33-.71,2.9-.61,4.25-1.4,4.25-2.51,0-.75-1.05-1.45-3.52-2.32h0a27,27,0,0,0-4.91-.84,13.59,13.59,0,0,0-2.3.56,116.27,116.27,0,0,1-13.18,3.4c0-.84.1-1.69.16-2.57.6-9.45,1.31-15.74,2.11-18.66a20.52,20.52,0,0,0,.77-2.92c0-1.57-1.12-3-3.32-4.19a12.11,12.11,0,0,0-6-1.77c-1.83,0-2.21.89-2.21,1.65a5.9,5.9,0,0,0,.85,2.57,27,27,0,0,1,1,8c0,10.15-.09,18.66-.25,25.29-.17,6.93-.25,12.94-.25,17.87,0,6.61,1.61,11.46,4.8,14.43,3.06,2.64,8.33,4,15.66,4,6,0,11-.92,14.64-2.74,3.29-1.58,5-3.37,5-5.31A8.11,8.11,0,0,0,88.37,93.86Z"/></g></g></svg>
