<svg xmlns="http://www.w3.org/2000/svg" xmlns:xlink="http://www.w3.org/1999/xlink" viewBox="0 0 101.39 138"><defs><style>.cls-1{fill:none;}.cls-2{fill:#232120;}</style><symbol id="Болванка-новая" data-name="Болванка-новая" viewBox="0 0 101.39 138"><rect class="cls-1" width="101.39" height="138" rx="6.76"/></symbol></defs><g id="Слой_2" data-name="Слой 2"><g id="Слой_1-2" data-name="Слой 1"><use width="101.39" height="138" xlink:href="#Болванка-новая"/><path class="cls-2" d="M81.76,62.11c-4.62-3.19-5.71-3.61-6.15-3.61a9.89,9.89,0,0,0-2.38.57c-1.92.51-3.81.92-5.61,1.21Q54,61.9,44.26,63L47.7,51l4.19-.51a98.68,98.68,0,0,0,11.7-2.06c1.09-.22,2.55-.62,2.55-1.6S65.42,45,64,44.4a11.42,11.42,0,0,0-4.83-1.49,8.13,8.13,0,0,0-2,.46C55.12,44,52.5,44.51,49.4,45l1.22-4.29a14.72,14.72,0,0,1,3.1-6.36c.94-1.2,1-1.48,1-1.66,0-1.21-1.15-2.59-3.54-4.22h0c-2.45-1.48-4.38-2.2-5.89-2.2-2.35,0-2.85,1.37-2.85,2.51l.71,1.38A13.28,13.28,0,0,1,44,35.08c0,1.83-.61,5.55-1.84,11.12-4.46.67-8.64,1.17-12.49,1.5C27,47.79,26,48.11,26,48.83s.6,1.46,1.85,2.33c1.17.68,3.18,1,6.12,1,1.44,0,3.75-.16,6.9-.46q-1.24,5.26-3,12C27.2,65,21.41,65.6,20.59,65.6a10.24,10.24,0,0,1-1.91-.29,5.06,5.06,0,0,0-.52-.23h0a15.92,15.92,0,0,0-3.69-.87c-.56,0-1.5.25-1.5,1.88a5.27,5.27,0,0,0,.47,2.06,34.34,34.34,0,0,1,2,8.57,161.15,161.15,0,0,1,.89,16.68c0,1.33-.05,2.8-.12,4.32a14.79,14.79,0,0,0-.25,2,6.38,6.38,0,0,0,1,2.93c.83,1.73,1.56,2.53,2.29,2.53s1.45-.61,1.87-1.77a8.4,8.4,0,0,0,1-3.59L21.05,70.12a8.09,8.09,0,0,0,1.08.08,21.86,21.86,0,0,0,4.1-.68c1.56-.28,3.21-.54,4.94-.8a50.53,50.53,0,0,0,4.77,9.12l.31.39c-1.64.2-3.23.38-4.75.52-2.26.08-3.19.39-3.19,1.07,0,.52.42,1.06,1.33,1.7a9.17,9.17,0,0,0,4.3.71c1.29,0,3.38-.15,6.25-.46.08.31.18.66.31,1a27.14,27.14,0,0,1,.59,4.6q-6.37.89-13.93,1.8c-1.42.3-1.94.59-1.94,1.06,0,.71.77,1.35,2.39,2a8.2,8.2,0,0,0,3.87,1A12.19,12.19,0,0,0,33.54,93c2.83-.46,5.4-.85,7.68-1.17v.56c0,2,0,3.52-.13,4.58a12.76,12.76,0,0,0-.29,2.74,30,30,0,0,0,.62,5.84c.38,1.6.82,2.31,1.44,2.31A2.4,2.4,0,0,0,45.13,106a15.15,15.15,0,0,0,1-5l.73-9.85H47c6-.59,11.35-.94,16-1,1.29,0,3-.23,3.13-1.42,0-.8-1-1.77-3.14-3.13l-.06,0a12,12,0,0,0-3-.91,35.58,35.58,0,0,0-4.87.75c-2.42.41-5.07.82-8,1.25a6.71,6.71,0,0,1,.46-2A4.13,4.13,0,0,0,48,83a2.49,2.49,0,0,0-1.3-2l2.83-.38a79.19,79.19,0,0,0,10.16-2c1-.21,2.23-.6,2.23-1.53,0-.73-.51-1.32-1.52-1.76a8,8,0,0,0-3.39-1,5.85,5.85,0,0,0-1.73.42c-1.3.39-2.84.77-4.61,1.13.81-.85,1.68-1.85,2.61-3,.74-1.11,1.56-2.23,2.36-3.28,1-.84,1.26-1.21,1.26-1.49A3,3,0,0,0,55.65,66c7.11-.51,12.18-.76,15.09-.76,2,0,2.9.34,3.27.64a18.3,18.3,0,0,1,.78,6.35c0,11.22-.8,19.62-2.35,25-.83,2.27-1.77,3.48-2.72,3.48a42.88,42.88,0,0,1-6.72-1A7.93,7.93,0,0,0,60.76,99a1,1,0,0,0-1.06,1c0,.31.17.77,1.36,1.88a49.44,49.44,0,0,1,6,7.85,3.7,3.7,0,0,0,3,1.89l.7,0v0c1.75-.18,3.65-1.62,5.79-4.39,2.57-3.26,4-8.36,4.37-15.12l1-14.22a36.15,36.15,0,0,1,1.68-9.26,6.72,6.72,0,0,0,.9-2.86C84.52,64.67,83.62,63.45,81.76,62.11Zm-33.18,4.5A7.75,7.75,0,0,1,48.76,68a11.25,11.25,0,0,1-.93,3.7,58.18,58.18,0,0,1-2.9,5.24q-2.26.39-4.41.72a5,5,0,0,0,.31-1.86,9.54,9.54,0,0,0-1.52-5.67A12.23,12.23,0,0,0,36.52,68C40.24,67.49,44.27,67,48.58,66.61Z"/></g></g></svg>
