<svg xmlns="http://www.w3.org/2000/svg" xmlns:xlink="http://www.w3.org/1999/xlink" viewBox="0 0 101.39 138"><defs><style>.cls-1{fill:none;}.cls-2{fill:#232120;}</style><symbol id="Болванка-новая" data-name="Болванка-новая" viewBox="0 0 101.39 138"><rect class="cls-1" width="101.39" height="138" rx="6.76"/></symbol></defs><g id="Слой_2" data-name="Слой 2"><g id="Слой_1-2" data-name="Слой 1"><use width="101.39" height="138" xlink:href="#Болванка-новая"/><path class="cls-2" d="M83.51,60.34l0,0c-4.18-2.69-5.26-3-5.72-3a23,23,0,0,0-4,.54c-3.92.81-8,1.52-12.25,2.1l-5.4.58c.07-1.11.14-2.3.21-3.55a54.06,54.06,0,0,1,.84-8.6,10,10,0,0,0,.35-1.88,2.8,2.8,0,0,0-1.64-2.36,130.65,130.65,0,0,0,13.15-2c2.37-.39,3.43-.94,3.43-1.78,0-1-.77-1.9-2.27-2.56A12.11,12.11,0,0,0,65,36.16a13.06,13.06,0,0,0-2.67.52c-3.65.84-8.5,1.65-14.41,2.41-8.5,1.18-16.41,2-23.49,2.54-4.05.11-4.88.57-4.88,1.24s.64,1.55,2,2.48c1.27.73,3.42,1.08,6.58,1.08,1.28,0,3.05-.07,5.31-.22.1.13.22.27.36.43A9.44,9.44,0,0,1,35,49.37c.19,1.9.28,3.83.28,5.73v4.06c0,1.19,0,2.36-.07,3.48q-9.93,1-17.56,1.61l-.6-.22a11.32,11.32,0,0,0-4-.65c-.64,0-1.7.25-1.7,1.94,0,.37.3.82,1,1.46a15.39,15.39,0,0,1,2.93,7A99.44,99.44,0,0,1,17,86.84l1.37,12a7.46,7.46,0,0,0,1.43,4c.64,1,1.29,1.53,2,1.53s1.17-.45,1.58-1.32a6.48,6.48,0,0,0,.56-2.87c.28,0,.57,0,.87,0,2.21,0,5.41-.19,9.53-.58L57,97.79c3.56-.38,7.41-.62,11.5-.72a44.49,44.49,0,0,1,3.71,7.31,2.24,2.24,0,0,0,1.94,1.45h.71v0c1.16-.23,2.37-1.47,3.68-3.78,1.63-3.21,2.71-7.69,3.19-13.32h0c.27-.9.63-4.29,2-17.09a15.47,15.47,0,0,1,1.52-5.35,4.31,4.31,0,0,0,.91-2.53C86.08,62.83,85.24,61.72,83.51,60.34ZM20.94,68.67a53.86,53.86,0,0,0,5.42-.75q3.67-.51,8.53-1.1a42.11,42.11,0,0,1-1.18,6.42,28.61,28.61,0,0,1-5.08,10.3l-.79,1v.12c0,.71,1,.71,1.44.71.95-.23,2.51-1.2,4.77-3a20.61,20.61,0,0,0,5.69-9.52,34.91,34.91,0,0,0,1.17-6.73l9.18-1c0,3.21-.05,5.61-.11,7.16,0,4.84,1.92,8,5.71,9.46a17.88,17.88,0,0,0,7,1.33,15,15,0,0,0,6.49-1.17,2.18,2.18,0,0,0,1.76-2.14,3.44,3.44,0,0,0-1.13-2.55l-.09-.07a6.31,6.31,0,0,0-2.35-.86,23.21,23.21,0,0,0-4,.49,28.3,28.3,0,0,1-2.84.31c-3.29,0-4.89-1.85-4.89-5.67,0-1.32.08-3.63.25-6.91l1.1-.12c6.79-.7,12-1,15.65-1a6.71,6.71,0,0,1,3,.47c.18.11.48.5.48,1.93a158.47,158.47,0,0,1-2,24.88A22.55,22.55,0,0,1,73.74,93c-.22-.17-.47-.34-.73-.51l0,0A12.21,12.21,0,0,0,68.15,91c-2,0-6,.35-11.91,1-10,1.43-21,2.45-32.5,3-.35-5.14-1.16-12.38-2.41-21.64C21.12,71.79,21,70.2,20.94,68.67Zm20.55-15a19.93,19.93,0,0,1,.37-3.78,4.78,4.78,0,0,0,.21-1.39c0-1-.66-1.89-2-2.8,2.8-.24,6-.55,9.62-.91,0,.51.07,1.09.13,1.74a19.76,19.76,0,0,1,.29,3.71V61.13c-3.08.32-6,.63-8.89.91Q41.44,58.35,41.49,53.67Z"/></g></g></svg>
